STARTFONT 2.1
COMMENT
COMMENT Converted from OpenType font "KH-Dot-Akihabara-16.ttf" by "otf2bdf 3.0".
COMMENT
FONT -FreeType-KH Dot Akihabara 16-Medium-R-Normal--17-120-100-100-P-160-ISO10646-1
SIZE 12 100 100
FONTBOUNDINGBOX 16 16 0 -2
STARTPROPERTIES 19
FOUNDRY "FreeType"
FAMILY_NAME "KH Dot Akihabara 16"
WEIGHT_NAME "Medium"
SLANT "R"
SETWIDTH_NAME "Normal"
ADD_STYLE_NAME ""
PIXEL_SIZE 17
POINT_SIZE 120
RESOLUTION_X 100
RESOLUTION_Y 100
SPACING "P"
AVERAGE_WIDTH 160
CHARSET_REGISTRY "ISO10646"
CHARSET_ENCODING "1"
FONT_ASCENT 13
FONT_DESCENT 2
COPYRIGHT "Copyright (c) Keitarou Hiraki, Font Silo. 1990-2015"
_OTF_FONTFILE "KH-Dot-Akihabara-16.ttf"
_OTF_PSNAME "KH-Dot-Akihabara-16"
ENDPROPERTIES
CHARS 7263
STARTCHAR 0020
ENCODING 32
SWIDTH 480 0
DWIDTH 8 0
BBX 7 16 0 -2
BITMAP
00
00
00
00
00
00
00
00
00
00
00
00
00
00
00
00
ENDCHAR
STARTCHAR 0021
ENCODING 33
SWIDTH 480 0
DWIDTH 8 0
BBX 7 16 0 -2
BITMAP
00
00
10
10
10
10
10
10
10
00
00
10
10
10
00
00
ENDCHAR
STARTCHAR 0022
ENCODING 34
SWIDTH 480 0
DWIDTH 8 0
BBX 7 16 0 -2
BITMAP
00
6C
6C
24
24
48
00
00
00
00
00
00
00
00
00
00
ENDCHAR
STARTCHAR 0023
ENCODING 35
SWIDTH 480 0
DWIDTH 8 0
BBX 7 16 0 -2
BITMAP
00
00
44
44
44
FE
44
44
44
FE
44
44
44
00
00
00
ENDCHAR
STARTCHAR 0024
ENCODING 36
SWIDTH 480 0
DWIDTH 8 0
BBX 7 16 0 -2
BITMAP
10
10
38
54
92
90
50
38
14
12
92
92
54
38
10
10
ENDCHAR
STARTCHAR 0025
ENCODING 37
SWIDTH 480 0
DWIDTH 8 0
BBX 7 16 0 -2
BITMAP
00
00
60
92
92
94
68
10
2C
52
92
92
0C
00
00
00
ENDCHAR
STARTCHAR 0026
ENCODING 38
SWIDTH 480 0
DWIDTH 8 0
BBX 7 16 0 -2
BITMAP
00
00
70
88
88
88
90
64
A4
94
94
88
88
76
00
00
ENDCHAR
STARTCHAR 0027
ENCODING 39
SWIDTH 480 0
DWIDTH 8 0
BBX 7 16 0 -2
BITMAP
00
30
30
10
10
20
00
00
00
00
00
00
00
00
00
00
ENDCHAR
STARTCHAR 0028
ENCODING 40
SWIDTH 480 0
DWIDTH 8 0
BBX 7 16 0 -2
BITMAP
02
04
08
08
10
10
10
10
10
10
10
08
08
04
02
00
ENDCHAR
STARTCHAR 0029
ENCODING 41
SWIDTH 480 0
DWIDTH 8 0
BBX 7 16 0 -2
BITMAP
40
20
10
10
08
08
08
08
08
08
08
10
10
20
40
00
ENDCHAR
STARTCHAR 002A
ENCODING 42
SWIDTH 480 0
DWIDTH 8 0
BBX 7 16 0 -2
BITMAP
00
00
00
00
10
92
54
38
38
54
92
10
00
00
00
00
ENDCHAR
STARTCHAR 002B
ENCODING 43
SWIDTH 480 0
DWIDTH 8 0
BBX 7 16 0 -2
BITMAP
00
00
00
10
10
10
10
FE
10
10
10
10
00
00
00
00
ENDCHAR
STARTCHAR 002C
ENCODING 44
SWIDTH 480 0
DWIDTH 8 0
BBX 7 16 0 -2
BITMAP
00
00
00
00
00
00
00
00
00
00
00
18
18
08
08
10
ENDCHAR
STARTCHAR 002D
ENCODING 45
SWIDTH 480 0
DWIDTH 8 0
BBX 7 16 0 -2
BITMAP
00
00
00
00
00
00
00
FE
00
00
00
00
00
00
00
00
ENDCHAR
STARTCHAR 002E
ENCODING 46
SWIDTH 480 0
DWIDTH 8 0
BBX 7 16 0 -2
BITMAP
00
00
00
00
00
00
00
00
00
00
00
18
18
00
00
00
ENDCHAR
STARTCHAR 002F
ENCODING 47
SWIDTH 480 0
DWIDTH 8 0
BBX 7 16 0 -2
BITMAP
02
02
04
04
08
08
08
10
10
20
20
20
40
40
80
80
ENDCHAR
STARTCHAR 0030
ENCODING 48
SWIDTH 480 0
DWIDTH 8 0
BBX 7 16 0 -2
BITMAP
00
00
18
24
42
42
42
42
42
42
42
42
24
18
00
00
ENDCHAR
STARTCHAR 0031
ENCODING 49
SWIDTH 480 0
DWIDTH 8 0
BBX 7 16 0 -2
BITMAP
00
00
70
08
08
08
08
08
08
08
08
08
08
08
00
00
ENDCHAR
STARTCHAR 0032
ENCODING 50
SWIDTH 480 0
DWIDTH 8 0
BBX 7 16 0 -2
BITMAP
00
00
3C
42
42
02
04
08
10
20
20
40
40
3E
00
00
ENDCHAR
STARTCHAR 0033
ENCODING 51
SWIDTH 480 0
DWIDTH 8 0
BBX 7 16 0 -2
BITMAP
00
00
38
44
42
02
04
38
04
02
02
42
44
38
00
00
ENDCHAR
STARTCHAR 0034
ENCODING 52
SWIDTH 480 0
DWIDTH 8 0
BBX 7 16 0 -2
BITMAP
00
00
08
14
14
24
24
44
44
44
3E
04
04
04
00
00
ENDCHAR
STARTCHAR 0035
ENCODING 53
SWIDTH 480 0
DWIDTH 8 0
BBX 7 16 0 -2
BITMAP
00
00
3E
40
40
40
58
64
02
02
02
42
44
38
00
00
ENDCHAR
STARTCHAR 0036
ENCODING 54
SWIDTH 480 0
DWIDTH 8 0
BBX 7 16 0 -2
BITMAP
00
00
1C
22
42
40
58
64
42
42
42
42
24
18
00
00
ENDCHAR
STARTCHAR 0037
ENCODING 55
SWIDTH 480 0
DWIDTH 8 0
BBX 7 16 0 -2
BITMAP
00
00
7C
02
02
02
04
04
08
08
10
10
10
10
00
00
ENDCHAR
STARTCHAR 0038
ENCODING 56
SWIDTH 480 0
DWIDTH 8 0
BBX 7 16 0 -2
BITMAP
00
00
18
24
42
42
24
18
24
42
42
42
24
18
00
00
ENDCHAR
STARTCHAR 0039
ENCODING 57
SWIDTH 480 0
DWIDTH 8 0
BBX 7 16 0 -2
BITMAP
00
00
18
24
42
42
42
42
26
1A
02
42
44
38
00
00
ENDCHAR
STARTCHAR 003A
ENCODING 58
SWIDTH 480 0
DWIDTH 8 0
BBX 7 16 0 -2
BITMAP
00
00
00
00
00
18
18
00
00
00
00
18
18
00
00
00
ENDCHAR
STARTCHAR 003B
ENCODING 59
SWIDTH 480 0
DWIDTH 8 0
BBX 7 16 0 -2
BITMAP
00
00
00
00
00
18
18
00
00
00
00
18
18
08
08
10
ENDCHAR
STARTCHAR 003C
ENCODING 60
SWIDTH 480 0
DWIDTH 8 0
BBX 7 16 0 -2
BITMAP
00
02
04
08
10
20
40
80
40
20
10
08
04
02
00
00
ENDCHAR
STARTCHAR 003D
ENCODING 61
SWIDTH 480 0
DWIDTH 8 0
BBX 7 16 0 -2
BITMAP
00
00
00
00
00
00
FE
00
00
FE
00
00
00
00
00
00
ENDCHAR
STARTCHAR 003E
ENCODING 62
SWIDTH 480 0
DWIDTH 8 0
BBX 7 16 0 -2
BITMAP
00
80
40
20
10
08
04
02
04
08
10
20
40
80
00
00
ENDCHAR
STARTCHAR 003F
ENCODING 63
SWIDTH 480 0
DWIDTH 8 0
BBX 7 16 0 -2
BITMAP
00
00
38
44
82
82
04
08
10
10
00
10
10
10
00
00
ENDCHAR
STARTCHAR 0040
ENCODING 64
SWIDTH 480 0
DWIDTH 8 0
BBX 7 16 0 -2
BITMAP
00
00
38
44
82
9A
AA
AA
AA
AA
9C
40
42
3C
00
00
ENDCHAR
STARTCHAR 0041
ENCODING 65
SWIDTH 480 0
DWIDTH 8 0
BBX 7 16 0 -2
BITMAP
00
00
38
44
82
82
82
82
82
FE
82
82
82
82
00
00
ENDCHAR
STARTCHAR 0042
ENCODING 66
SWIDTH 480 0
DWIDTH 8 0
BBX 7 16 0 -2
BITMAP
00
00
78
84
82
82
84
F8
84
82
82
82
84
78
00
00
ENDCHAR
STARTCHAR 0043
ENCODING 67
SWIDTH 480 0
DWIDTH 8 0
BBX 7 16 0 -2
BITMAP
00
00
3C
42
42
80
80
80
80
80
82
42
42
3C
00
00
ENDCHAR
STARTCHAR 0044
ENCODING 68
SWIDTH 480 0
DWIDTH 8 0
BBX 7 16 0 -2
BITMAP
00
00
70
88
84
82
82
82
82
82
82
84
88
70
00
00
ENDCHAR
STARTCHAR 0045
ENCODING 69
SWIDTH 480 0
DWIDTH 8 0
BBX 7 16 0 -2
BITMAP
00
00
7E
80
80
80
80
FE
80
80
80
80
80
7E
00
00
ENDCHAR
STARTCHAR 0046
ENCODING 70
SWIDTH 480 0
DWIDTH 8 0
BBX 7 16 0 -2
BITMAP
00
00
7E
80
80
80
80
FE
80
80
80
80
80
80
00
00
ENDCHAR
STARTCHAR 0047
ENCODING 71
SWIDTH 480 0
DWIDTH 8 0
BBX 7 16 0 -2
BITMAP
00
00
38
44
82
82
80
80
9C
82
82
82
44
38
00
00
ENDCHAR
STARTCHAR 0048
ENCODING 72
SWIDTH 480 0
DWIDTH 8 0
BBX 7 16 0 -2
BITMAP
00
00
82
82
82
82
82
FE
82
82
82
82
82
82
00
00
ENDCHAR
STARTCHAR 0049
ENCODING 73
SWIDTH 480 0
DWIDTH 8 0
BBX 7 16 0 -2
BITMAP
00
00
10
10
10
10
10
10
10
10
10
10
10
10
00
00
ENDCHAR
STARTCHAR 004A
ENCODING 74
SWIDTH 480 0
DWIDTH 8 0
BBX 7 16 0 -2
BITMAP
00
00
04
04
04
04
04
04
04
04
04
04
84
84
48
30
ENDCHAR
STARTCHAR 004B
ENCODING 75
SWIDTH 480 0
DWIDTH 8 0
BBX 7 16 0 -2
BITMAP
00
00
82
82
82
84
88
F0
88
84
82
82
82
82
00
00
ENDCHAR
STARTCHAR 004C
ENCODING 76
SWIDTH 480 0
DWIDTH 8 0
BBX 7 16 0 -2
BITMAP
00
00
80
80
80
80
80
80
80
80
80
80
80
7E
00
00
ENDCHAR
STARTCHAR 004D
ENCODING 77
SWIDTH 480 0
DWIDTH 8 0
BBX 7 16 0 -2
BITMAP
00
00
6C
92
92
92
92
92
92
92
92
92
92
92
00
00
ENDCHAR
STARTCHAR 004E
ENCODING 78
SWIDTH 480 0
DWIDTH 8 0
BBX 7 16 0 -2
BITMAP
00
00
38
44
82
82
82
82
82
82
82
82
82
82
00
00
ENDCHAR
STARTCHAR 004F
ENCODING 79
SWIDTH 480 0
DWIDTH 8 0
BBX 7 16 0 -2
BITMAP
00
00
38
44
82
82
82
82
82
82
82
82
44
38
00
00
ENDCHAR
STARTCHAR 0050
ENCODING 80
SWIDTH 480 0
DWIDTH 8 0
BBX 7 16 0 -2
BITMAP
00
00
78
84
82
82
82
84
F8
80
80
80
80
80
00
00
ENDCHAR
STARTCHAR 0051
ENCODING 81
SWIDTH 480 0
DWIDTH 8 0
BBX 7 16 0 -2
BITMAP
00
00
38
44
82
82
82
82
82
82
B2
8A
44
3A
02
00
ENDCHAR
STARTCHAR 0052
ENCODING 82
SWIDTH 480 0
DWIDTH 8 0
BBX 7 16 0 -2
BITMAP
00
00
78
84
82
82
84
F8
84
84
82
82
82
82
00
00
ENDCHAR
STARTCHAR 0053
ENCODING 83
SWIDTH 480 0
DWIDTH 8 0
BBX 7 16 0 -2
BITMAP
00
00
3C
40
80
80
40
38
04
02
02
02
04
F8
00
00
ENDCHAR
STARTCHAR 0054
ENCODING 84
SWIDTH 480 0
DWIDTH 8 0
BBX 7 16 0 -2
BITMAP
00
00
FE
10
10
10
10
10
10
10
10
10
10
10
00
00
ENDCHAR
STARTCHAR 0055
ENCODING 85
SWIDTH 480 0
DWIDTH 8 0
BBX 7 16 0 -2
BITMAP
00
00
82
82
82
82
82
82
82
82
82
82
44
38
00
00
ENDCHAR
STARTCHAR 0056
ENCODING 86
SWIDTH 480 0
DWIDTH 8 0
BBX 7 16 0 -2
BITMAP
00
00
82
82
82
82
82
84
84
84
88
88
90
60
00
00
ENDCHAR
STARTCHAR 0057
ENCODING 87
SWIDTH 480 0
DWIDTH 8 0
BBX 7 16 0 -2
BITMAP
00
00
92
92
92
92
92
92
92
92
92
92
92
6C
00
00
ENDCHAR
STARTCHAR 0058
ENCODING 88
SWIDTH 480 0
DWIDTH 8 0
BBX 7 16 0 -2
BITMAP
00
00
C6
28
28
10
10
10
10
10
10
28
28
C6
00
00
ENDCHAR
STARTCHAR 0059
ENCODING 89
SWIDTH 480 0
DWIDTH 8 0
BBX 7 16 0 -2
BITMAP
00
00
82
82
82
82
82
44
38
10
10
10
10
10
00
00
ENDCHAR
STARTCHAR 005A
ENCODING 90
SWIDTH 480 0
DWIDTH 8 0
BBX 7 16 0 -2
BITMAP
00
00
FC
02
02
04
08
10
20
40
80
80
80
7E
00
00
ENDCHAR
STARTCHAR 005B
ENCODING 91
SWIDTH 480 0
DWIDTH 8 0
BBX 7 16 0 -2
BITMAP
1E
20
20
20
20
20
20
20
20
20
20
20
20
1E
00
00
ENDCHAR
STARTCHAR 005C
ENCODING 92
SWIDTH 480 0
DWIDTH 8 0
BBX 7 16 0 -2
BITMAP
00
00
82
82
82
44
38
10
FE
10
FE
10
10
10
00
00
ENDCHAR
STARTCHAR 005D
ENCODING 93
SWIDTH 480 0
DWIDTH 8 0
BBX 7 16 0 -2
BITMAP
78
04
04
04
04
04
04
04
04
04
04
04
04
78
00
00
ENDCHAR
STARTCHAR 005E
ENCODING 94
SWIDTH 480 0
DWIDTH 8 0
BBX 7 16 0 -2
BITMAP
00
10
28
44
82
00
00
00
00
00
00
00
00
00
00
00
ENDCHAR
STARTCHAR 005F
ENCODING 95
SWIDTH 480 0
DWIDTH 8 0
BBX 7 16 0 -2
BITMAP
00
00
00
00
00
00
00
00
00
00
00
00
00
FE
00
00
ENDCHAR
STARTCHAR 0060
ENCODING 96
SWIDTH 480 0
DWIDTH 8 0
BBX 7 16 0 -2
BITMAP
00
08
10
10
18
18
00
00
00
00
00
00
00
00
00
00
ENDCHAR
STARTCHAR 0061
ENCODING 97
SWIDTH 480 0
DWIDTH 8 0
BBX 7 16 0 -2
BITMAP
00
00
00
00
00
3A
46
82
82
82
82
82
46
3A
00
00
ENDCHAR
STARTCHAR 0062
ENCODING 98
SWIDTH 480 0
DWIDTH 8 0
BBX 7 16 0 -2
BITMAP
80
80
80
80
80
B8
C4
82
82
82
82
82
44
38
00
00
ENDCHAR
STARTCHAR 0063
ENCODING 99
SWIDTH 480 0
DWIDTH 8 0
BBX 7 16 0 -2
BITMAP
00
00
00
00
00
38
44
82
80
80
80
82
44
38
00
00
ENDCHAR
STARTCHAR 0064
ENCODING 100
SWIDTH 480 0
DWIDTH 8 0
BBX 7 16 0 -2
BITMAP
02
02
02
02
02
3A
46
82
82
82
82
82
44
38
00
00
ENDCHAR
STARTCHAR 0065
ENCODING 101
SWIDTH 480 0
DWIDTH 8 0
BBX 7 16 0 -2
BITMAP
00
00
00
00
00
38
44
82
82
FE
80
80
42
3C
00
00
ENDCHAR
STARTCHAR 0066
ENCODING 102
SWIDTH 480 0
DWIDTH 8 0
BBX 7 16 0 -2
BITMAP
0E
10
20
20
20
FC
20
20
20
20
20
20
20
20
00
00
ENDCHAR
STARTCHAR 0067
ENCODING 103
SWIDTH 480 0
DWIDTH 8 0
BBX 7 16 0 -2
BITMAP
00
00
00
00
00
38
44
82
82
82
82
46
3A
02
84
78
ENDCHAR
STARTCHAR 0068
ENCODING 104
SWIDTH 480 0
DWIDTH 8 0
BBX 7 16 0 -2
BITMAP
80
80
80
80
80
B8
C4
82
82
82
82
82
82
82
00
00
ENDCHAR
STARTCHAR 0069
ENCODING 105
SWIDTH 480 0
DWIDTH 8 0
BBX 7 16 0 -2
BITMAP
10
10
10
00
00
10
10
10
10
10
10
10
10
10
00
00
ENDCHAR
STARTCHAR 006A
ENCODING 106
SWIDTH 480 0
DWIDTH 8 0
BBX 7 16 0 -2
BITMAP
04
04
04
00
00
04
04
04
04
04
04
84
84
84
48
30
ENDCHAR
STARTCHAR 006B
ENCODING 107
SWIDTH 480 0
DWIDTH 8 0
BBX 7 16 0 -2
BITMAP
80
80
80
80
80
82
82
84
F8
84
84
82
82
82
00
00
ENDCHAR
STARTCHAR 006C
ENCODING 108
SWIDTH 480 0
DWIDTH 8 0
BBX 7 16 0 -2
BITMAP
10
10
10
10
10
10
10
10
10
10
10
10
10
10
00
00
ENDCHAR
STARTCHAR 006D
ENCODING 109
SWIDTH 480 0
DWIDTH 8 0
BBX 7 16 0 -2
BITMAP
00
00
00
00
00
6C
92
92
92
92
92
92
92
92
00
00
ENDCHAR
STARTCHAR 006E
ENCODING 110
SWIDTH 480 0
DWIDTH 8 0
BBX 7 16 0 -2
BITMAP
00
00
00
00
00
38
44
82
82
82
82
82
82
82
00
00
ENDCHAR
STARTCHAR 006F
ENCODING 111
SWIDTH 480 0
DWIDTH 8 0
BBX 7 16 0 -2
BITMAP
00
00
00
00
00
38
44
82
82
82
82
82
44
38
00
00
ENDCHAR
STARTCHAR 0070
ENCODING 112
SWIDTH 480 0
DWIDTH 8 0
BBX 7 16 0 -2
BITMAP
00
00
00
00
00
38
44
82
82
82
82
82
C4
B8
80
80
ENDCHAR
STARTCHAR 0071
ENCODING 113
SWIDTH 480 0
DWIDTH 8 0
BBX 7 16 0 -2
BITMAP
00
00
00
00
00
38
44
82
82
82
82
82
46
3A
02
02
ENDCHAR
STARTCHAR 0072
ENCODING 114
SWIDTH 480 0
DWIDTH 8 0
BBX 7 16 0 -2
BITMAP
00
00
00
00
00
BC
C2
80
80
80
80
80
80
80
00
00
ENDCHAR
STARTCHAR 0073
ENCODING 115
SWIDTH 480 0
DWIDTH 8 0
BBX 7 16 0 -2
BITMAP
00
00
00
00
00
7C
80
80
80
7C
02
02
02
FC
00
00
ENDCHAR
STARTCHAR 0074
ENCODING 116
SWIDTH 480 0
DWIDTH 8 0
BBX 7 16 0 -2
BITMAP
00
00
20
20
20
FC
20
20
20
20
20
20
10
0C
00
00
ENDCHAR
STARTCHAR 0075
ENCODING 117
SWIDTH 480 0
DWIDTH 8 0
BBX 7 16 0 -2
BITMAP
00
00
00
00
00
82
82
82
82
82
82
82
44
38
00
00
ENDCHAR
STARTCHAR 0076
ENCODING 118
SWIDTH 480 0
DWIDTH 8 0
BBX 7 16 0 -2
BITMAP
00
00
00
00
00
82
82
82
82
84
84
88
90
60
00
00
ENDCHAR
STARTCHAR 0077
ENCODING 119
SWIDTH 480 0
DWIDTH 8 0
BBX 7 16 0 -2
BITMAP
00
00
00
00
00
92
92
92
92
92
92
92
92
6C
00
00
ENDCHAR
STARTCHAR 0078
ENCODING 120
SWIDTH 480 0
DWIDTH 8 0
BBX 7 16 0 -2
BITMAP
00
00
00
00
00
C6
28
28
10
10
10
28
28
C6
00
00
ENDCHAR
STARTCHAR 0079
ENCODING 121
SWIDTH 480 0
DWIDTH 8 0
BBX 7 16 0 -2
BITMAP
00
00
00
00
00
82
82
82
82
82
82
46
3A
02
84
78
ENDCHAR
STARTCHAR 007A
ENCODING 122
SWIDTH 480 0
DWIDTH 8 0
BBX 7 16 0 -2
BITMAP
00
00
00
00
00
FC
02
04
18
20
40
80
80
7E
00
00
ENDCHAR
STARTCHAR 007B
ENCODING 123
SWIDTH 480 0
DWIDTH 8 0
BBX 7 16 0 -2
BITMAP
02
04
08
10
10
10
10
60
10
10
10
10
08
04
02
00
ENDCHAR
STARTCHAR 007C
ENCODING 124
SWIDTH 480 0
DWIDTH 8 0
BBX 7 16 0 -2
BITMAP
10
10
10
10
10
10
10
10
10
10
10
10
10
10
10
10
ENDCHAR
STARTCHAR 007D
ENCODING 125
SWIDTH 480 0
DWIDTH 8 0
BBX 7 16 0 -2
BITMAP
40
20
10
08
08
08
08
06
08
08
08
08
10
20
40
00
ENDCHAR
STARTCHAR 00A0
ENCODING 160
SWIDTH 480 0
DWIDTH 8 0
BBX 7 16 0 -2
BITMAP
00
00
00
00
00
00
00
00
00
00
00
00
00
00
00
00
ENDCHAR
STARTCHAR 00A2
ENCODING 162
SWIDTH 960 0
DWIDTH 16 0
BBX 7 14 4 -2
BITMAP
04
04
04
04
3C
4A
8A
88
90
90
52
3C
20
20
ENDCHAR
STARTCHAR 00A3
ENCODING 163
SWIDTH 960 0
DWIDTH 16 0
BBX 11 13 2 -1
BITMAP
0F00
1080
2000
2000
1000
FF80
1000
0800
0820
6820
9820
9640
6180
ENDCHAR
STARTCHAR 00A5
ENCODING 165
SWIDTH 480 0
DWIDTH 8 0
BBX 7 12 0 0
BITMAP
82
82
82
44
38
10
FE
10
FE
10
10
10
ENDCHAR
STARTCHAR 00A7
ENCODING 167
SWIDTH 960 0
DWIDTH 16 0
BBX 15 16 0 -2
BITMAP
0380
0440
0820
0820
0400
0300
04C0
0820
0640
0180
0040
0820
0820
0440
0380
0000
ENDCHAR
STARTCHAR 00A8
ENCODING 168
SWIDTH 960 0
DWIDTH 16 0
BBX 15 16 0 -2
BITMAP
0CC0
0CC0
0000
0000
0000
0000
0000
0000
0000
0000
0000
0000
0000
0000
0000
0000
ENDCHAR
STARTCHAR 00AC
ENCODING 172
SWIDTH 960 0
DWIDTH 16 0
BBX 15 16 0 -2
BITMAP
0000
0000
0000
0000
0000
0000
3FF8
0008
0008
0008
0008
0000
0000
0000
0000
0000
ENDCHAR
STARTCHAR 00B0
ENCODING 176
SWIDTH 960 0
DWIDTH 16 0
BBX 15 16 0 -2
BITMAP
7000
8800
8800
8800
7000
0000
0000
0000
0000
0000
0000
0000
0000
0000
0000
0000
ENDCHAR
STARTCHAR 00B1
ENCODING 177
SWIDTH 960 0
DWIDTH 16 0
BBX 15 16 0 -2
BITMAP
0000
0100
0100
0100
0100
3FF8
0100
0100
0100
0100
0000
0000
3FF8
0000
0000
0000
ENDCHAR
STARTCHAR 00B4
ENCODING 180
SWIDTH 960 0
DWIDTH 16 0
BBX 15 16 0 -2
BITMAP
0180
0100
0200
0000
0000
0000
0000
0000
0000
0000
0000
0000
0000
0000
0000
0000
ENDCHAR
STARTCHAR 00B6
ENCODING 182
SWIDTH 960 0
DWIDTH 16 0
BBX 15 16 0 -2
BITMAP
0000
0FE0
1E20
3E20
3E20
1E20
0E20
0220
0220
0220
0220
0220
0220
0220
0220
0000
ENDCHAR
STARTCHAR 00D7
ENCODING 215
SWIDTH 960 0
DWIDTH 16 0
BBX 15 16 0 -2
BITMAP
0000
0000
0000
1010
0820
0440
0280
0100
0100
0280
0440
0820
1010
0000
0000
0000
ENDCHAR
STARTCHAR 00F7
ENCODING 247
SWIDTH 960 0
DWIDTH 16 0
BBX 15 16 0 -2
BITMAP
0000
0000
0100
0380
0100
0000
0000
3FF8
0000
0000
0100
0380
0100
0000
0000
0000
ENDCHAR
STARTCHAR 0391
ENCODING 913
SWIDTH 960 0
DWIDTH 16 0
BBX 15 16 0 -2
BITMAP
0000
0000
0380
0440
0820
1010
1010
1010
1010
1FF0
1010
1010
1010
1010
0000
0000
ENDCHAR
STARTCHAR 0392
ENCODING 914
SWIDTH 960 0
DWIDTH 16 0
BBX 15 16 0 -2
BITMAP
0000
0000
0F80
1040
1020
1020
1040
1FC0
1020
1010
1010
1010
1020
0FC0
0000
0000
ENDCHAR
STARTCHAR 0393
ENCODING 915
SWIDTH 960 0
DWIDTH 16 0
BBX 15 16 0 -2
BITMAP
0000
0000
07F0
0800
0800
0800
0800
0800
0800
0800
0800
0800
0800
0800
0000
0000
ENDCHAR
STARTCHAR 0394
ENCODING 916
SWIDTH 960 0
DWIDTH 16 0
BBX 15 16 0 -2
BITMAP
0000
0000
0100
0100
0280
0280
0440
0440
0820
0820
1010
1010
2008
3FF8
0000
0000
ENDCHAR
STARTCHAR 0395
ENCODING 917
SWIDTH 960 0
DWIDTH 16 0
BBX 15 16 0 -2
BITMAP
0000
0000
07F0
0800
0800
0800
0800
0FF0
0800
0800
0800
0800
0800
07F0
0000
0000
ENDCHAR
STARTCHAR 0396
ENCODING 918
SWIDTH 960 0
DWIDTH 16 0
BBX 15 16 0 -2
BITMAP
0000
0000
0FE0
0010
0020
0040
0080
0100
0200
0400
0400
0800
0800
07F8
0000
0000
ENDCHAR
STARTCHAR 0397
ENCODING 919
SWIDTH 960 0
DWIDTH 16 0
BBX 15 16 0 -2
BITMAP
0000
0000
0810
0810
0810
0810
0810
0FF0
0810
0810
0810
0810
0810
0810
0000
0000
ENDCHAR
STARTCHAR 0398
ENCODING 920
SWIDTH 960 0
DWIDTH 16 0
BBX 15 16 0 -2
BITMAP
0000
0000
07C0
0820
1010
2008
2008
27C8
2008
2008
2008
1010
0820
07C0
0000
0000
ENDCHAR
STARTCHAR 0399
ENCODING 921
SWIDTH 960 0
DWIDTH 16 0
BBX 15 16 0 -2
BITMAP
0000
0000
0100
0100
0100
0100
0100
0100
0100
0100
0100
0100
0100
0100
0000
0000
ENDCHAR
STARTCHAR 039A
ENCODING 922
SWIDTH 960 0
DWIDTH 16 0
BBX 15 16 0 -2
BITMAP
0000
0000
1020
1020
1020
1040
1080
1F00
1080
1040
1040
1020
1020
1020
0000
0000
ENDCHAR
STARTCHAR 039B
ENCODING 923
SWIDTH 960 0
DWIDTH 16 0
BBX 15 16 0 -2
BITMAP
0000
0000
0380
0440
0820
1010
1010
1010
1010
1010
1010
1010
1010
1010
0000
0000
ENDCHAR
STARTCHAR 039C
ENCODING 924
SWIDTH 960 0
DWIDTH 16 0
BBX 15 16 0 -2
BITMAP
0000
0000
0C60
1290
2108
2108
2108
2108
2108
2108
2108
2108
2108
2108
0000
0000
ENDCHAR
STARTCHAR 039D
ENCODING 925
SWIDTH 960 0
DWIDTH 16 0
BBX 15 16 0 -2
BITMAP
0000
0000
0C10
1210
1210
1210
1110
1110
1110
1110
1090
1090
1090
1060
0000
0000
ENDCHAR
STARTCHAR 039E
ENCODING 926
SWIDTH 960 0
DWIDTH 16 0
BBX 15 16 0 -2
BITMAP
0000
0000
3FF8
0000
0000
0000
0000
1FF0
0000
0000
0000
0000
0000
3FF8
0000
0000
ENDCHAR
STARTCHAR 039F
ENCODING 927
SWIDTH 960 0
DWIDTH 16 0
BBX 15 16 0 -2
BITMAP
0000
0000
07C0
0820
1010
2008
2008
2008
2008
2008
2008
1010
0820
07C0
0000
0000
ENDCHAR
STARTCHAR 03A0
ENCODING 928
SWIDTH 960 0
DWIDTH 16 0
BBX 15 16 0 -2
BITMAP
0000
0000
03C0
0420
0810
0810
0810
0810
0810
0810
0810
0810
0810
0810
0000
0000
ENDCHAR
STARTCHAR 03A1
ENCODING 929
SWIDTH 960 0
DWIDTH 16 0
BBX 15 16 0 -2
BITMAP
0000
0000
07C0
0820
0810
0810
0810
0820
0FC0
0800
0800
0800
0800
0800
0000
0000
ENDCHAR
STARTCHAR 03A3
ENCODING 931
SWIDTH 960 0
DWIDTH 16 0
BBX 15 16 0 -2
BITMAP
0000
0000
0FF8
1000
0800
0400
0200
0100
0200
0400
0800
1000
1000
0FF8
0000
0000
ENDCHAR
STARTCHAR 03A4
ENCODING 932
SWIDTH 960 0
DWIDTH 16 0
BBX 15 16 0 -2
BITMAP
0000
0000
3FF8
0100
0100
0100
0100
0100
0100
0100
0100
0100
0100
0100
0000
0000
ENDCHAR
STARTCHAR 03A5
ENCODING 933
SWIDTH 960 0
DWIDTH 16 0
BBX 15 16 0 -2
BITMAP
0000
0000
1C70
2288
2108
0100
0100
0100
0100
0100
0100
0100
0100
0100
0000
0000
ENDCHAR
STARTCHAR 03A6
ENCODING 934
SWIDTH 960 0
DWIDTH 16 0
BBX 15 16 0 -2
BITMAP
0000
0000
0100
0100
07C0
0920
1110
2108
2108
1110
0920
07C0
0100
0100
0000
0000
ENDCHAR
STARTCHAR 03A7
ENCODING 935
SWIDTH 960 0
DWIDTH 16 0
BBX 15 16 0 -2
BITMAP
0000
0000
3018
0C60
0280
0280
0100
0100
0100
0100
0280
0280
0C60
3018
0000
0000
ENDCHAR
STARTCHAR 03A8
ENCODING 936
SWIDTH 960 0
DWIDTH 16 0
BBX 15 16 0 -2
BITMAP
0000
0000
0100
0100
2108
2108
2108
1110
0920
07C0
0100
0100
0100
0100
0000
0000
ENDCHAR
STARTCHAR 03A9
ENCODING 937
SWIDTH 960 0
DWIDTH 16 0
BBX 15 16 0 -2
BITMAP
0000
0000
07C0
0820
1010
1010
2008
2008
1010
1010
0820
0440
0440
3838
0000
0000
ENDCHAR
STARTCHAR 03B1
ENCODING 945
SWIDTH 960 0
DWIDTH 16 0
BBX 15 16 0 -2
BITMAP
0000
0000
0000
0000
0000
0000
0710
0890
1060
1040
1040
1040
08C0
0730
0000
0000
ENDCHAR
STARTCHAR 03B2
ENCODING 946
SWIDTH 960 0
DWIDTH 16 0
BBX 15 16 0 -2
BITMAP
0000
0000
0380
0440
0420
0820
0840
0980
0840
0820
0820
0840
0B80
0800
0800
0800
ENDCHAR
STARTCHAR 03B3
ENCODING 947
SWIDTH 960 0
DWIDTH 16 0
BBX 15 16 0 -2
BITMAP
0000
0000
0000
0000
0000
0000
0C38
0240
0280
0100
0100
0100
0100
0100
0100
0100
ENDCHAR
STARTCHAR 03B4
ENCODING 948
SWIDTH 960 0
DWIDTH 16 0
BBX 15 16 0 -2
BITMAP
0000
0000
03F0
0400
0400
0200
0180
0440
0820
0820
0820
0820
0440
0380
0000
0000
ENDCHAR
STARTCHAR 03B5
ENCODING 949
SWIDTH 960 0
DWIDTH 16 0
BBX 15 16 0 -2
BITMAP
0000
0000
0000
0000
0000
0000
07E0
0800
0800
07C0
0400
0800
0800
07E0
0000
0000
ENDCHAR
STARTCHAR 03B6
ENCODING 950
SWIDTH 960 0
DWIDTH 16 0
BBX 15 16 0 -2
BITMAP
0000
0000
1000
1000
0FF0
0080
0100
0200
0400
0800
1000
1000
0F80
0040
0040
0040
ENDCHAR
STARTCHAR 03B7
ENCODING 951
SWIDTH 960 0
DWIDTH 16 0
BBX 15 16 0 -2
BITMAP
0000
0000
0000
0000
0000
0000
1B80
0440
0420
0420
0420
0420
0420
0020
0020
0020
ENDCHAR
STARTCHAR 03B8
ENCODING 952
SWIDTH 960 0
DWIDTH 16 0
BBX 15 16 0 -2
BITMAP
0000
0000
0380
0440
0820
0820
0820
0FE0
0820
0820
0820
0820
0440
0380
0000
0000
ENDCHAR
STARTCHAR 03B9
ENCODING 953
SWIDTH 960 0
DWIDTH 16 0
BBX 15 16 0 -2
BITMAP
0000
0000
0000
0000
0000
0000
0400
0400
0400
0400
0420
0420
0240
0180
0000
0000
ENDCHAR
STARTCHAR 03BA
ENCODING 954
SWIDTH 960 0
DWIDTH 16 0
BBX 15 16 0 -2
BITMAP
0000
0000
0000
0000
0000
0000
0860
0880
0900
0A00
0D00
0880
0880
0860
0000
0000
ENDCHAR
STARTCHAR 03BB
ENCODING 955
SWIDTH 960 0
DWIDTH 16 0
BBX 15 16 0 -2
BITMAP
0000
0000
0300
0080
0080
0080
0080
0080
0080
0180
0280
0480
0840
1030
0000
0000
ENDCHAR
STARTCHAR 03BC
ENCODING 956
SWIDTH 960 0
DWIDTH 16 0
BBX 15 16 0 -2
BITMAP
0000
0000
0000
0000
0000
0000
0840
0840
0840
0840
0840
0CC0
0B30
0800
0800
0800
ENDCHAR
STARTCHAR 03BD
ENCODING 957
SWIDTH 960 0
DWIDTH 16 0
BBX 15 16 0 -2
BITMAP
0000
0000
0000
0000
0000
0000
0820
0820
0820
0840
0840
0880
0900
0600
0000
0000
ENDCHAR
STARTCHAR 03BE
ENCODING 958
SWIDTH 960 0
DWIDTH 16 0
BBX 15 16 0 -2
BITMAP
0000
0000
03C0
0400
07E0
0800
0800
0800
07E0
0800
0800
0800
07C0
0020
0020
0020
ENDCHAR
STARTCHAR 03BF
ENCODING 959
SWIDTH 960 0
DWIDTH 16 0
BBX 15 16 0 -2
BITMAP
0000
0000
0000
0000
0000
0000
0380
0440
0820
0820
0820
0820
0440
0380
0000
0000
ENDCHAR
STARTCHAR 03C0
ENCODING 960
SWIDTH 960 0
DWIDTH 16 0
BBX 15 16 0 -2
BITMAP
0000
0000
0000
0000
0000
0000
1FF0
0440
0440
0440
0440
0440
0440
0438
0000
0000
ENDCHAR
STARTCHAR 03C1
ENCODING 961
SWIDTH 960 0
DWIDTH 16 0
BBX 15 16 0 -2
BITMAP
0000
0000
0000
0000
0000
0000
0380
0440
0820
0820
0820
0C40
0B80
0800
0800
0800
ENDCHAR
STARTCHAR 03C3
ENCODING 963
SWIDTH 960 0
DWIDTH 16 0
BBX 15 16 0 -2
BITMAP
0000
0000
0000
0000
0000
0000
03F8
0440
0820
0820
0820
0820
0440
0380
0000
0000
ENDCHAR
STARTCHAR 03C4
ENCODING 964
SWIDTH 960 0
DWIDTH 16 0
BBX 15 16 0 -2
BITMAP
0000
0000
0000
0000
0000
0000
1FF0
0200
0200
0200
0200
0210
0120
00C0
0000
0000
ENDCHAR
STARTCHAR 03C5
ENCODING 965
SWIDTH 960 0
DWIDTH 16 0
BBX 15 16 0 -2
BITMAP
0000
0000
0000
0000
0000
0000
0820
0820
0820
0820
0820
0840
0440
0380
0000
0000
ENDCHAR
STARTCHAR 03C6
ENCODING 966
SWIDTH 960 0
DWIDTH 16 0
BBX 15 16 0 -2
BITMAP
0000
0000
0100
0100
0100
0100
07C0
0920
1110
1110
1110
0920
07C0
0100
0100
0100
ENDCHAR
STARTCHAR 03C7
ENCODING 967
SWIDTH 960 0
DWIDTH 16 0
BBX 15 16 0 -2
BITMAP
0000
0000
0000
0000
0000
0000
1C60
0280
0100
0100
0100
0100
0280
0280
0440
1820
ENDCHAR
STARTCHAR 03C8
ENCODING 968
SWIDTH 960 0
DWIDTH 16 0
BBX 15 16 0 -2
BITMAP
0000
0000
0100
0100
0100
0100
1110
1110
1110
1110
1110
0920
07C0
0100
0100
0100
ENDCHAR
STARTCHAR 03C9
ENCODING 969
SWIDTH 960 0
DWIDTH 16 0
BBX 15 16 0 -2
BITMAP
0000
0000
0000
0000
0000
0000
0000
2008
2108
2108
2108
2108
1290
0C60
0000
0000
ENDCHAR
STARTCHAR 0401
ENCODING 1025
SWIDTH 960 0
DWIDTH 16 0
BBX 15 16 0 -2
BITMAP
0440
0440
0000
07F0
0800
0800
0800
0FE0
0800
0800
0800
0800
0800
07F0
0000
0000
ENDCHAR
STARTCHAR 0410
ENCODING 1040
SWIDTH 960 0
DWIDTH 16 0
BBX 15 16 0 -2
BITMAP
0000
0000
0380
0440
0820
1010
1010
1010
1010
1FF0
1010
1010
1010
1010
0000
0000
ENDCHAR
STARTCHAR 0411
ENCODING 1041
SWIDTH 960 0
DWIDTH 16 0
BBX 15 16 0 -2
BITMAP
0000
0000
07E0
0800
0800
0800
0800
0FC0
0820
0810
0810
0810
0820
07C0
0000
0000
ENDCHAR
STARTCHAR 0412
ENCODING 1042
SWIDTH 960 0
DWIDTH 16 0
BBX 15 16 0 -2
BITMAP
0000
0000
07C0
0820
0810
0810
0820
0FC0
0820
0810
0810
0810
0820
07C0
0000
0000
ENDCHAR
STARTCHAR 0413
ENCODING 1043
SWIDTH 960 0
DWIDTH 16 0
BBX 15 16 0 -2
BITMAP
0000
0000
07E0
0800
0800
0800
0800
0800
0800
0800
0800
0800
0800
0800
0000
0000
ENDCHAR
STARTCHAR 0414
ENCODING 1044
SWIDTH 960 0
DWIDTH 16 0
BBX 15 16 0 -2
BITMAP
0000
0000
03C0
0420
0420
0420
0420
0420
0420
0820
0820
0820
1020
1FE0
2010
2010
ENDCHAR
STARTCHAR 0415
ENCODING 1045
SWIDTH 960 0
DWIDTH 16 0
BBX 15 16 0 -2
BITMAP
0000
0000
07F0
0800
0800
0800
0FE0
0800
0800
0800
0800
0800
0800
07F0
0000
0000
ENDCHAR
STARTCHAR 0416
ENCODING 1046
SWIDTH 960 0
DWIDTH 16 0
BBX 15 16 0 -2
BITMAP
0000
0000
2108
2108
2108
1110
0920
07C0
0920
1110
2108
2108
2108
2108
0000
0000
ENDCHAR
STARTCHAR 0417
ENCODING 1047
SWIDTH 960 0
DWIDTH 16 0
BBX 15 16 0 -2
BITMAP
0000
0000
1FC0
0020
0010
0010
0020
07C0
0020
0010
0010
0010
0020
1FC0
0000
0000
ENDCHAR
STARTCHAR 0418
ENCODING 1048
SWIDTH 960 0
DWIDTH 16 0
BBX 15 16 0 -2
BITMAP
0000
0000
1060
1090
1090
1090
1110
1110
1110
1110
1210
1210
1210
0C10
0000
0000
ENDCHAR
STARTCHAR 0419
ENCODING 1049
SWIDTH 960 0
DWIDTH 16 0
BBX 15 16 0 -2
BITMAP
0440
0380
1060
1090
1090
1090
1110
1110
1110
1110
1210
1210
1210
0C10
0000
0000
ENDCHAR
STARTCHAR 041A
ENCODING 1050
SWIDTH 960 0
DWIDTH 16 0
BBX 15 16 0 -2
BITMAP
0000
0000
1070
1080
1100
1100
1200
1F00
1080
1040
1020
1020
1010
1010
0000
0000
ENDCHAR
STARTCHAR 041B
ENCODING 1051
SWIDTH 960 0
DWIDTH 16 0
BBX 15 16 0 -2
BITMAP
0000
0000
03C0
0420
0420
0420
0420
0420
0420
0420
0420
0420
0820
3020
0000
0000
ENDCHAR
STARTCHAR 041C
ENCODING 1052
SWIDTH 960 0
DWIDTH 16 0
BBX 15 16 0 -2
BITMAP
0000
0000
0C60
1290
2108
2108
2108
2108
2108
2108
2108
2108
2008
2008
0000
0000
ENDCHAR
STARTCHAR 041D
ENCODING 1053
SWIDTH 960 0
DWIDTH 16 0
BBX 15 16 0 -2
BITMAP
0000
0000
1010
1010
1010
1010
1FF0
1010
1010
1010
1010
1010
1010
1010
0000
0000
ENDCHAR
STARTCHAR 041E
ENCODING 1054
SWIDTH 960 0
DWIDTH 16 0
BBX 15 16 0 -2
BITMAP
0000
0000
07C0
0820
1010
2008
2008
2008
2008
2008
2008
1010
0820
07C0
0000
0000
ENDCHAR
STARTCHAR 041F
ENCODING 1055
SWIDTH 960 0
DWIDTH 16 0
BBX 15 16 0 -2
BITMAP
0000
0000
0FE0
1010
1010
1010
1010
1010
1010
1010
1010
1010
1010
1010
0000
0000
ENDCHAR
STARTCHAR 0420
ENCODING 1056
SWIDTH 960 0
DWIDTH 16 0
BBX 15 16 0 -2
BITMAP
0000
0000
07C0
0820
0810
0810
0810
0820
0FC0
0800
0800
0800
0800
0800
0000
0000
ENDCHAR
STARTCHAR 0421
ENCODING 1057
SWIDTH 960 0
DWIDTH 16 0
BBX 15 16 0 -2
BITMAP
0000
0000
07C0
0820
1010
2010
2000
2000
2000
2000
2010
1010
0820
07C0
0000
0000
ENDCHAR
STARTCHAR 0422
ENCODING 1058
SWIDTH 960 0
DWIDTH 16 0
BBX 15 16 0 -2
BITMAP
0000
0000
3FF8
0100
0100
0100
0100
0100
0100
0100
0100
0100
0100
0100
0000
0000
ENDCHAR
STARTCHAR 0423
ENCODING 1059
SWIDTH 960 0
DWIDTH 16 0
BBX 15 16 0 -2
BITMAP
0000
0000
1010
1010
1010
1010
1010
0830
0450
0390
0010
0020
0040
0F80
0000
0000
ENDCHAR
STARTCHAR 0424
ENCODING 1060
SWIDTH 960 0
DWIDTH 16 0
BBX 15 16 0 -2
BITMAP
0000
0100
0100
07C0
0920
1110
2108
2108
2108
2108
1110
0920
07C0
0100
0100
0000
ENDCHAR
STARTCHAR 0425
ENCODING 1061
SWIDTH 960 0
DWIDTH 16 0
BBX 15 16 0 -2
BITMAP
0000
0000
3018
0C60
0280
0280
0100
0100
0100
0100
0280
0280
0C60
3018
0000
0000
ENDCHAR
STARTCHAR 0426
ENCODING 1062
SWIDTH 960 0
DWIDTH 16 0
BBX 15 16 0 -2
BITMAP
0000
0000
1020
1020
1020
1020
1020
1020
1020
1020
1020
1020
0820
07F0
0008
0008
ENDCHAR
STARTCHAR 0427
ENCODING 1063
SWIDTH 960 0
DWIDTH 16 0
BBX 15 16 0 -2
BITMAP
0000
0000
1020
1020
1020
1020
1020
1020
0860
07A0
0020
0020
0020
0020
0000
0000
ENDCHAR
STARTCHAR 0428
ENCODING 1064
SWIDTH 960 0
DWIDTH 16 0
BBX 15 16 0 -2
BITMAP
0000
0000
2108
2108
2108
2108
2108
2108
2108
2108
2108
2108
1110
0FE0
0000
0000
ENDCHAR
STARTCHAR 0429
ENCODING 1065
SWIDTH 960 0
DWIDTH 16 0
BBX 15 16 0 -2
BITMAP
0000
0000
2108
2108
2108
2108
2108
2108
2108
2108
2108
2108
1108
0FFC
0002
0002
ENDCHAR
STARTCHAR 042A
ENCODING 1066
SWIDTH 960 0
DWIDTH 16 0
BBX 15 16 0 -2
BITMAP
0000
0000
3C00
0200
0200
0200
03E0
0210
0208
0208
0208
0208
0110
00E0
0000
0000
ENDCHAR
STARTCHAR 042B
ENCODING 1067
SWIDTH 960 0
DWIDTH 16 0
BBX 15 16 0 -2
BITMAP
0000
0000
2008
2008
2008
2008
3E08
2108
2088
2088
2088
2088
1108
0E08
0000
0000
ENDCHAR
STARTCHAR 042C
ENCODING 1068
SWIDTH 960 0
DWIDTH 16 0
BBX 15 16 0 -2
BITMAP
0000
0000
0800
0800
0800
0800
0FC0
0820
0810
0810
0810
0810
0420
03C0
0000
0000
ENDCHAR
STARTCHAR 042D
ENCODING 1069
SWIDTH 960 0
DWIDTH 16 0
BBX 15 16 0 -2
BITMAP
0000
0000
1FC0
0020
0010
0010
0608
0928
10C8
0008
0010
0010
0020
1FC0
0000
0000
ENDCHAR
STARTCHAR 042E
ENCODING 1070
SWIDTH 960 0
DWIDTH 16 0
BBX 15 16 0 -2
BITMAP
0000
0000
21E0
2210
2408
2408
3C08
2408
2408
2408
2408
2408
2210
21E0
0000
0000
ENDCHAR
STARTCHAR 042F
ENCODING 1071
SWIDTH 960 0
DWIDTH 16 0
BBX 15 16 0 -2
BITMAP
0000
0000
07C0
0820
1020
1020
0820
07E0
0420
0420
0420
0420
0820
3020
0000
0000
ENDCHAR
STARTCHAR 0430
ENCODING 1072
SWIDTH 960 0
DWIDTH 16 0
BBX 15 16 0 -2
BITMAP
0000
0000
0000
0000
0000
0000
0F80
0040
0040
0FC0
1040
1040
10C0
0F40
0000
0000
ENDCHAR
STARTCHAR 0431
ENCODING 1073
SWIDTH 960 0
DWIDTH 16 0
BBX 15 16 0 -2
BITMAP
0000
0000
07C0
0800
1000
1000
1780
1840
1020
1020
1020
1020
0840
0780
0000
0000
ENDCHAR
STARTCHAR 0432
ENCODING 1074
SWIDTH 960 0
DWIDTH 16 0
BBX 15 16 0 -2
BITMAP
0000
0000
0000
0000
0000
0000
07C0
0820
0820
0FC0
0820
0820
0820
07C0
0000
0000
ENDCHAR
STARTCHAR 0433
ENCODING 1075
SWIDTH 960 0
DWIDTH 16 0
BBX 15 16 0 -2
BITMAP
0000
0000
0000
0000
0000
0000
07E0
0800
0800
0800
0800
0800
0800
0800
0000
0000
ENDCHAR
STARTCHAR 0434
ENCODING 1076
SWIDTH 960 0
DWIDTH 16 0
BBX 15 16 0 -2
BITMAP
0000
0000
0000
0000
0000
0000
01C0
0220
0220
0220
0220
0420
0420
0FE0
1010
1010
ENDCHAR
STARTCHAR 0435
ENCODING 1077
SWIDTH 960 0
DWIDTH 16 0
BBX 15 16 0 -2
BITMAP
0000
0000
0000
0000
0000
0000
0780
0840
1020
1FE0
1000
1000
0800
07C0
0000
0000
ENDCHAR
STARTCHAR 0436
ENCODING 1078
SWIDTH 960 0
DWIDTH 16 0
BBX 15 16 0 -2
BITMAP
0000
0000
0000
0000
0000
0000
1110
1110
0920
07C0
0540
0920
1110
1110
0000
0000
ENDCHAR
STARTCHAR 0437
ENCODING 1079
SWIDTH 960 0
DWIDTH 16 0
BBX 15 16 0 -2
BITMAP
0000
0000
0000
0000
0000
0000
0F80
0040
0040
0780
0040
0020
0020
0FC0
0000
0000
ENDCHAR
STARTCHAR 0438
ENCODING 1080
SWIDTH 960 0
DWIDTH 16 0
BBX 15 16 0 -2
BITMAP
0000
0000
0000
0000
0000
0000
08C0
0920
0920
0920
0920
0920
0920
0620
0000
0000
ENDCHAR
STARTCHAR 0439
ENCODING 1081
SWIDTH 960 0
DWIDTH 16 0
BBX 15 16 0 -2
BITMAP
0000
0000
0440
0380
0000
0000
08C0
0920
0920
0920
0920
0920
0920
0620
0000
0000
ENDCHAR
STARTCHAR 043A
ENCODING 1082
SWIDTH 960 0
DWIDTH 16 0
BBX 15 16 0 -2
BITMAP
0000
0000
0000
0000
0000
0000
0860
0880
0900
0F00
0880
0840
0820
0820
0000
0000
ENDCHAR
STARTCHAR 043B
ENCODING 1083
SWIDTH 960 0
DWIDTH 16 0
BBX 15 16 0 -2
BITMAP
0000
0000
0000
0000
0000
0000
01C0
0220
0220
0220
0220
0220
0420
1820
0000
0000
ENDCHAR
STARTCHAR 043C
ENCODING 1084
SWIDTH 960 0
DWIDTH 16 0
BBX 15 16 0 -2
BITMAP
0000
0000
0000
0000
0000
0000
0EE0
1110
1110
1110
1110
1110
1110
1010
0000
0000
ENDCHAR
STARTCHAR 043D
ENCODING 1085
SWIDTH 960 0
DWIDTH 16 0
BBX 15 16 0 -2
BITMAP
0000
0000
0000
0000
0000
0000
0820
0820
0820
0FE0
0820
0820
0820
0820
0000
0000
ENDCHAR
STARTCHAR 043E
ENCODING 1086
SWIDTH 960 0
DWIDTH 16 0
BBX 15 16 0 -2
BITMAP
0000
0000
0000
0000
0000
0000
0780
0840
1020
1020
1020
1020
0840
0780
0000
0000
ENDCHAR
STARTCHAR 043F
ENCODING 1087
SWIDTH 960 0
DWIDTH 16 0
BBX 15 16 0 -2
BITMAP
0000
0000
0000
0000
0000
0000
07C0
0820
0820
0820
0820
0820
0820
0820
0000
0000
ENDCHAR
STARTCHAR 0440
ENCODING 1088
SWIDTH 960 0
DWIDTH 16 0
BBX 15 16 0 -2
BITMAP
0000
0000
0000
0000
0000
0000
0380
0440
0820
0820
0820
0C40
0B80
0800
0800
0800
ENDCHAR
STARTCHAR 0441
ENCODING 1089
SWIDTH 960 0
DWIDTH 16 0
BBX 15 16 0 -2
BITMAP
0000
0000
0000
0000
0000
0000
0780
0840
1020
1000
1000
1020
0840
0780
0000
0000
ENDCHAR
STARTCHAR 0442
ENCODING 1090
SWIDTH 960 0
DWIDTH 16 0
BBX 15 16 0 -2
BITMAP
0000
0000
0000
0000
0000
0000
1FF0
0100
0100
0100
0100
0100
0100
0100
0000
0000
ENDCHAR
STARTCHAR 0443
ENCODING 1091
SWIDTH 960 0
DWIDTH 16 0
BBX 15 16 0 -2
BITMAP
0000
0000
0000
0000
0000
0000
0820
0820
0820
0820
0820
0460
03A0
0020
0040
0780
ENDCHAR
STARTCHAR 0444
ENCODING 1092
SWIDTH 960 0
DWIDTH 16 0
BBX 15 16 0 -2
BITMAP
0000
0100
0100
0100
0100
0100
0D60
1390
2108
2108
2108
1390
0D60
0100
0100
0100
ENDCHAR
STARTCHAR 0445
ENCODING 1093
SWIDTH 960 0
DWIDTH 16 0
BBX 15 16 0 -2
BITMAP
0000
0000
0000
0000
0000
0000
1830
0440
0280
0100
0100
0280
0440
1830
0000
0000
ENDCHAR
STARTCHAR 0446
ENCODING 1094
SWIDTH 960 0
DWIDTH 16 0
BBX 15 16 0 -2
BITMAP
0000
0000
0000
0000
0000
0000
0820
0820
0820
0820
0820
0820
0820
07F0
0008
0008
ENDCHAR
STARTCHAR 0447
ENCODING 1095
SWIDTH 960 0
DWIDTH 16 0
BBX 15 16 0 -2
BITMAP
0000
0000
0000
0000
0000
0000
0820
0820
0820
0860
07A0
0020
0020
0020
0000
0000
ENDCHAR
STARTCHAR 0448
ENCODING 1096
SWIDTH 960 0
DWIDTH 16 0
BBX 15 16 0 -2
BITMAP
0000
0000
0000
0000
0000
0000
1110
1110
1110
1110
1110
1110
1110
0FE0
0000
0000
ENDCHAR
STARTCHAR 0449
ENCODING 1097
SWIDTH 960 0
DWIDTH 16 0
BBX 15 16 0 -2
BITMAP
0000
0000
0000
0000
0000
0000
1110
1110
1110
1110
1110
1110
1110
0FF0
0008
0008
ENDCHAR
STARTCHAR 044A
ENCODING 1098
SWIDTH 960 0
DWIDTH 16 0
BBX 15 16 0 -2
BITMAP
0000
0000
0000
0000
0000
0000
3C00
0200
0200
03E0
0210
0210
0210
01E0
0000
0000
ENDCHAR
STARTCHAR 044B
ENCODING 1099
SWIDTH 960 0
DWIDTH 16 0
BBX 15 16 0 -2
BITMAP
0000
0000
0000
0000
0000
0000
1010
1010
1010
1F10
1090
1090
1090
0F10
0000
0000
ENDCHAR
STARTCHAR 044C
ENCODING 1100
SWIDTH 960 0
DWIDTH 16 0
BBX 15 16 0 -2
BITMAP
0000
0000
0000
0000
0000
0000
0400
0400
0400
07C0
0420
0420
0420
03C0
0000
0000
ENDCHAR
STARTCHAR 044D
ENCODING 1101
SWIDTH 960 0
DWIDTH 16 0
BBX 15 16 0 -2
BITMAP
0000
0000
0000
0000
0000
0000
0F80
0040
0020
0660
09A0
0020
0040
0F80
0000
0000
ENDCHAR
STARTCHAR 044E
ENCODING 1102
SWIDTH 960 0
DWIDTH 16 0
BBX 15 16 0 -2
BITMAP
0000
0000
0000
0000
0000
0000
11E0
1210
1210
1E10
1210
1210
1210
11E0
0000
0000
ENDCHAR
STARTCHAR 044F
ENCODING 1103
SWIDTH 960 0
DWIDTH 16 0
BBX 15 16 0 -2
BITMAP
0000
0000
0000
0000
0000
0000
07C0
0820
0820
07E0
0420
0420
0420
1820
0000
0000
ENDCHAR
STARTCHAR 0451
ENCODING 1105
SWIDTH 960 0
DWIDTH 16 0
BBX 15 16 0 -2
BITMAP
0000
0000
0000
0480
0480
0000
0780
0840
1020
1FE0
1000
1000
0800
07C0
0000
0000
ENDCHAR
STARTCHAR 2000
ENCODING 8192
SWIDTH 960 0
DWIDTH 16 0
BBX 15 16 0 -2
BITMAP
0000
0000
0000
0000
0000
0000
0000
0000
0000
0000
0000
0000
0000
0000
0000
0000
ENDCHAR
STARTCHAR 2001
ENCODING 8193
SWIDTH 960 0
DWIDTH 16 0
BBX 15 16 0 -2
BITMAP
0000
0000
0000
0000
0000
0000
0000
0000
0000
0000
0000
0000
0000
0000
0000
0000
ENDCHAR
STARTCHAR 2002
ENCODING 8194
SWIDTH 960 0
DWIDTH 16 0
BBX 15 16 0 -2
BITMAP
0000
0000
0000
0000
0000
0000
0000
0000
0000
0000
0000
0000
0000
0000
0000
0000
ENDCHAR
STARTCHAR 2003
ENCODING 8195
SWIDTH 960 0
DWIDTH 16 0
BBX 15 16 0 -2
BITMAP
0000
0000
0000
0000
0000
0000
0000
0000
0000
0000
0000
0000
0000
0000
0000
0000
ENDCHAR
STARTCHAR 2004
ENCODING 8196
SWIDTH 960 0
DWIDTH 16 0
BBX 15 16 0 -2
BITMAP
0000
0000
0000
0000
0000
0000
0000
0000
0000
0000
0000
0000
0000
0000
0000
0000
ENDCHAR
STARTCHAR 2005
ENCODING 8197
SWIDTH 960 0
DWIDTH 16 0
BBX 15 16 0 -2
BITMAP
0000
0000
0000
0000
0000
0000
0000
0000
0000
0000
0000
0000
0000
0000
0000
0000
ENDCHAR
STARTCHAR 2006
ENCODING 8198
SWIDTH 960 0
DWIDTH 16 0
BBX 15 16 0 -2
BITMAP
0000
0000
0000
0000
0000
0000
0000
0000
0000
0000
0000
0000
0000
0000
0000
0000
ENDCHAR
STARTCHAR 2007
ENCODING 8199
SWIDTH 960 0
DWIDTH 16 0
BBX 15 16 0 -2
BITMAP
0000
0000
0000
0000
0000
0000
0000
0000
0000
0000
0000
0000
0000
0000
0000
0000
ENDCHAR
STARTCHAR 2008
ENCODING 8200
SWIDTH 960 0
DWIDTH 16 0
BBX 15 16 0 -2
BITMAP
0000
0000
0000
0000
0000
0000
0000
0000
0000
0000
0000
0000
0000
0000
0000
0000
ENDCHAR
STARTCHAR 2009
ENCODING 8201
SWIDTH 960 0
DWIDTH 16 0
BBX 15 16 0 -2
BITMAP
0000
0000
0000
0000
0000
0000
0000
0000
0000
0000
0000
0000
0000
0000
0000
0000
ENDCHAR
STARTCHAR 200A
ENCODING 8202
SWIDTH 960 0
DWIDTH 16 0
BBX 15 16 0 -2
BITMAP
0000
0000
0000
0000
0000
0000
0000
0000
0000
0000
0000
0000
0000
0000
0000
0000
ENDCHAR
STARTCHAR 200B
ENCODING 8203
SWIDTH 480 0
DWIDTH 8 0
BBX 1 1 0 0
BITMAP
00
ENDCHAR
STARTCHAR 200C
ENCODING 8204
SWIDTH 480 0
DWIDTH 8 0
BBX 1 1 0 0
BITMAP
00
ENDCHAR
STARTCHAR 200D
ENCODING 8205
SWIDTH 480 0
DWIDTH 8 0
BBX 1 1 0 0
BITMAP
00
ENDCHAR
STARTCHAR 200E
ENCODING 8206
SWIDTH 480 0
DWIDTH 8 0
BBX 1 1 0 0
BITMAP
00
ENDCHAR
STARTCHAR 200F
ENCODING 8207
SWIDTH 480 0
DWIDTH 8 0
BBX 1 1 0 0
BITMAP
00
ENDCHAR
STARTCHAR 2010
ENCODING 8208
SWIDTH 960 0
DWIDTH 16 0
BBX 5 1 5 6
BITMAP
F8
ENDCHAR
STARTCHAR 2015
ENCODING 8213
SWIDTH 960 0
DWIDTH 16 0
BBX 15 1 0 6
BITMAP
FFFE
ENDCHAR
STARTCHAR 2016
ENCODING 8214
SWIDTH 960 0
DWIDTH 16 0
BBX 5 16 5 -2
BITMAP
88
88
88
88
88
88
88
88
88
88
88
88
88
88
88
88
ENDCHAR
STARTCHAR 2018
ENCODING 8216
SWIDTH 960 0
DWIDTH 16 0
BBX 2 5 12 9
BITMAP
40
80
80
C0
40
ENDCHAR
STARTCHAR 2019
ENCODING 8217
SWIDTH 960 0
DWIDTH 16 0
BBX 2 5 1 9
BITMAP
80
C0
40
40
80
ENDCHAR
STARTCHAR 201C
ENCODING 8220
SWIDTH 960 0
DWIDTH 16 0
BBX 5 5 9 9
BITMAP
48
90
90
D8
48
ENDCHAR
STARTCHAR 201D
ENCODING 8221
SWIDTH 960 0
DWIDTH 16 0
BBX 5 5 1 9
BITMAP
90
D8
48
48
90
ENDCHAR
STARTCHAR 2020
ENCODING 8224
SWIDTH 960 0
DWIDTH 16 0
BBX 9 16 3 -2
BITMAP
0800
1C00
1C00
0800
4900
FF80
4900
0800
1C00
3E00
1C00
0800
0800
0800
0800
0800
ENDCHAR
STARTCHAR 2021
ENCODING 8225
SWIDTH 960 0
DWIDTH 16 0
BBX 9 16 3 -2
BITMAP
1C00
0800
4900
FF80
4900
0800
1C00
0800
0800
1C00
0800
4900
FF80
4900
0800
1C00
ENDCHAR
STARTCHAR 2025
ENCODING 8229
SWIDTH 960 0
DWIDTH 16 0
BBX 13 3 1 5
BITMAP
4010
E038
4010
ENDCHAR
STARTCHAR 2026
ENCODING 8230
SWIDTH 960 0
DWIDTH 16 0
BBX 15 3 0 5
BITMAP
4104
E38E
4104
ENDCHAR
STARTCHAR 2030
ENCODING 8240
SWIDTH 960 0
DWIDTH 16 0
BBX 15 15 0 -1
BITMAP
6010
9020
9040
9080
9100
9200
6400
0800
130C
2492
4492
8492
0492
0492
030C
ENDCHAR
STARTCHAR 2032
ENCODING 8242
SWIDTH 960 0
DWIDTH 16 0
BBX 4 5 0 9
BITMAP
30
20
40
40
80
ENDCHAR
STARTCHAR 2033
ENCODING 8243
SWIDTH 960 0
DWIDTH 16 0
BBX 7 5 0 9
BITMAP
36
24
48
48
90
ENDCHAR
STARTCHAR 203B
ENCODING 8251
SWIDTH 960 0
DWIDTH 16 0
BBX 13 13 1 0
BITMAP
8208
4710
2220
1040
0880
4510
E238
4510
0880
1040
2220
4710
8208
ENDCHAR
STARTCHAR 203E
ENCODING 8254
SWIDTH 480 0
DWIDTH 8 0
BBX 7 1 0 12
BITMAP
FE
ENDCHAR
STARTCHAR 2103
ENCODING 8451
SWIDTH 960 0
DWIDTH 16 0
BBX 16 16 0 -2
BITMAP
0000
3000
49E0
4A10
3408
0808
0800
0800
0800
0800
0808
0408
0210
01E0
0000
0000
ENDCHAR
STARTCHAR 2116
ENCODING 8470
SWIDTH 960 0
DWIDTH 16 0
BBX 16 16 0 -2
BITMAP
0000
0000
4200
4200
6200
5200
5238
5244
4A44
4A44
4A44
4644
4244
423A
0002
0000
ENDCHAR
STARTCHAR 2121
ENCODING 8481
SWIDTH 960 0
DWIDTH 16 0
BBX 16 16 0 -2
BITMAP
0000
0000
FE00
1000
1000
1000
1000
13D0
1210
1210
1390
1210
1210
13DE
0000
0000
ENDCHAR
STARTCHAR 212B
ENCODING 8491
SWIDTH 960 0
DWIDTH 16 0
BBX 16 16 0 -2
BITMAP
0380
0440
0440
0380
0440
0820
0820
1010
1010
1010
1FF0
1010
1010
1010
0000
0000
ENDCHAR
STARTCHAR 2160
ENCODING 8544
SWIDTH 960 0
DWIDTH 16 0
BBX 16 16 0 -2
BITMAP
0000
07C0
0100
0100
0100
0100
0100
0100
0100
0100
0100
0100
0100
07C0
0000
0000
ENDCHAR
STARTCHAR 2161
ENCODING 8545
SWIDTH 960 0
DWIDTH 16 0
BBX 16 16 0 -2
BITMAP
0000
1FF0
0440
0440
0440
0440
0440
0440
0440
0440
0440
0440
0440
1FF0
0000
0000
ENDCHAR
STARTCHAR 2162
ENCODING 8546
SWIDTH 960 0
DWIDTH 16 0
BBX 16 16 0 -2
BITMAP
0000
7FFC
1110
1110
1110
1110
1110
1110
1110
1110
1110
1110
1110
7FFC
0000
0000
ENDCHAR
STARTCHAR 2163
ENCODING 8547
SWIDTH 960 0
DWIDTH 16 0
BBX 16 16 0 -2
BITMAP
0000
7FBE
1208
1208
1208
1110
1110
1110
10A0
10A0
10A0
1040
1040
7C40
0000
0000
ENDCHAR
STARTCHAR 2164
ENCODING 8548
SWIDTH 960 0
DWIDTH 16 0
BBX 16 16 0 -2
BITMAP
0000
3EF8
0820
0820
0820
0440
0440
0440
0280
0280
0280
0100
0100
0100
0000
0000
ENDCHAR
STARTCHAR 2165
ENCODING 8549
SWIDTH 960 0
DWIDTH 16 0
BBX 16 16 0 -2
BITMAP
0000
FBFC
2090
2090
2090
1110
1110
1110
0A10
0A10
0A10
0410
0410
047C
0000
0000
ENDCHAR
STARTCHAR 2166
ENCODING 8550
SWIDTH 960 0
DWIDTH 16 0
BBX 16 16 0 -2
BITMAP
0000
F7FE
2248
2248
2248
2248
1448
1448
1448
1448
0848
0848
0848
09FE
0000
0000
ENDCHAR
STARTCHAR 2167
ENCODING 8551
SWIDTH 960 0
DWIDTH 16 0
BBX 16 16 0 -2
BITMAP
0000
EFFE
4524
4524
4524
4524
2924
2924
2924
2924
1124
1124
1124
13FE
0000
0000
ENDCHAR
STARTCHAR 2168
ENCODING 8552
SWIDTH 960 0
DWIDTH 16 0
BBX 16 16 0 -2
BITMAP
0000
7F9E
1208
1208
1110
10A0
10A0
1040
10A0
10A0
1110
1208
1208
7FBE
0000
0000
ENDCHAR
STARTCHAR 2169
ENCODING 8553
SWIDTH 960 0
DWIDTH 16 0
BBX 16 16 0 -2
BITMAP
0000
3EF8
0820
0820
0440
0280
0280
0100
0280
0280
0440
0820
0820
3EF8
0000
0000
ENDCHAR
STARTCHAR 2190
ENCODING 8592
SWIDTH 960 0
DWIDTH 16 0
BBX 16 16 0 -2
BITMAP
0000
0000
0000
0000
1000
2000
4000
FFFE
4000
2000
1000
0000
0000
0000
0000
0000
ENDCHAR
STARTCHAR 2191
ENCODING 8593
SWIDTH 960 0
DWIDTH 16 0
BBX 16 16 0 -2
BITMAP
0100
0380
0540
0920
0100
0100
0100
0100
0100
0100
0100
0100
0100
0100
0100
0100
ENDCHAR
STARTCHAR 2192
ENCODING 8594
SWIDTH 960 0
DWIDTH 16 0
BBX 16 16 0 -2
BITMAP
0000
0000
0000
0000
0010
0008
0004
FFFE
0004
0008
0010
0000
0000
0000
0000
0000
ENDCHAR
STARTCHAR 2193
ENCODING 8595
SWIDTH 960 0
DWIDTH 16 0
BBX 16 16 0 -2
BITMAP
0100
0100
0100
0100
0100
0100
0100
0100
0100
0100
0100
0100
0920
0540
0380
0100
ENDCHAR
STARTCHAR 21D2
ENCODING 8658
SWIDTH 960 0
DWIDTH 16 0
BBX 16 16 0 -2
BITMAP
0000
0000
0000
0040
0020
7FF0
0008
0004
0008
7FF0
0020
0040
0000
0000
0000
0000
ENDCHAR
STARTCHAR 21D4
ENCODING 8660
SWIDTH 960 0
DWIDTH 16 0
BBX 16 16 0 -2
BITMAP
0000
0000
0000
0840
1020
3FF0
4008
8004
4008
3FF0
1020
0840
0000
0000
0000
0000
ENDCHAR
STARTCHAR 2200
ENCODING 8704
SWIDTH 960 0
DWIDTH 16 0
BBX 16 16 0 -2
BITMAP
0000
2008
2008
1010
1010
1FF0
0820
0820
0440
0440
0440
0280
0280
0100
0100
0000
ENDCHAR
STARTCHAR 2202
ENCODING 8706
SWIDTH 960 0
DWIDTH 16 0
BBX 16 16 0 -2
BITMAP
0000
0000
0380
0440
0020
0020
0020
0720
08A0
1040
1040
2080
2080
1100
0E00
0000
ENDCHAR
STARTCHAR 2203
ENCODING 8707
SWIDTH 960 0
DWIDTH 16 0
BBX 16 16 0 -2
BITMAP
0000
0000
3FF8
0008
0008
0008
0008
3FF8
0008
0008
0008
0008
3FF8
0000
0000
0000
ENDCHAR
STARTCHAR 2207
ENCODING 8711
SWIDTH 960 0
DWIDTH 16 0
BBX 16 16 0 -2
BITMAP
0000
0000
0000
3FF8
1FF0
1810
0820
0C20
0440
0640
0280
0380
0100
0000
0000
0000
ENDCHAR
STARTCHAR 2208
ENCODING 8712
SWIDTH 960 0
DWIDTH 16 0
BBX 16 16 0 -2
BITMAP
0000
0000
0000
0FF8
1000
2000
2000
3FF8
2000
2000
1000
0FF8
0000
0000
0000
0000
ENDCHAR
STARTCHAR 220B
ENCODING 8715
SWIDTH 960 0
DWIDTH 16 0
BBX 16 16 0 -2
BITMAP
0000
0000
0000
3FE0
0010
0008
0008
3FF8
0008
0008
0010
3FE0
0000
0000
0000
0000
ENDCHAR
STARTCHAR 2211
ENCODING 8721
SWIDTH 960 0
DWIDTH 16 0
BBX 16 16 0 -2
BITMAP
0000
0000
1FF8
0800
0400
0200
0100
0080
0100
0200
0400
0800
1000
1FF8
0000
0000
ENDCHAR
STARTCHAR 2212
ENCODING 8722
SWIDTH 960 0
DWIDTH 16 0
BBX 16 16 0 -2
BITMAP
0000
0000
0000
0000
0000
0000
0000
3FF8
0000
0000
0000
0000
0000
0000
0000
0000
ENDCHAR
STARTCHAR 221A
ENCODING 8730
SWIDTH 960 0
DWIDTH 16 0
BBX 16 16 0 -2
BITMAP
00F8
0080
0080
0100
0100
0100
0100
4200
4200
A200
A400
1400
1400
0800
0800
0000
ENDCHAR
STARTCHAR 221D
ENCODING 8733
SWIDTH 960 0
DWIDTH 16 0
BBX 16 16 0 -2
BITMAP
0000
0000
0000
0000
1830
2448
4280
4100
4280
2448
1830
0000
0000
0000
0000
0000
ENDCHAR
STARTCHAR 221E
ENCODING 8734
SWIDTH 960 0
DWIDTH 16 0
BBX 16 16 0 -2
BITMAP
0000
0000
0000
0000
1830
2448
4284
4104
4284
2448
1830
0000
0000
0000
0000
0000
ENDCHAR
STARTCHAR 221F
ENCODING 8735
SWIDTH 960 0
DWIDTH 16 0
BBX 16 16 0 -2
BITMAP
0000
2000
2000
2000
2000
2000
2000
2000
2000
2000
2000
2000
3FFC
0000
0000
0000
ENDCHAR
STARTCHAR 2220
ENCODING 8736
SWIDTH 960 0
DWIDTH 16 0
BBX 16 16 0 -2
BITMAP
0000
0000
0008
0010
0020
0040
0080
0100
0200
0400
0800
1000
3FFC
0000
0000
0000
ENDCHAR
STARTCHAR 2227
ENCODING 8743
SWIDTH 960 0
DWIDTH 16 0
BBX 16 16 0 -2
BITMAP
0000
0000
0100
0100
0280
0280
0440
0440
0820
0820
1010
1010
2008
2008
4004
4004
ENDCHAR
STARTCHAR 2228
ENCODING 8744
SWIDTH 960 0
DWIDTH 16 0
BBX 16 16 0 -2
BITMAP
4004
4004
2008
2008
1010
1010
0820
0820
0440
0440
0280
0280
0100
0100
0000
0000
ENDCHAR
STARTCHAR 2229
ENCODING 8745
SWIDTH 960 0
DWIDTH 16 0
BBX 16 16 0 -2
BITMAP
0000
0380
0440
0820
1010
1010
1010
1010
1010
1010
1010
1010
1010
1010
1010
0000
ENDCHAR
STARTCHAR 222A
ENCODING 8746
SWIDTH 960 0
DWIDTH 16 0
BBX 16 16 0 -2
BITMAP
0000
1010
1010
1010
1010
1010
1010
1010
1010
1010
1010
1010
0820
0440
0380
0000
ENDCHAR
STARTCHAR 222B
ENCODING 8747
SWIDTH 960 0
DWIDTH 16 0
BBX 16 16 0 -2
BITMAP
0180
0240
0240
0200
0200
0100
0100
0100
0080
0080
0080
0040
0040
0240
0240
0180
ENDCHAR
STARTCHAR 222C
ENCODING 8748
SWIDTH 960 0
DWIDTH 16 0
BBX 16 16 0 -2
BITMAP
0C60
1290
1290
1080
1080
0840
0840
0840
0420
0420
0420
0210
0210
1290
1290
0C60
ENDCHAR
STARTCHAR 222E
ENCODING 8750
SWIDTH 960 0
DWIDTH 16 0
BBX 16 16 0 -2
BITMAP
0180
0240
0240
0200
0200
03C0
0520
0520
04A0
03C0
0080
0040
0040
0240
0240
0180
ENDCHAR
STARTCHAR 2234
ENCODING 8756
SWIDTH 960 0
DWIDTH 16 0
BBX 16 16 0 -2
BITMAP
0000
0000
0000
0100
0380
0100
0000
0000
0000
0000
1010
3838
1010
0000
0000
0000
ENDCHAR
STARTCHAR 2235
ENCODING 8757
SWIDTH 960 0
DWIDTH 16 0
BBX 16 16 0 -2
BITMAP
0000
0000
0000
1010
3838
1010
0000
0000
0000
0000
0100
0380
0100
0000
0000
0000
ENDCHAR
STARTCHAR 223D
ENCODING 8765
SWIDTH 960 0
DWIDTH 16 0
BBX 16 16 0 -2
BITMAP
0000
0000
0000
0000
1830
2448
4084
4104
4204
2448
1830
0000
0000
0000
0000
0000
ENDCHAR
STARTCHAR 2252
ENCODING 8786
SWIDTH 960 0
DWIDTH 16 0
BBX 16 16 0 -2
BITMAP
0000
0800
1C00
0800
0000
0000
3FF8
0000
0000
3FF8
0000
0000
0020
0070
0020
0000
ENDCHAR
STARTCHAR 2260
ENCODING 8800
SWIDTH 960 0
DWIDTH 16 0
BBX 16 16 0 -2
BITMAP
0000
0000
0020
0040
0040
0080
3FF8
0100
0100
3FF8
0200
0400
0400
0800
0000
0000
ENDCHAR
STARTCHAR 2261
ENCODING 8801
SWIDTH 960 0
DWIDTH 16 0
BBX 16 16 0 -2
BITMAP
0000
0000
0000
0000
3FF8
0000
0000
3FF8
0000
0000
3FF8
0000
0000
0000
0000
0000
ENDCHAR
STARTCHAR 2266
ENCODING 8806
SWIDTH 960 0
DWIDTH 16 0
BBX 16 16 0 -2
BITMAP
0000
0018
00E0
0300
0C00
3000
0C00
0300
00E0
0018
0000
3FF8
0000
3FF8
0000
0000
ENDCHAR
STARTCHAR 2267
ENCODING 8807
SWIDTH 960 0
DWIDTH 16 0
BBX 16 16 0 -2
BITMAP
0000
3000
0E00
0180
0060
0018
0060
0180
0E00
3000
0000
3FF8
0000
3FF8
0000
0000
ENDCHAR
STARTCHAR 226A
ENCODING 8810
SWIDTH 960 0
DWIDTH 16 0
BBX 16 16 0 -2
BITMAP
0000
0030
0040
018C
0210
0C60
1080
2100
1080
0C60
0210
018C
0040
0030
0000
0000
ENDCHAR
STARTCHAR 226B
ENCODING 8811
SWIDTH 960 0
DWIDTH 16 0
BBX 16 16 0 -2
BITMAP
0000
1800
0400
6300
1080
0C60
0210
0108
0210
0C60
1080
6300
0400
1800
0000
0000
ENDCHAR
STARTCHAR 2282
ENCODING 8834
SWIDTH 960 0
DWIDTH 16 0
BBX 16 16 0 -2
BITMAP
0000
0000
0000
0FF8
1000
2000
2000
2000
2000
2000
1000
0FF8
0000
0000
0000
0000
ENDCHAR
STARTCHAR 2283
ENCODING 8835
SWIDTH 960 0
DWIDTH 16 0
BBX 16 16 0 -2
BITMAP
0000
0000
0000
3FE0
0010
0008
0008
0008
0008
0008
0010
3FE0
0000
0000
0000
0000
ENDCHAR
STARTCHAR 2286
ENCODING 8838
SWIDTH 960 0
DWIDTH 16 0
BBX 16 16 0 -2
BITMAP
0000
0000
0FF8
1000
2000
2000
2000
2000
1000
0FF8
0000
0000
3FF8
0000
0000
0000
ENDCHAR
STARTCHAR 2287
ENCODING 8839
SWIDTH 960 0
DWIDTH 16 0
BBX 16 16 0 -2
BITMAP
0000
0000
3FE0
0010
0008
0008
0008
0008
0010
3FE0
0000
0000
3FF8
0000
0000
0000
ENDCHAR
STARTCHAR 22A5
ENCODING 8869
SWIDTH 960 0
DWIDTH 16 0
BBX 16 16 0 -2
BITMAP
0000
0100
0100
0100
0100
0100
0100
0100
0100
0100
0100
0100
7FFC
0000
0000
0000
ENDCHAR
STARTCHAR 22BF
ENCODING 8895
SWIDTH 960 0
DWIDTH 16 0
BBX 16 16 0 -2
BITMAP
0000
0000
0008
0018
0028
0048
0088
0108
0208
0408
0808
1008
3FF8
0000
0000
0000
ENDCHAR
STARTCHAR 2312
ENCODING 8978
SWIDTH 960 0
DWIDTH 16 0
BBX 16 16 0 -2
BITMAP
0000
0000
07C0
1830
2008
4004
0000
0000
0000
0000
0000
0000
0000
0000
0000
0000
ENDCHAR
STARTCHAR 2460
ENCODING 9312
SWIDTH 960 0
DWIDTH 16 0
BBX 16 16 0 -2
BITMAP
07C0
1830
2108
4304
4504
8102
8102
8102
8102
8102
8102
4104
4104
2008
1830
07C0
ENDCHAR
STARTCHAR 2461
ENCODING 9313
SWIDTH 960 0
DWIDTH 16 0
BBX 16 16 0 -2
BITMAP
07C0
1830
2008
4784
4844
8842
8042
8082
8102
8202
8402
4804
4FC4
2008
1830
07C0
ENDCHAR
STARTCHAR 2462
ENCODING 9314
SWIDTH 960 0
DWIDTH 16 0
BBX 16 16 0 -2
BITMAP
07C0
1830
2008
4784
4844
8842
8042
8382
8042
8042
8842
4844
4784
2008
1830
07C0
ENDCHAR
STARTCHAR 2463
ENCODING 9315
SWIDTH 960 0
DWIDTH 16 0
BBX 16 16 0 -2
BITMAP
07C0
1830
2008
4084
4184
8282
8282
8482
8882
9FE2
8082
4084
4084
2008
1830
07C0
ENDCHAR
STARTCHAR 2464
ENCODING 9316
SWIDTH 960 0
DWIDTH 16 0
BBX 16 16 0 -2
BITMAP
07C0
1830
2008
4FC4
4804
8802
8802
8F82
8842
8042
8842
4844
4784
2008
1830
07C0
ENDCHAR
STARTCHAR 2465
ENCODING 9317
SWIDTH 960 0
DWIDTH 16 0
BBX 16 16 0 -2
BITMAP
07C0
1830
2008
4784
4844
8842
8802
8F82
8842
8842
8842
4844
4784
2008
1830
07C0
ENDCHAR
STARTCHAR 2466
ENCODING 9318
SWIDTH 960 0
DWIDTH 16 0
BBX 16 16 0 -2
BITMAP
07C0
1830
2008
4FC4
4044
8042
8082
8082
8102
8102
8202
4204
4204
2008
1830
07C0
ENDCHAR
STARTCHAR 2467
ENCODING 9319
SWIDTH 960 0
DWIDTH 16 0
BBX 16 16 0 -2
BITMAP
07C0
1830
2008
4784
4844
8842
8842
8782
8842
8842
8842
4844
4784
2008
1830
07C0
ENDCHAR
STARTCHAR 2468
ENCODING 9320
SWIDTH 960 0
DWIDTH 16 0
BBX 16 16 0 -2
BITMAP
07C0
1830
2008
4784
4844
8842
8842
8842
87C2
8042
8842
4844
4784
2008
1830
07C0
ENDCHAR
STARTCHAR 2469
ENCODING 9321
SWIDTH 960 0
DWIDTH 16 0
BBX 16 16 0 -2
BITMAP
07C0
1830
2008
48E4
5914
A912
8912
8912
8912
8912
8912
4914
48E4
2008
1830
07C0
ENDCHAR
STARTCHAR 246A
ENCODING 9322
SWIDTH 960 0
DWIDTH 16 0
BBX 16 16 0 -2
BITMAP
07C0
1830
2008
4444
4CC4
9542
8442
8442
8442
8442
8442
4444
4444
2008
1830
07C0
ENDCHAR
STARTCHAR 246B
ENCODING 9323
SWIDTH 960 0
DWIDTH 16 0
BBX 16 16 0 -2
BITMAP
07C0
1830
2008
48E4
5914
A912
8812
8822
8842
8882
8902
4904
49F4
2008
1830
07C0
ENDCHAR
STARTCHAR 246C
ENCODING 9324
SWIDTH 960 0
DWIDTH 16 0
BBX 16 16 0 -2
BITMAP
07C0
1830
2008
48E4
5914
A912
8812
8862
8812
8812
8912
4914
48E4
2008
1830
07C0
ENDCHAR
STARTCHAR 246D
ENCODING 9325
SWIDTH 960 0
DWIDTH 16 0
BBX 16 16 0 -2
BITMAP
07C0
1830
2008
4824
5864
A8A2
88A2
8922
8A22
8BF2
8822
4824
4824
2008
1830
07C0
ENDCHAR
STARTCHAR 246E
ENCODING 9326
SWIDTH 960 0
DWIDTH 16 0
BBX 16 16 0 -2
BITMAP
07C0
1830
2008
49E4
5904
A902
8902
89E2
8912
8812
8912
4914
48E4
2008
1830
07C0
ENDCHAR
STARTCHAR 246F
ENCODING 9327
SWIDTH 960 0
DWIDTH 16 0
BBX 16 16 0 -2
BITMAP
07C0
1830
2008
48E4
5914
A912
8902
89E2
8912
8912
8912
4914
48E4
2008
1830
07C0
ENDCHAR
STARTCHAR 2470
ENCODING 9328
SWIDTH 960 0
DWIDTH 16 0
BBX 16 16 0 -2
BITMAP
07C0
1830
2008
49F4
5814
A812
8822
8822
8842
8842
8882
4884
4884
2008
1830
07C0
ENDCHAR
STARTCHAR 2471
ENCODING 9329
SWIDTH 960 0
DWIDTH 16 0
BBX 16 16 0 -2
BITMAP
07C0
1830
2008
48E4
5914
A912
8912
88E2
8912
8912
8912
4914
48E4
2008
1830
07C0
ENDCHAR
STARTCHAR 2472
ENCODING 9330
SWIDTH 960 0
DWIDTH 16 0
BBX 16 16 0 -2
BITMAP
07C0
1830
2008
48E4
5914
A912
8912
8912
88F2
8812
8912
4914
48E4
2008
1830
07C0
ENDCHAR
STARTCHAR 2473
ENCODING 9331
SWIDTH 960 0
DWIDTH 16 0
BBX 16 16 0 -2
BITMAP
07C0
1830
2008
4C64
5294
9292
8292
8292
8492
8892
9092
5094
5E64
2008
1830
07C0
ENDCHAR
STARTCHAR 2581
ENCODING 9601
SWIDTH 960 0
DWIDTH 16 0
BBX 16 16 0 -2
BITMAP
8000
8000
4000
4000
2000
2000
2000
1000
1000
0800
0800
0800
0400
0400
0200
0200
ENDCHAR
STARTCHAR 2582
ENCODING 9602
SWIDTH 960 0
DWIDTH 16 0
BBX 16 16 0 -2
BITMAP
0000
7200
8C00
0000
0000
0000
0000
0000
0000
0000
0000
0000
0000
0000
0000
0000
ENDCHAR
STARTCHAR 2583
ENCODING 9603
SWIDTH 960 0
DWIDTH 16 0
BBX 16 16 0 -2
BITMAP
0000
0000
1000
1000
1000
1000
1000
0000
0000
1000
1000
1000
1000
1000
0000
0000
ENDCHAR
STARTCHAR 2587
ENCODING 9607
SWIDTH 960 0
DWIDTH 16 0
BBX 16 16 0 -2
BITMAP
3000
1400
1C00
7000
2000
2000
5800
6A00
CE00
8800
1800
2000
2000
2400
1C00
0000
ENDCHAR
STARTCHAR 2588
ENCODING 9608
SWIDTH 960 0
DWIDTH 16 0
BBX 16 16 0 -2
BITMAP
0000
0000
0000
0000
0000
0000
2000
2800
F800
2400
3E00
6400
BA00
9200
AA00
4C00
ENDCHAR
STARTCHAR 2589
ENCODING 9609
SWIDTH 960 0
DWIDTH 16 0
BBX 16 16 0 -2
BITMAP
0000
0000
0000
0000
0000
0000
3000
1000
1600
1800
1000
1000
7000
9800
9600
6200
ENDCHAR
STARTCHAR 258A
ENCODING 9610
SWIDTH 960 0
DWIDTH 16 0
BBX 16 16 0 -2
BITMAP
0000
0000
0000
0000
0000
0000
1000
C800
5C00
AA00
CA00
AA00
DC00
1000
1000
2000
ENDCHAR
STARTCHAR 258B
ENCODING 9611
SWIDTH 960 0
DWIDTH 16 0
BBX 16 16 0 -2
BITMAP
0000
0000
0000
0000
0000
0000
0C00
6800
4C00
3200
EA00
2C00
2000
1000
1000
1000
ENDCHAR
STARTCHAR 258C
ENCODING 9612
SWIDTH 960 0
DWIDTH 16 0
BBX 16 16 0 -2
BITMAP
0000
0000
0000
0000
0000
0000
2400
2200
FA00
2000
2000
3C00
6200
A200
6C00
0000
ENDCHAR
STARTCHAR 258D
ENCODING 9613
SWIDTH 960 0
DWIDTH 16 0
BBX 16 16 0 -2
BITMAP
0000
0000
0000
0000
0000
2000
1800
0400
5C00
6400
0800
1000
3000
2800
C800
8E00
ENDCHAR
STARTCHAR 258E
ENCODING 9614
SWIDTH 960 0
DWIDTH 16 0
BBX 16 16 0 -2
BITMAP
0000
0000
0000
0000
0000
2000
1800
0000
B800
C400
0400
0400
0800
0800
1000
2000
ENDCHAR
STARTCHAR 258F
ENCODING 9615
SWIDTH 960 0
DWIDTH 16 0
BBX 16 16 0 -2
BITMAP
0000
0000
0000
0000
0000
0000
0000
8000
8400
8200
8200
8600
5000
6000
2000
0000
ENDCHAR
STARTCHAR 25A0
ENCODING 9632
SWIDTH 960 0
DWIDTH 16 0
BBX 16 16 0 -2
BITMAP
FFFE
FFFE
FFFE
FFFE
FFFE
FFFE
FFFE
FFFE
FFFE
FFFE
FFFE
FFFE
FFFE
FFFE
FFFE
FFFE
ENDCHAR
STARTCHAR 25A1
ENCODING 9633
SWIDTH 960 0
DWIDTH 16 0
BBX 16 16 0 -2
BITMAP
FFFE
8002
8002
8002
8002
8002
8002
8002
8002
8002
8002
8002
8002
8002
8002
FFFE
ENDCHAR
STARTCHAR 25B2
ENCODING 9650
SWIDTH 960 0
DWIDTH 16 0
BBX 16 16 0 -2
BITMAP
0100
0100
0380
0380
07C0
07C0
0FE0
0FE0
1FF0
1FF0
3FF8
3FF8
7FFC
7FFC
FFFE
0000
ENDCHAR
STARTCHAR 25B3
ENCODING 9651
SWIDTH 960 0
DWIDTH 16 0
BBX 16 16 0 -2
BITMAP
0100
0100
0280
0280
0440
0440
0820
0820
1010
1010
2008
2008
4004
4004
FFFE
0000
ENDCHAR
STARTCHAR 25BC
ENCODING 9660
SWIDTH 960 0
DWIDTH 16 0
BBX 16 16 0 -2
BITMAP
0000
FFFE
7FFC
7FFC
3FF8
3FF8
1FF0
1FF0
0FE0
0FE0
07C0
07C0
0380
0380
0100
0100
ENDCHAR
STARTCHAR 25BD
ENCODING 9661
SWIDTH 960 0
DWIDTH 16 0
BBX 16 16 0 -2
BITMAP
0000
FFFE
4004
4004
2008
2008
1010
1010
0820
0820
0440
0440
0280
0280
0100
0100
ENDCHAR
STARTCHAR 25C6
ENCODING 9670
SWIDTH 960 0
DWIDTH 16 0
BBX 16 16 0 -2
BITMAP
0100
0380
07C0
0FE0
1FF0
3FF8
7FFC
FFFE
FFFE
7FFC
3FF8
1FF0
0FE0
07C0
0380
0100
ENDCHAR
STARTCHAR 25C7
ENCODING 9671
SWIDTH 960 0
DWIDTH 16 0
BBX 16 16 0 -2
BITMAP
0100
0280
0440
0820
1010
2008
4004
8002
4004
2008
1010
0820
0440
0280
0100
0000
ENDCHAR
STARTCHAR 25CB
ENCODING 9675
SWIDTH 960 0
DWIDTH 16 0
BBX 16 16 0 -2
BITMAP
07C0
1830
2008
4004
4004
8002
8002
8002
8002
8002
8002
4004
4004
2008
1830
07C0
ENDCHAR
STARTCHAR 25CE
ENCODING 9678
SWIDTH 960 0
DWIDTH 16 0
BBX 16 16 0 -2
BITMAP
07C0
1830
2008
4004
47C4
8822
9012
9012
9012
9012
8822
47C4
4004
2008
1830
07C0
ENDCHAR
STARTCHAR 25CF
ENCODING 9679
SWIDTH 960 0
DWIDTH 16 0
BBX 16 16 0 -2
BITMAP
07C0
1FF0
3FF8
7FFC
7FFC
FFFE
FFFE
FFFE
FFFE
FFFE
FFFE
7FFC
7FFC
3FF8
1FF0
07C0
ENDCHAR
STARTCHAR 25EF
ENCODING 9711
SWIDTH 960 0
DWIDTH 16 0
BBX 16 16 0 -2
BITMAP
07C0
1830
2008
4004
4004
8002
8002
8002
8002
8002
8002
4004
4004
2008
1830
07C0
ENDCHAR
STARTCHAR 2605
ENCODING 9733
SWIDTH 960 0
DWIDTH 16 0
BBX 16 16 0 -2
BITMAP
0100
0100
0380
0380
07C0
07C0
FFFE
3FF8
1FF0
07C0
0FE0
0FE0
1EF0
1C70
3018
2008
ENDCHAR
STARTCHAR 2606
ENCODING 9734
SWIDTH 960 0
DWIDTH 16 0
BBX 16 16 0 -2
BITMAP
0100
0100
0280
0280
0440
0440
F83E
2008
1830
0440
0820
0920
1290
1C70
3018
2008
ENDCHAR
STARTCHAR 2640
ENCODING 9792
SWIDTH 960 0
DWIDTH 16 0
BBX 16 16 0 -2
BITMAP
0380
0440
0820
0820
0820
0440
0380
0100
0100
3FF8
0100
0100
0100
0100
0100
0000
ENDCHAR
STARTCHAR 2642
ENCODING 9794
SWIDTH 960 0
DWIDTH 16 0
BBX 16 16 0 -2
BITMAP
0000
00FC
000C
0014
0024
0044
0084
0100
3A00
4400
8200
8200
8200
4400
3800
0000
ENDCHAR
STARTCHAR 266A
ENCODING 9834
SWIDTH 960 0
DWIDTH 16 0
BBX 16 16 0 -2
BITMAP
0000
0100
0180
01C0
0160
0130
0110
0110
0110
0120
0700
1F00
3E00
3E00
1800
0000
ENDCHAR
STARTCHAR 266D
ENCODING 9837
SWIDTH 960 0
DWIDTH 16 0
BBX 16 16 0 -2
BITMAP
0000
0800
0800
0800
0800
0B00
0D80
0CC0
08C0
0880
0980
0B00
0A00
0C00
0800
0000
ENDCHAR
STARTCHAR 266F
ENCODING 9839
SWIDTH 960 0
DWIDTH 16 0
BBX 16 16 0 -2
BITMAP
0000
0040
0440
0470
07F0
1FC0
1C40
0440
0440
0470
07F0
1FC0
1C40
0440
0400
0000
ENDCHAR
STARTCHAR 3000
ENCODING 12288
SWIDTH 960 0
DWIDTH 16 0
BBX 16 16 0 -2
BITMAP
0000
0000
0000
0000
0000
0000
0000
0000
0000
0000
0000
0000
0000
0000
0000
0000
ENDCHAR
STARTCHAR 3001
ENCODING 12289
SWIDTH 960 0
DWIDTH 16 0
BBX 16 16 0 -2
BITMAP
0000
0000
0000
0000
0000
0000
0000
0000
0000
0000
8000
4000
2000
1000
0800
0800
ENDCHAR
STARTCHAR 3002
ENCODING 12290
SWIDTH 960 0
DWIDTH 16 0
BBX 16 16 0 -2
BITMAP
0000
0000
0000
0000
0000
0000
0000
0000
0000
0000
0000
7000
8800
8800
8800
7000
ENDCHAR
STARTCHAR 3003
ENCODING 12291
SWIDTH 960 0
DWIDTH 16 0
BBX 16 16 0 -2
BITMAP
0000
0000
0000
0000
0440
0440
0440
0880
0880
1100
0000
0000
0000
0000
0000
0000
ENDCHAR
STARTCHAR 3005
ENCODING 12293
SWIDTH 960 0
DWIDTH 16 0
BBX 16 16 0 -2
BITMAP
0000
0400
0400
0400
0FE0
0810
1010
1020
2020
4440
8280
0100
0080
0040
0040
0000
ENDCHAR
STARTCHAR 3006
ENCODING 12294
SWIDTH 960 0
DWIDTH 16 0
BBX 16 16 0 -2
BITMAP
0004
0004
0008
0010
0010
0C20
1240
2180
2080
4140
4220
4410
4810
3000
0000
0000
ENDCHAR
STARTCHAR 3007
ENCODING 12295
SWIDTH 960 0
DWIDTH 16 0
BBX 16 16 0 -2
BITMAP
0000
0000
07C0
1830
2008
4004
8002
8002
8002
8002
4004
2008
1830
07C0
0000
0000
ENDCHAR
STARTCHAR 3008
ENCODING 12296
SWIDTH 960 0
DWIDTH 16 0
BBX 16 16 0 -2
BITMAP
0004
0004
0008
0008
0010
0020
0020
0040
0040
0020
0020
0010
0008
0008
0004
0004
ENDCHAR
STARTCHAR 3009
ENCODING 12297
SWIDTH 960 0
DWIDTH 16 0
BBX 16 16 0 -2
BITMAP
4000
4000
2000
2000
1000
0800
0800
0400
0400
0800
0800
1000
2000
2000
4000
4000
ENDCHAR
STARTCHAR 300A
ENCODING 12298
SWIDTH 960 0
DWIDTH 16 0
BBX 16 16 0 -2
BITMAP
0024
0024
0048
0048
0090
0120
0120
0240
0240
0120
0120
0090
0048
0048
0024
0024
ENDCHAR
STARTCHAR 300B
ENCODING 12299
SWIDTH 960 0
DWIDTH 16 0
BBX 16 16 0 -2
BITMAP
4800
4800
2400
2400
1200
0900
0900
0480
0480
0900
0900
1200
2400
2400
4800
4800
ENDCHAR
STARTCHAR 300C
ENCODING 12300
SWIDTH 960 0
DWIDTH 16 0
BBX 16 16 0 -2
BITMAP
007C
0040
0040
0040
0040
0040
0040
0040
0040
0040
0040
0040
0040
0000
0000
0000
ENDCHAR
STARTCHAR 300D
ENCODING 12301
SWIDTH 960 0
DWIDTH 16 0
BBX 16 16 0 -2
BITMAP
0000
0000
0000
0400
0400
0400
0400
0400
0400
0400
0400
0400
0400
0400
0400
7C00
ENDCHAR
STARTCHAR 300E
ENCODING 12302
SWIDTH 960 0
DWIDTH 16 0
BBX 16 16 0 -2
BITMAP
00FC
0084
00BC
00A0
00A0
00A0
00A0
00A0
00A0
00A0
00A0
00A0
00E0
0000
0000
0000
ENDCHAR
STARTCHAR 300F
ENCODING 12303
SWIDTH 960 0
DWIDTH 16 0
BBX 16 16 0 -2
BITMAP
0000
0000
0000
0E00
0A00
0A00
0A00
0A00
0A00
0A00
0A00
0A00
0A00
7A00
4200
7E00
ENDCHAR
STARTCHAR 3010
ENCODING 12304
SWIDTH 960 0
DWIDTH 16 0
BBX 16 16 0 -2
BITMAP
007C
0070
0070
0060
0060
0060
0060
0060
0060
0060
0060
0060
0060
0070
0070
007C
ENDCHAR
STARTCHAR 3011
ENCODING 12305
SWIDTH 960 0
DWIDTH 16 0
BBX 16 16 0 -2
BITMAP
7C00
1C00
1C00
0C00
0C00
0C00
0C00
0C00
0C00
0C00
0C00
0C00
0C00
1C00
1C00
7C00
ENDCHAR
STARTCHAR 3012
ENCODING 12306
SWIDTH 960 0
DWIDTH 16 0
BBX 16 16 0 -2
BITMAP
0000
FFFC
FFFC
0000
0000
FFFC
FFFC
0300
0300
0300
0300
0300
0300
0300
0300
0300
ENDCHAR
STARTCHAR 3013
ENCODING 12307
SWIDTH 960 0
DWIDTH 16 0
BBX 16 16 0 -2
BITMAP
0000
0000
0000
0000
3FF8
3FF8
0000
0000
0000
3FF8
3FF8
0000
0000
0000
0000
0000
ENDCHAR
STARTCHAR 3014
ENCODING 12308
SWIDTH 960 0
DWIDTH 16 0
BBX 16 16 0 -2
BITMAP
0004
0008
0010
0020
0020
0020
0020
0020
0020
0020
0020
0020
0020
0010
0008
0004
ENDCHAR
STARTCHAR 3015
ENCODING 12309
SWIDTH 960 0
DWIDTH 16 0
BBX 16 16 0 -2
BITMAP
4000
2000
1000
0800
0800
0800
0800
0800
0800
0800
0800
0800
0800
1000
2000
4000
ENDCHAR
STARTCHAR 301C
ENCODING 12316
SWIDTH 960 0
DWIDTH 16 0
BBX 16 16 0 -2
BITMAP
0000
0000
0000
0000
0000
3C00
4200
8102
0084
0078
0000
0000
0000
0000
0000
0000
ENDCHAR
STARTCHAR 301D
ENCODING 12317
SWIDTH 960 0
DWIDTH 16 0
BBX 16 16 0 -2
BITMAP
0000
0024
0024
0048
0000
0000
0000
0000
0000
0000
0000
0000
0000
0000
0000
0000
ENDCHAR
STARTCHAR 301F
ENCODING 12319
SWIDTH 960 0
DWIDTH 16 0
BBX 16 16 0 -2
BITMAP
0000
0000
0000
0000
0000
0000
0000
0000
0000
0000
0000
0000
2400
2400
4800
0000
ENDCHAR
STARTCHAR 3041
ENCODING 12353
SWIDTH 960 0
DWIDTH 16 0
BBX 16 16 0 -2
BITMAP
0000
0000
0000
0000
0000
0200
0200
0FC0
0200
03C0
06A0
0A90
1310
1510
0820
00C0
ENDCHAR
STARTCHAR 3042
ENCODING 12354
SWIDTH 960 0
DWIDTH 16 0
BBX 16 16 0 -2
BITMAP
0100
0100
0100
03F0
3E00
0240
07F0
0A48
1284
1284
2304
2204
2508
1810
00E0
0000
ENDCHAR
STARTCHAR 3043
ENCODING 12355
SWIDTH 960 0
DWIDTH 16 0
BBX 16 16 0 -2
BITMAP
0000
0000
0000
0000
0000
0000
0000
0820
1010
1008
1008
1008
0800
0800
0600
0000
ENDCHAR
STARTCHAR 3044
ENCODING 12356
SWIDTH 960 0
DWIDTH 16 0
BBX 16 16 0 -2
BITMAP
0000
0000
1000
1020
2010
2008
2008
2004
2004
2004
1004
1000
0800
0400
0000
0000
ENDCHAR
STARTCHAR 3045
ENCODING 12357
SWIDTH 960 0
DWIDTH 16 0
BBX 16 16 0 -2
BITMAP
0000
0000
0000
0000
0000
0200
01C0
0000
01C0
0620
0020
0020
0020
0020
0040
0180
ENDCHAR
STARTCHAR 3046
ENCODING 12358
SWIDTH 960 0
DWIDTH 16 0
BBX 16 16 0 -2
BITMAP
0400
0300
00C0
0000
0000
07C0
1820
2010
0010
0010
0010
0020
0020
0040
0080
0300
ENDCHAR
STARTCHAR 3047
ENCODING 12359
SWIDTH 960 0
DWIDTH 16 0
BBX 16 16 0 -2
BITMAP
0000
0000
0000
0000
0000
0200
0180
0000
03C0
0C80
0100
0280
0480
0880
1070
0000
ENDCHAR
STARTCHAR 3048
ENCODING 12360
SWIDTH 960 0
DWIDTH 16 0
BBX 16 16 0 -2
BITMAP
0400
0300
00C0
0000
0380
1C40
0040
0080
0100
0200
0500
0880
1080
2080
207C
0000
ENDCHAR
STARTCHAR 3049
ENCODING 12361
SWIDTH 960 0
DWIDTH 16 0
BBX 16 16 0 -2
BITMAP
0000
0000
0000
0000
0000
0000
0400
0420
1F10
0410
07E0
0C10
1410
1410
08E0
0000
ENDCHAR
STARTCHAR 304A
ENCODING 12362
SWIDTH 960 0
DWIDTH 16 0
BBX 16 16 0 -2
BITMAP
0800
0800
0810
1F08
6804
0804
0800
0BF0
0C08
1804
2804
4804
4884
4888
3070
0000
ENDCHAR
STARTCHAR 304B
ENCODING 12363
SWIDTH 960 0
DWIDTH 16 0
BBX 16 16 0 -2
BITMAP
0400
0400
0400
0800
1F10
E888
0844
1044
1042
1042
2042
2080
2080
4100
4600
0000
ENDCHAR
STARTCHAR 304C
ENCODING 12364
SWIDTH 960 0
DWIDTH 16 0
BBX 16 16 0 -2
BITMAP
0404
0412
040A
0808
1F10
E888
0844
1044
1042
1042
2042
2080
2080
4100
4600
0000
ENDCHAR
STARTCHAR 304D
ENCODING 12365
SWIDTH 960 0
DWIDTH 16 0
BBX 16 16 0 -2
BITMAP
0000
0200
0200
03E0
1D00
0080
01F0
1E40
0020
0010
0010
1000
1000
0800
0600
01E0
ENDCHAR
STARTCHAR 304E
ENCODING 12366
SWIDTH 960 0
DWIDTH 16 0
BBX 16 16 0 -2
BITMAP
0004
0212
020A
03E8
3D00
0080
00F0
1F40
0020
0010
0010
1000
1000
0800
0600
01E0
ENDCHAR
STARTCHAR 304F
ENCODING 12367
SWIDTH 960 0
DWIDTH 16 0
BBX 16 16 0 -2
BITMAP
0080
0080
0100
0100
0200
0400
0800
1000
1000
0800
0400
0200
0100
0080
0040
0040
ENDCHAR
STARTCHAR 3050
ENCODING 12368
SWIDTH 960 0
DWIDTH 16 0
BBX 16 16 0 -2
BITMAP
0080
0080
0100
0108
0224
0414
0810
1000
1000
0800
0400
0200
0100
0080
0040
0040
ENDCHAR
STARTCHAR 3051
ENCODING 12369
SWIDTH 960 0
DWIDTH 16 0
BBX 16 16 0 -2
BITMAP
0010
1010
1010
1010
1010
20FE
2310
2010
2010
2010
2010
2010
2020
1020
1040
0180
ENDCHAR
STARTCHAR 3052
ENCODING 12370
SWIDTH 960 0
DWIDTH 16 0
BBX 16 16 0 -2
BITMAP
0024
2032
202A
2028
2020
41FE
4620
4020
4020
4020
4020
4020
4040
2040
2080
0300
ENDCHAR
STARTCHAR 3053
ENCODING 12371
SWIDTH 960 0
DWIDTH 16 0
BBX 16 16 0 -2
BITMAP
0000
0000
0000
0F80
0060
0000
0000
0000
0000
0000
2000
2000
1800
07F8
0000
0000
ENDCHAR
STARTCHAR 3054
ENCODING 12372
SWIDTH 960 0
DWIDTH 16 0
BBX 16 16 0 -2
BITMAP
0008
0024
0014
0F90
0060
0000
0000
0000
0000
0000
2000
2000
1800
07F8
0000
0000
ENDCHAR
STARTCHAR 3055
ENCODING 12373
SWIDTH 960 0
DWIDTH 16 0
BBX 16 16 0 -2
BITMAP
0200
0200
0200
0100
0100
01F0
3E80
0040
0020
0010
0010
1000
1000
0800
0600
01C0
ENDCHAR
STARTCHAR 3056
ENCODING 12374
SWIDTH 960 0
DWIDTH 16 0
BBX 16 16 0 -2
BITMAP
0204
0212
020A
0108
0100
01F0
3E80
0040
0020
0010
0010
1000
1000
0800
0600
01C0
ENDCHAR
STARTCHAR 3057
ENCODING 12375
SWIDTH 960 0
DWIDTH 16 0
BBX 16 16 0 -2
BITMAP
0000
0800
0800
0800
0800
0800
0800
0800
0800
0800
0800
0804
0808
0430
03C0
0000
ENDCHAR
STARTCHAR 3058
ENCODING 12376
SWIDTH 960 0
DWIDTH 16 0
BBX 16 16 0 -2
BITMAP
0000
0800
0810
0848
0828
0820
0800
0800
0800
0800
0800
0804
0808
0430
03C0
0000
ENDCHAR
STARTCHAR 3059
ENCODING 12377
SWIDTH 960 0
DWIDTH 16 0
BBX 16 16 0 -2
BITMAP
0000
0080
0080
0080
0FFE
F080
0680
0980
0880
0880
0980
0680
0080
0100
0E00
0000
ENDCHAR
STARTCHAR 305A
ENCODING 12378
SWIDTH 960 0
DWIDTH 16 0
BBX 16 16 0 -2
BITMAP
0004
0092
008A
0088
0FFE
F080
0680
0980
0880
0880
0980
0680
0080
0100
0E00
0000
ENDCHAR
STARTCHAR 305B
ENCODING 12379
SWIDTH 960 0
DWIDTH 16 0
BBX 16 16 0 -2
BITMAP
0000
0040
0840
0840
0840
0FFC
F840
0840
0840
0840
0880
0800
0800
0400
03F0
0000
ENDCHAR
STARTCHAR 305C
ENCODING 12380
SWIDTH 960 0
DWIDTH 16 0
BBX 16 16 0 -2
BITMAP
0004
0052
084A
0848
0840
0FFE
F840
0840
0840
0840
0880
0800
0800
0400
03F0
0000
ENDCHAR
STARTCHAR 305D
ENCODING 12381
SWIDTH 960 0
DWIDTH 16 0
BBX 16 16 0 -2
BITMAP
0000
0F80
1040
0080
0100
0200
05F8
7E40
0080
0100
0200
0200
0200
0200
0100
00C0
ENDCHAR
STARTCHAR 305E
ENCODING 12382
SWIDTH 960 0
DWIDTH 16 0
BBX 16 16 0 -2
BITMAP
0000
0F84
1052
008A
0108
0200
05F8
7E40
0080
0100
0200
0200
0200
0200
0100
00C0
ENDCHAR
STARTCHAR 305F
ENCODING 12383
SWIDTH 960 0
DWIDTH 16 0
BBX 16 16 0 -2
BITMAP
0000
0800
0800
0800
0F80
7800
10F8
1000
1000
2000
2000
2200
4200
4180
007C
0000
ENDCHAR
STARTCHAR 3060
ENCODING 12384
SWIDTH 960 0
DWIDTH 16 0
BBX 16 16 0 -2
BITMAP
0004
0812
080A
0808
0F80
7800
10F8
1000
1000
2000
2000
2200
4200
4180
007C
0000
ENDCHAR
STARTCHAR 3061
ENCODING 12385
SWIDTH 960 0
DWIDTH 16 0
BBX 16 16 0 -2
BITMAP
0400
0400
0400
0800
0F80
7800
0800
10E0
1310
1408
1808
0008
0010
0060
0380
0000
ENDCHAR
STARTCHAR 3062
ENCODING 12386
SWIDTH 960 0
DWIDTH 16 0
BBX 16 16 0 -2
BITMAP
0400
0408
0424
0814
0F90
7800
0800
10E0
1310
1408
1808
0008
0010
0060
0380
0000
ENDCHAR
STARTCHAR 3063
ENCODING 12387
SWIDTH 960 0
DWIDTH 16 0
BBX 16 16 0 -2
BITMAP
0000
0000
0000
0000
0000
0000
0000
0000
07E0
3810
0010
0010
0010
0020
03C0
0000
ENDCHAR
STARTCHAR 3064
ENCODING 12388
SWIDTH 960 0
DWIDTH 16 0
BBX 16 16 0 -2
BITMAP
0000
0000
0000
0000
03F0
1C08
6004
0004
0004
0004
0008
0008
0030
03C0
0000
0000
ENDCHAR
STARTCHAR 3065
ENCODING 12389
SWIDTH 960 0
DWIDTH 16 0
BBX 16 16 0 -2
BITMAP
0004
0012
000A
0008
03F0
1C08
6004
0004
0004
0004
0008
0008
0030
07C0
0000
0000
ENDCHAR
STARTCHAR 3066
ENCODING 12390
SWIDTH 960 0
DWIDTH 16 0
BBX 16 16 0 -2
BITMAP
0000
0000
0000
07FC
F880
0100
0200
0200
0400
0400
0400
0400
0200
0100
00F0
0000
ENDCHAR
STARTCHAR 3067
ENCODING 12391
SWIDTH 960 0
DWIDTH 16 0
BBX 16 16 0 -2
BITMAP
0000
0000
0000
07F4
F892
010A
0208
0200
0400
0400
0400
0400
0200
0100
00F0
0000
ENDCHAR
STARTCHAR 3068
ENCODING 12392
SWIDTH 960 0
DWIDTH 16 0
BBX 16 16 0 -2
BITMAP
0400
0400
0400
0400
0400
0400
02F0
0300
0400
0800
1000
1000
1000
0800
07F0
0000
ENDCHAR
STARTCHAR 3069
ENCODING 12393
SWIDTH 960 0
DWIDTH 16 0
BBX 16 16 0 -2
BITMAP
0408
0424
0414
0410
0400
0400
02F0
0300
0400
0800
1000
1000
1000
0800
07F0
0000
ENDCHAR
STARTCHAR 306A
ENCODING 12394
SWIDTH 960 0
DWIDTH 16 0
BBX 16 16 0 -2
BITMAP
0800
0800
0800
0F30
780C
1002
1020
2020
2020
2020
4020
43E0
0438
0426
03C0
0000
ENDCHAR
STARTCHAR 306B
ENCODING 12395
SWIDTH 960 0
DWIDTH 16 0
BBX 16 16 0 -2
BITMAP
0000
1000
1000
11E0
2018
2000
2000
2000
2000
2000
2200
2200
2180
107C
1000
0000
ENDCHAR
STARTCHAR 306C
ENCODING 12396
SWIDTH 960 0
DWIDTH 16 0
BBX 16 16 0 -2
BITMAP
0000
0080
0080
1080
13E0
1C90
1108
2904
2A04
4404
44F4
4B08
310C
00F2
0000
0000
ENDCHAR
STARTCHAR 306D
ENCODING 12397
SWIDTH 960 0
DWIDTH 16 0
BBX 16 16 0 -2
BITMAP
0800
0800
0800
0800
3EF0
4908
0A04
0C04
0804
1804
28E8
2918
4914
48E2
0800
0000
ENDCHAR
STARTCHAR 306E
ENCODING 12398
SWIDTH 960 0
DWIDTH 16 0
BBX 16 16 0 -2
BITMAP
0000
0000
03C0
0D30
1108
2108
2104
4204
4204
4404
4408
4808
3030
01C0
0000
0000
ENDCHAR
STARTCHAR 306F
ENCODING 12399
SWIDTH 960 0
DWIDTH 16 0
BBX 16 16 0 -2
BITMAP
0000
2020
2020
2020
2020
403C
43E0
4020
4020
4020
4020
41E0
4238
2226
21C0
0000
ENDCHAR
STARTCHAR 3070
ENCODING 12400
SWIDTH 960 0
DWIDTH 16 0
BBX 16 16 0 -2
BITMAP
0004
2052
204A
2048
2040
407C
47C0
4040
4040
4040
4040
43C0
4470
244C
2382
0000
ENDCHAR
STARTCHAR 3071
ENCODING 12401
SWIDTH 960 0
DWIDTH 16 0
BBX 16 16 0 -2
BITMAP
000C
2052
2052
204C
2040
407C
47C0
4040
4040
4040
4040
43C0
4470
244C
2382
0000
ENDCHAR
STARTCHAR 3072
ENCODING 12402
SWIDTH 960 0
DWIDTH 16 0
BBX 16 16 0 -2
BITMAP
0000
0000
0000
3820
4430
0828
1028
1024
2022
2020
2040
2040
2080
1100
0E00
0000
ENDCHAR
STARTCHAR 3073
ENCODING 12403
SWIDTH 960 0
DWIDTH 16 0
BBX 16 16 0 -2
BITMAP
0000
0004
0012
704A
8868
1050
2050
2048
4044
4042
4080
4080
4100
2200
1C00
0000
ENDCHAR
STARTCHAR 3074
ENCODING 12404
SWIDTH 960 0
DWIDTH 16 0
BBX 16 16 0 -2
BITMAP
0000
000C
0012
7052
886C
1050
2050
2048
4044
4042
4080
4080
4100
2200
1C00
0000
ENDCHAR
STARTCHAR 3075
ENCODING 12405
SWIDTH 960 0
DWIDTH 16 0
BBX 16 16 0 -2
BITMAP
0000
0200
0100
00C0
0000
0000
0400
0210
0108
1084
1042
2042
4042
8440
0380
0000
ENDCHAR
STARTCHAR 3076
ENCODING 12406
SWIDTH 960 0
DWIDTH 16 0
BBX 16 16 0 -2
BITMAP
0000
0200
0104
00D2
000A
0008
0400
0210
0108
1084
1042
2042
4042
8440
0380
0000
ENDCHAR
STARTCHAR 3077
ENCODING 12407
SWIDTH 960 0
DWIDTH 16 0
BBX 16 16 0 -2
BITMAP
0000
0200
010C
00D2
0012
000C
0400
0210
0108
1084
1042
2042
4042
8440
0380
0000
ENDCHAR
STARTCHAR 3078
ENCODING 12408
SWIDTH 960 0
DWIDTH 16 0
BBX 16 16 0 -2
BITMAP
0000
0000
0000
0C00
1200
1100
2080
2040
2020
4010
4008
0006
0000
0000
0000
0000
ENDCHAR
STARTCHAR 3079
ENCODING 12409
SWIDTH 960 0
DWIDTH 16 0
BBX 16 16 0 -2
BITMAP
0000
0010
0048
0C28
1220
1100
2080
2040
2020
4010
4008
0006
0000
0000
0000
0000
ENDCHAR
STARTCHAR 307A
ENCODING 12410
SWIDTH 960 0
DWIDTH 16 0
BBX 16 16 0 -2
BITMAP
0000
0030
0048
0C48
1230
1100
2080
2040
2020
4010
4008
0006
0000
0000
0000
0000
ENDCHAR
STARTCHAR 307B
ENCODING 12411
SWIDTH 960 0
DWIDTH 16 0
BBX 16 16 0 -2
BITMAP
0000
2000
23F8
2020
4020
4020
403C
43E0
4020
4020
4020
41E0
2238
2226
11C0
0000
ENDCHAR
STARTCHAR 307C
ENCODING 12412
SWIDTH 960 0
DWIDTH 16 0
BBX 16 16 0 -2
BITMAP
0004
2012
23EA
2028
4020
4020
403C
43E0
4020
4020
4020
41E0
2238
2226
11C0
0000
ENDCHAR
STARTCHAR 307D
ENCODING 12413
SWIDTH 960 0
DWIDTH 16 0
BBX 16 16 0 -2
BITMAP
000C
2012
23F2
202C
4020
4020
403C
43E0
4020
4020
4020
41E0
2238
2226
11C0
0000
ENDCHAR
STARTCHAR 307E
ENCODING 12414
SWIDTH 960 0
DWIDTH 16 0
BBX 16 16 0 -2
BITMAP
0100
0100
0100
01F8
3F00
0100
01F0
1F00
0100
0100
0100
0FC0
1130
1108
0E00
0000
ENDCHAR
STARTCHAR 307F
ENCODING 12415
SWIDTH 960 0
DWIDTH 16 0
BBX 16 16 0 -2
BITMAP
0000
0000
1E00
2100
0100
0110
0208
0208
1FC8
2438
440C
4812
4820
3040
0180
0000
ENDCHAR
STARTCHAR 3080
ENCODING 12416
SWIDTH 960 0
DWIDTH 16 0
BBX 16 16 0 -2
BITMAP
0800
0800
0810
0F08
7804
0804
0800
3800
4800
4800
4808
3808
0808
0810
07E0
0000
ENDCHAR
STARTCHAR 3081
ENCODING 12417
SWIDTH 960 0
DWIDTH 16 0
BBX 16 16 0 -2
BITMAP
0000
0080
0080
1080
11C0
16B0
1888
1104
2904
2A04
4404
4A08
5108
2030
01C0
0000
ENDCHAR
STARTCHAR 3082
ENCODING 12418
SWIDTH 960 0
DWIDTH 16 0
BBX 16 16 0 -2
BITMAP
0200
0200
0200
0400
2400
1F00
0420
0810
4810
4808
3F08
0808
0808
0410
03E0
0000
ENDCHAR
STARTCHAR 3083
ENCODING 12419
SWIDTH 960 0
DWIDTH 16 0
BBX 16 16 0 -2
BITMAP
0000
0000
0000
0000
0200
0100
0080
09F0
0A08
1C08
6488
0470
0200
0100
0100
0000
ENDCHAR
STARTCHAR 3084
ENCODING 12420
SWIDTH 960 0
DWIDTH 16 0
BBX 16 16 0 -2
BITMAP
0000
0100
08C0
1020
10F8
1304
0C02
1802
6444
8438
0200
0200
0100
0100
0080
0000
ENDCHAR
STARTCHAR 3085
ENCODING 12421
SWIDTH 960 0
DWIDTH 16 0
BBX 16 16 0 -2
BITMAP
0000
0000
0000
0000
0900
0A80
09E0
1290
1488
1888
1088
0A90
09E0
0080
0100
0600
ENDCHAR
STARTCHAR 3086
ENCODING 12422
SWIDTH 960 0
DWIDTH 16 0
BBX 16 16 0 -2
BITMAP
0000
0180
2040
20F0
2148
4244
4444
4844
4844
5044
5248
21F0
2040
0040
0180
0E00
ENDCHAR
STARTCHAR 3087
ENCODING 12423
SWIDTH 960 0
DWIDTH 16 0
BBX 16 16 0 -2
BITMAP
0000
0000
0000
0000
0100
0100
0100
01E0
0100
0100
0100
0F00
11C0
1130
0E00
0000
ENDCHAR
STARTCHAR 3088
ENCODING 12424
SWIDTH 960 0
DWIDTH 16 0
BBX 16 16 0 -2
BITMAP
0200
0100
0100
0100
01F0
0108
0100
0100
0100
0100
0100
1FC0
2130
2108
1E00
0000
ENDCHAR
STARTCHAR 3089
ENCODING 12425
SWIDTH 960 0
DWIDTH 16 0
BBX 16 16 0 -2
BITMAP
0200
0180
0060
0400
0800
0800
1000
1000
11E0
1610
1808
0008
0008
0030
01C0
0000
ENDCHAR
STARTCHAR 308A
ENCODING 12426
SWIDTH 960 0
DWIDTH 16 0
BBX 16 16 0 -2
BITMAP
0000
0800
09C0
1220
1410
1810
1010
1010
1010
1010
1010
0010
0020
0020
0040
0380
ENDCHAR
STARTCHAR 308B
ENCODING 12427
SWIDTH 960 0
DWIDTH 16 0
BBX 16 16 0 -2
BITMAP
0000
0F80
1040
0040
0080
0100
0200
07E0
0810
1008
2008
2308
0488
0490
03E0
0000
ENDCHAR
STARTCHAR 308C
ENCODING 12428
SWIDTH 960 0
DWIDTH 16 0
BBX 16 16 0 -2
BITMAP
0800
0800
0800
0870
3C88
4908
0A08
0C08
0808
1808
2810
2812
4812
480C
0800
0000
ENDCHAR
STARTCHAR 308D
ENCODING 12429
SWIDTH 960 0
DWIDTH 16 0
BBX 16 16 0 -2
BITMAP
0000
0F80
1040
0080
0100
0200
0400
0FE0
1810
2008
0008
0008
0010
0060
0780
0000
ENDCHAR
STARTCHAR 308E
ENCODING 12430
SWIDTH 960 0
DWIDTH 16 0
BBX 16 16 0 -2
BITMAP
0000
0000
0000
0000
0000
0000
0400
0400
1EC0
0520
0610
0C10
1410
2420
04C0
0400
ENDCHAR
STARTCHAR 308F
ENCODING 12431
SWIDTH 960 0
DWIDTH 16 0
BBX 16 16 0 -2
BITMAP
0800
0800
0800
0800
3E00
48F0
0B08
0C04
0804
1804
2804
2808
4830
49C0
0800
0000
ENDCHAR
STARTCHAR 3090
ENCODING 12432
SWIDTH 960 0
DWIDTH 16 0
BBX 16 16 0 -2
BITMAP
0000
1E00
2100
0100
0200
0200
0FE0
1210
2408
2404
4804
4984
5244
2248
01F0
0000
ENDCHAR
STARTCHAR 3091
ENCODING 12433
SWIDTH 960 0
DWIDTH 16 0
BBX 16 16 0 -2
BITMAP
0000
0F80
1040
0180
0200
07E0
0810
1310
04A0
07C0
0800
1C78
2284
4102
8102
0000
ENDCHAR
STARTCHAR 3092
ENCODING 12434
SWIDTH 960 0
DWIDTH 16 0
BBX 16 16 0 -2
BITMAP
0200
0200
03E0
7E00
0200
0400
0C00
1218
6160
0380
0500
0900
0800
0800
07F0
0000
ENDCHAR
STARTCHAR 3093
ENCODING 12435
SWIDTH 960 0
DWIDTH 16 0
BBX 16 16 0 -2
BITMAP
0000
0100
0100
0200
0200
0400
0400
0800
0804
1604
1104
2104
2108
4108
40F0
0000
ENDCHAR
STARTCHAR 309B
ENCODING 12443
SWIDTH 960 0
DWIDTH 16 0
BBX 16 16 0 -2
BITMAP
2000
9000
5000
4000
0000
0000
0000
0000
0000
0000
0000
0000
0000
0000
0000
0000
ENDCHAR
STARTCHAR 309C
ENCODING 12444
SWIDTH 960 0
DWIDTH 16 0
BBX 16 16 0 -2
BITMAP
6000
9000
9000
6000
0000
0000
0000
0000
0000
0000
0000
0000
0000
0000
0000
0000
ENDCHAR
STARTCHAR 309D
ENCODING 12445
SWIDTH 960 0
DWIDTH 16 0
BBX 16 16 0 -2
BITMAP
0000
0000
0000
0400
0200
0100
0080
0040
0020
0020
0010
0010
01E0
0000
0000
0000
ENDCHAR
STARTCHAR 309E
ENCODING 12446
SWIDTH 960 0
DWIDTH 16 0
BBX 16 16 0 -2
BITMAP
0000
0000
0010
0808
0448
0220
0120
0080
0040
0040
0020
0020
03C0
0000
0000
0000
ENDCHAR
STARTCHAR 30A1
ENCODING 12449
SWIDTH 960 0
DWIDTH 16 0
BBX 16 16 0 -2
BITMAP
0000
0000
0000
0000
0000
0000
0000
1FE0
0010
0110
0160
0100
0100
0200
0C00
0000
ENDCHAR
STARTCHAR 30A2
ENCODING 12450
SWIDTH 960 0
DWIDTH 16 0
BBX 16 16 0 -2
BITMAP
0000
0000
0000
3FF8
0004
0084
0088
0090
00E0
0080
0100
0100
0200
0400
1800
0000
ENDCHAR
STARTCHAR 30A3
ENCODING 12451
SWIDTH 960 0
DWIDTH 16 0
BBX 16 16 0 -2
BITMAP
0000
0000
0000
0000
0000
0000
0020
0040
0080
0100
0700
1900
0100
0100
0100
0100
ENDCHAR
STARTCHAR 30A4
ENCODING 12452
SWIDTH 960 0
DWIDTH 16 0
BBX 16 16 0 -2
BITMAP
0000
0020
0020
0040
0080
0100
0300
0D00
3100
0100
0100
0100
0100
0100
0100
0000
ENDCHAR
STARTCHAR 30A5
ENCODING 12453
SWIDTH 960 0
DWIDTH 16 0
BBX 16 16 0 -2
BITMAP
0000
0000
0000
0000
0000
0100
0100
0100
07E0
0810
0810
0820
0020
0040
0080
0300
ENDCHAR
STARTCHAR 30A6
ENCODING 12454
SWIDTH 960 0
DWIDTH 16 0
BBX 16 16 0 -2
BITMAP
0000
0100
0100
0100
1FF0
2008
2008
2008
2008
0010
0010
0020
0040
0080
0300
0000
ENDCHAR
STARTCHAR 30A7
ENCODING 12455
SWIDTH 960 0
DWIDTH 16 0
BBX 16 16 0 -2
BITMAP
0000
0000
0000
0000
0000
0000
0000
0000
0FE0
0100
0100
0100
0100
1FF0
0000
0000
ENDCHAR
STARTCHAR 30A8
ENCODING 12456
SWIDTH 960 0
DWIDTH 16 0
BBX 16 16 0 -2
BITMAP
0000
0000
0000
0000
3FF8
0100
0100
0100
0100
0100
0100
0100
7FFC
0000
0000
0000
ENDCHAR
STARTCHAR 30A9
ENCODING 12457
SWIDTH 960 0
DWIDTH 16 0
BBX 16 16 0 -2
BITMAP
0000
0000
0000
0000
0000
0080
0080
0080
1FF0
0180
0280
0480
0880
3480
0300
0000
ENDCHAR
STARTCHAR 30AA
ENCODING 12458
SWIDTH 960 0
DWIDTH 16 0
BBX 16 16 0 -2
BITMAP
0000
0040
0040
0040
0040
3FFC
00C0
0140
0140
0240
0440
1840
6040
0240
0180
0000
ENDCHAR
STARTCHAR 30AB
ENCODING 12459
SWIDTH 960 0
DWIDTH 16 0
BBX 16 16 0 -2
BITMAP
0000
0100
0100
0100
0100
3FF0
0108
0208
0208
0208
0408
0410
0910
30E0
0000
0000
ENDCHAR
STARTCHAR 30AC
ENCODING 12460
SWIDTH 960 0
DWIDTH 16 0
BBX 16 16 0 -2
BITMAP
0000
0204
0212
020A
0208
7FE0
0210
0410
0410
0410
0810
0820
1220
61C0
0000
0000
ENDCHAR
STARTCHAR 30AD
ENCODING 12461
SWIDTH 960 0
DWIDTH 16 0
BBX 16 16 0 -2
BITMAP
0000
0100
0100
0100
0100
1FF0
0100
0100
0100
3FFC
0080
0080
0080
0080
0080
0000
ENDCHAR
STARTCHAR 30AE
ENCODING 12462
SWIDTH 960 0
DWIDTH 16 0
BBX 16 16 0 -2
BITMAP
0004
0112
010A
0108
0100
1FF0
0100
0100
0100
3FFC
0080
0080
0080
0080
0080
0000
ENDCHAR
STARTCHAR 30AF
ENCODING 12463
SWIDTH 960 0
DWIDTH 16 0
BBX 16 16 0 -2
BITMAP
0000
0400
0400
07E0
0410
0810
0810
1020
2020
0040
0040
0080
0100
0600
1800
0000
ENDCHAR
STARTCHAR 30B0
ENCODING 12464
SWIDTH 960 0
DWIDTH 16 0
BBX 16 16 0 -2
BITMAP
0004
0812
080A
0FC8
0820
1020
1020
2040
4040
0080
0080
0100
0200
0C00
3000
0000
ENDCHAR
STARTCHAR 30B1
ENCODING 12465
SWIDTH 960 0
DWIDTH 16 0
BBX 16 16 0 -2
BITMAP
0000
0000
0400
0400
0400
07FC
0820
0820
1020
2040
0040
0080
0100
0200
0C00
0000
ENDCHAR
STARTCHAR 30B2
ENCODING 12466
SWIDTH 960 0
DWIDTH 16 0
BBX 16 16 0 -2
BITMAP
0000
0004
0812
080A
0808
0FF0
1040
1040
2040
4080
0080
0100
0200
0400
1800
0000
ENDCHAR
STARTCHAR 30B3
ENCODING 12467
SWIDTH 960 0
DWIDTH 16 0
BBX 16 16 0 -2
BITMAP
0000
0000
0000
0000
1FE0
0010
0010
0010
0010
0010
0010
0010
1FE0
0000
0000
0000
ENDCHAR
STARTCHAR 30B4
ENCODING 12468
SWIDTH 960 0
DWIDTH 16 0
BBX 16 16 0 -2
BITMAP
0000
0004
0012
000A
3FC8
0020
0020
0020
0020
0020
0020
0020
3FC0
0000
0000
0000
ENDCHAR
STARTCHAR 30B5
ENCODING 12469
SWIDTH 960 0
DWIDTH 16 0
BBX 16 16 0 -2
BITMAP
0000
0040
0840
0840
0840
0840
7FFC
0840
0840
0840
0040
0080
0080
0100
0600
0000
ENDCHAR
STARTCHAR 30B6
ENCODING 12470
SWIDTH 960 0
DWIDTH 16 0
BBX 16 16 0 -2
BITMAP
0004
0052
084A
0848
0840
0840
7FFC
0840
0840
0840
0040
0080
0080
0100
0600
0000
ENDCHAR
STARTCHAR 30B7
ENCODING 12471
SWIDTH 960 0
DWIDTH 16 0
BBX 16 16 0 -2
BITMAP
0000
0000
0000
1000
0800
0600
2004
1004
0C08
0010
0020
00C0
0300
3C00
0000
0000
ENDCHAR
STARTCHAR 30B8
ENCODING 12472
SWIDTH 960 0
DWIDTH 16 0
BBX 16 16 0 -2
BITMAP
0000
0004
0002
1012
0808
0608
2000
1004
0C08
0010
0020
00C0
0300
3C00
0000
0000
ENDCHAR
STARTCHAR 30B9
ENCODING 12473
SWIDTH 960 0
DWIDTH 16 0
BBX 16 16 0 -2
BITMAP
0000
0000
0000
1FC0
0020
0020
0040
0040
0080
0140
0220
0410
0808
3008
0000
0000
ENDCHAR
STARTCHAR 30BA
ENCODING 12474
SWIDTH 960 0
DWIDTH 16 0
BBX 16 16 0 -2
BITMAP
0004
0012
000A
1FC8
0020
0020
0040
0040
0080
0140
0220
0410
0808
3008
0000
0000
ENDCHAR
STARTCHAR 30BB
ENCODING 12475
SWIDTH 960 0
DWIDTH 16 0
BBX 16 16 0 -2
BITMAP
0000
0400
0400
0400
0400
7FF0
0408
0408
0410
0420
0400
0400
0200
01F8
0000
0000
ENDCHAR
STARTCHAR 30BC
ENCODING 12476
SWIDTH 960 0
DWIDTH 16 0
BBX 16 16 0 -2
BITMAP
0004
0412
040A
0408
0400
7FF0
0408
0408
0410
0420
0400
0400
0200
01F8
0000
0000
ENDCHAR
STARTCHAR 30BD
ENCODING 12477
SWIDTH 960 0
DWIDTH 16 0
BBX 16 16 0 -2
BITMAP
0000
0000
0000
2008
1008
0808
0808
0010
0010
0020
0020
0040
0080
0300
0C00
0000
ENDCHAR
STARTCHAR 30BE
ENCODING 12478
SWIDTH 960 0
DWIDTH 16 0
BBX 16 16 0 -2
BITMAP
0004
0012
000A
4008
2020
1020
1020
0020
0040
0040
0080
0080
0100
0200
0C00
0000
ENDCHAR
STARTCHAR 30BF
ENCODING 12479
SWIDTH 960 0
DWIDTH 16 0
BBX 16 16 0 -2
BITMAP
0000
0400
0400
07E0
0410
0810
0C10
1320
20A0
0040
0040
0080
0100
0600
1800
0000
ENDCHAR
STARTCHAR 30C0
ENCODING 12480
SWIDTH 960 0
DWIDTH 16 0
BBX 16 16 0 -2
BITMAP
0004
0812
080A
0FC8
0820
1020
1820
2640
4140
0080
0080
0100
0200
0C00
3000
0000
ENDCHAR
STARTCHAR 30C1
ENCODING 12481
SWIDTH 960 0
DWIDTH 16 0
BBX 16 16 0 -2
BITMAP
0000
0010
0060
0380
3C80
0080
0080
7FFE
0080
0080
0080
0100
0100
0200
0C00
0000
ENDCHAR
STARTCHAR 30C2
ENCODING 12482
SWIDTH 960 0
DWIDTH 16 0
BBX 16 16 0 -2
BITMAP
0000
0024
00D2
030A
3C88
0080
0080
7FFE
0080
0080
0080
0100
0100
0200
0C00
0000
ENDCHAR
STARTCHAR 30C3
ENCODING 12483
SWIDTH 960 0
DWIDTH 16 0
BBX 16 16 0 -2
BITMAP
0000
0000
0000
0000
0000
0000
0000
0410
2210
1210
1020
0020
0040
0080
0100
0600
ENDCHAR
STARTCHAR 30C4
ENCODING 12484
SWIDTH 960 0
DWIDTH 16 0
BBX 16 16 0 -2
BITMAP
0000
0000
0800
0408
4208
2208
1008
1010
0010
0020
0020
0040
0080
0300
0C00
0000
ENDCHAR
STARTCHAR 30C5
ENCODING 12485
SWIDTH 960 0
DWIDTH 16 0
BBX 16 16 0 -2
BITMAP
0004
0012
080A
0408
4220
2220
1020
1020
0040
0040
0080
0080
0100
0200
0C00
0000
ENDCHAR
STARTCHAR 30C6
ENCODING 12486
SWIDTH 960 0
DWIDTH 16 0
BBX 16 16 0 -2
BITMAP
0000
0000
0000
1FF0
0000
0000
0000
7FFC
0080
0080
0080
0100
0100
0200
1C00
0000
ENDCHAR
STARTCHAR 30C7
ENCODING 12487
SWIDTH 960 0
DWIDTH 16 0
BBX 16 16 0 -2
BITMAP
0000
0004
0012
1FEA
0008
0000
0000
7FF8
0080
0080
0080
0100
0100
0200
1C00
0000
ENDCHAR
STARTCHAR 30C8
ENCODING 12488
SWIDTH 960 0
DWIDTH 16 0
BBX 16 16 0 -2
BITMAP
0000
0400
0400
0400
0400
0400
0780
0460
0410
0408
0404
0400
0400
0400
0400
0000
ENDCHAR
STARTCHAR 30C9
ENCODING 12489
SWIDTH 960 0
DWIDTH 16 0
BBX 16 16 0 -2
BITMAP
0000
0408
0424
0414
0410
0400
0780
0460
0410
0408
0404
0400
0400
0400
0400
0000
ENDCHAR
STARTCHAR 30CA
ENCODING 12490
SWIDTH 960 0
DWIDTH 16 0
BBX 16 16 0 -2
BITMAP
0000
0080
0080
0080
0080
0080
7FFC
0080
0080
0080
0080
0100
0100
0200
0C00
0000
ENDCHAR
STARTCHAR 30CB
ENCODING 12491
SWIDTH 960 0
DWIDTH 16 0
BBX 16 16 0 -2
BITMAP
0000
0000
0000
0000
1FF0
0000
0000
0000
0000
0000
0000
7FFC
0000
0000
0000
0000
ENDCHAR
STARTCHAR 30CC
ENCODING 12492
SWIDTH 960 0
DWIDTH 16 0
BBX 16 16 0 -2
BITMAP
0000
0000
0000
1FC0
0020
0020
0440
0340
0080
0140
0220
0410
0808
3000
0000
0000
ENDCHAR
STARTCHAR 30CD
ENCODING 12493
SWIDTH 960 0
DWIDTH 16 0
BBX 16 16 0 -2
BITMAP
0200
0100
0080
0000
1FC0
0020
0040
0080
0160
0310
0D08
3104
0100
0100
0100
0000
ENDCHAR
STARTCHAR 30CE
ENCODING 12494
SWIDTH 960 0
DWIDTH 16 0
BBX 16 16 0 -2
BITMAP
0000
0000
0010
0010
0010
0020
0020
0040
0040
0080
0100
0200
0C00
3000
0000
0000
ENDCHAR
STARTCHAR 30CF
ENCODING 12495
SWIDTH 960 0
DWIDTH 16 0
BBX 16 16 0 -2
BITMAP
0000
0000
0000
0400
0440
0420
0410
0810
0808
1008
1004
2004
4004
0000
0000
0000
ENDCHAR
STARTCHAR 30D0
ENCODING 12496
SWIDTH 960 0
DWIDTH 16 0
BBX 16 16 0 -2
BITMAP
0000
0004
0012
040A
0448
0420
0410
0810
0808
1008
1004
2004
4004
0000
0000
0000
ENDCHAR
STARTCHAR 30D1
ENCODING 12497
SWIDTH 960 0
DWIDTH 16 0
BBX 16 16 0 -2
BITMAP
0000
000C
0012
0412
044C
0420
0410
0810
0808
1008
1004
2004
4004
0000
0000
0000
ENDCHAR
STARTCHAR 30D2
ENCODING 12498
SWIDTH 960 0
DWIDTH 16 0
BBX 16 16 0 -2
BITMAP
0000
0000
0800
0800
0800
0810
0860
0F80
0800
0800
0800
0800
0400
03F8
0000
0000
ENDCHAR
STARTCHAR 30D3
ENCODING 12499
SWIDTH 960 0
DWIDTH 16 0
BBX 16 16 0 -2
BITMAP
0000
0004
1012
100A
1008
1020
10C0
1F00
1000
1000
1000
1000
0800
07F0
0000
0000
ENDCHAR
STARTCHAR 30D4
ENCODING 12500
SWIDTH 960 0
DWIDTH 16 0
BBX 16 16 0 -2
BITMAP
0000
000C
1012
1012
100C
1020
10C0
1F00
1000
1000
1000
1000
0800
07F0
0000
0000
ENDCHAR
STARTCHAR 30D5
ENCODING 12501
SWIDTH 960 0
DWIDTH 16 0
BBX 16 16 0 -2
BITMAP
0000
0000
0000
1FF0
0008
0008
0008
0010
0010
0020
0040
0080
0300
0C00
0000
0000
ENDCHAR
STARTCHAR 30D6
ENCODING 12502
SWIDTH 960 0
DWIDTH 16 0
BBX 16 16 0 -2
BITMAP
0000
0004
0012
000A
3FE8
0010
0010
0020
0020
0040
0080
0100
0600
1800
0000
0000
ENDCHAR
STARTCHAR 30D7
ENCODING 12503
SWIDTH 960 0
DWIDTH 16 0
BBX 16 16 0 -2
BITMAP
0000
000C
0012
0012
3FEC
0010
0010
0020
0020
0040
0080
0100
0600
1800
0000
0000
ENDCHAR
STARTCHAR 30D8
ENCODING 12504
SWIDTH 960 0
DWIDTH 16 0
BBX 16 16 0 -2
BITMAP
0000
0000
0000
0000
0600
0900
0880
1040
1020
2010
4008
0004
0000
0000
0000
0000
ENDCHAR
STARTCHAR 30D9
ENCODING 12505
SWIDTH 960 0
DWIDTH 16 0
BBX 16 16 0 -2
BITMAP
0000
0010
0048
0028
0620
0900
0880
1040
1020
2010
4008
0004
0000
0000
0000
0000
ENDCHAR
STARTCHAR 30DA
ENCODING 12506
SWIDTH 960 0
DWIDTH 16 0
BBX 16 16 0 -2
BITMAP
0000
0030
0048
0048
0630
0900
0880
1040
1020
2010
4008
0004
0000
0000
0000
0000
ENDCHAR
STARTCHAR 30DB
ENCODING 12507
SWIDTH 960 0
DWIDTH 16 0
BBX 16 16 0 -2
BITMAP
0000
0100
0100
0100
0100
7FFC
0100
0100
1120
1110
2108
2104
4904
0600
0000
0000
ENDCHAR
STARTCHAR 30DC
ENCODING 12508
SWIDTH 960 0
DWIDTH 16 0
BBX 16 16 0 -2
BITMAP
0004
0112
010A
0108
0100
7FFC
0100
0100
1120
1110
2108
2104
4904
0600
0000
0000
ENDCHAR
STARTCHAR 30DD
ENCODING 12509
SWIDTH 960 0
DWIDTH 16 0
BBX 16 16 0 -2
BITMAP
000C
0112
0112
010C
0100
7FFC
0100
0100
1120
1110
2108
2104
4904
0600
0000
0000
ENDCHAR
STARTCHAR 30DE
ENCODING 12510
SWIDTH 960 0
DWIDTH 16 0
BBX 16 16 0 -2
BITMAP
0000
0000
0000
0000
3FF0
0008
0008
0810
0420
0240
0180
0080
0080
0000
0000
0000
ENDCHAR
STARTCHAR 30DF
ENCODING 12511
SWIDTH 960 0
DWIDTH 16 0
BBX 16 16 0 -2
BITMAP
0000
0000
0F00
00E0
0010
0000
0700
00C0
0020
0000
0000
1E00
01C0
0030
0008
0000
ENDCHAR
STARTCHAR 30E0
ENCODING 12512
SWIDTH 960 0
DWIDTH 16 0
BBX 16 16 0 -2
BITMAP
0000
0000
0100
0100
0200
0200
0400
0440
0820
1010
2008
20F8
1F04
0004
0000
0000
ENDCHAR
STARTCHAR 30E1
ENCODING 12513
SWIDTH 960 0
DWIDTH 16 0
BBX 16 16 0 -2
BITMAP
0000
0000
0010
0010
0820
0620
0140
0080
00C0
0120
0210
0408
0800
3000
0000
0000
ENDCHAR
STARTCHAR 30E2
ENCODING 12514
SWIDTH 960 0
DWIDTH 16 0
BBX 16 16 0 -2
BITMAP
0000
0000
3FF0
0200
0200
0200
0200
7FFC
0200
0200
0200
0200
0100
00F8
0000
0000
ENDCHAR
STARTCHAR 30E3
ENCODING 12515
SWIDTH 960 0
DWIDTH 16 0
BBX 16 16 0 -2
BITMAP
0000
0000
0000
0000
0000
0000
0000
0400
04F0
0708
1A10
0260
0100
0100
0080
0080
ENDCHAR
STARTCHAR 30E4
ENCODING 12516
SWIDTH 960 0
DWIDTH 16 0
BBX 16 16 0 -2
BITMAP
0000
0000
0400
0400
0478
0384
0E04
7208
0110
0120
0100
0080
0080
0040
0040
0000
ENDCHAR
STARTCHAR 30E5
ENCODING 12517
SWIDTH 960 0
DWIDTH 16 0
BBX 16 16 0 -2
BITMAP
0000
0000
0000
0000
0000
0000
0000
0000
0F00
0080
0080
0080
0080
3FF0
0000
0000
ENDCHAR
STARTCHAR 30E6
ENCODING 12518
SWIDTH 960 0
DWIDTH 16 0
BBX 16 16 0 -2
BITMAP
0000
0000
0000
0000
1F80
0040
0040
0040
0040
0040
0040
7FFC
0000
0000
0000
0000
ENDCHAR
STARTCHAR 30E7
ENCODING 12519
SWIDTH 960 0
DWIDTH 16 0
BBX 16 16 0 -2
BITMAP
0000
0000
0000
0000
0000
0000
0000
0FC0
0020
0020
0FE0
0020
0020
0020
0FC0
0000
ENDCHAR
STARTCHAR 30E8
ENCODING 12520
SWIDTH 960 0
DWIDTH 16 0
BBX 16 16 0 -2
BITMAP
0000
0000
0000
1FE0
0010
0010
0010
1FF0
0010
0010
0010
0010
1FE0
0000
0000
0000
ENDCHAR
STARTCHAR 30E9
ENCODING 12521
SWIDTH 960 0
DWIDTH 16 0
BBX 16 16 0 -2
BITMAP
0000
0000
1FE0
0000
0000
0000
3FE0
0010
0010
0020
0020
0040
0080
0100
0600
0000
ENDCHAR
STARTCHAR 30EA
ENCODING 12522
SWIDTH 960 0
DWIDTH 16 0
BBX 16 16 0 -2
BITMAP
0000
0020
0820
0820
0820
0820
0820
0820
0820
0020
0020
0040
0040
0080
0300
0000
ENDCHAR
STARTCHAR 30EB
ENCODING 12523
SWIDTH 960 0
DWIDTH 16 0
BBX 16 16 0 -2
BITMAP
0000
0000
0880
0880
0880
0880
0880
0880
0880
0882
1082
1084
2088
4070
0000
0000
ENDCHAR
STARTCHAR 30EC
ENCODING 12524
SWIDTH 960 0
DWIDTH 16 0
BBX 16 16 0 -2
BITMAP
0000
0000
0800
0800
0800
0800
0800
0800
0804
0808
0810
0820
08C0
0700
0000
0000
ENDCHAR
STARTCHAR 30ED
ENCODING 12525
SWIDTH 960 0
DWIDTH 16 0
BBX 16 16 0 -2
BITMAP
0000
0000
0000
0FF0
1008
1008
1008
1008
1008
1008
1008
1008
0FF0
0000
0000
0000
ENDCHAR
STARTCHAR 30EE
ENCODING 12526
SWIDTH 960 0
DWIDTH 16 0
BBX 16 16 0 -2
BITMAP
0000
0000
0000
0000
0000
0000
0000
0000
07C0
0820
0820
0820
0020
0040
0080
0300
ENDCHAR
STARTCHAR 30EF
ENCODING 12527
SWIDTH 960 0
DWIDTH 16 0
BBX 16 16 0 -2
BITMAP
0000
0000
0000
0FF0
1008
1008
1008
1008
0008
0010
0010
0020
00C0
0700
0000
0000
ENDCHAR
STARTCHAR 30F0
ENCODING 12528
SWIDTH 960 0
DWIDTH 16 0
BBX 16 16 0 -2
BITMAP
0000
0040
0040
0040
0040
1FF8
0440
0440
0440
0440
3FFC
0040
0040
0040
0040
0000
ENDCHAR
STARTCHAR 30F1
ENCODING 12529
SWIDTH 960 0
DWIDTH 16 0
BBX 16 16 0 -2
BITMAP
0000
0000
0000
0000
1FE0
0010
0110
0120
0140
0100
0100
0100
7FFC
0000
0000
0000
ENDCHAR
STARTCHAR 30F2
ENCODING 12530
SWIDTH 960 0
DWIDTH 16 0
BBX 16 16 0 -2
BITMAP
0000
0000
0000
3FE0
0010
0010
0010
3FF0
0020
0020
0040
0040
0080
0100
0600
0000
ENDCHAR
STARTCHAR 30F3
ENCODING 12531
SWIDTH 960 0
DWIDTH 16 0
BBX 16 16 0 -2
BITMAP
0000
0000
0000
1000
0C00
0300
0004
0004
0008
0010
0020
00C0
0300
3C00
0000
0000
ENDCHAR
STARTCHAR 30F4
ENCODING 12532
SWIDTH 960 0
DWIDTH 16 0
BBX 16 16 0 -2
BITMAP
0004
0212
020A
0208
1FE0
2010
2010
2010
2010
0020
0020
0040
0080
0100
0600
0000
ENDCHAR
STARTCHAR 30F5
ENCODING 12533
SWIDTH 960 0
DWIDTH 16 0
BBX 16 16 0 -2
BITMAP
0000
0000
0000
0000
0000
0200
0200
0200
1FE0
0210
0210
0410
0410
0920
10C0
0000
ENDCHAR
STARTCHAR 30F6
ENCODING 12534
SWIDTH 960 0
DWIDTH 16 0
BBX 16 16 0 -2
BITMAP
0000
0000
0000
0000
0000
0400
0400
0400
0FF0
0840
1040
2040
0080
0100
0600
0000
ENDCHAR
STARTCHAR 30FB
ENCODING 12539
SWIDTH 960 0
DWIDTH 16 0
BBX 16 16 0 -2
BITMAP
0000
0000
0000
0000
0000
0000
0100
0380
0100
0000
0000
0000
0000
0000
0000
0000
ENDCHAR
STARTCHAR 30FC
ENCODING 12540
SWIDTH 960 0
DWIDTH 16 0
BBX 16 16 0 -2
BITMAP
0000
0000
0000
0000
0000
0000
0000
7FFC
0000
0000
0000
0000
0000
0000
0000
0000
ENDCHAR
STARTCHAR 30FD
ENCODING 12541
SWIDTH 960 0
DWIDTH 16 0
BBX 16 16 0 -2
BITMAP
0000
0000
0000
0000
0800
0400
0200
0100
0080
0040
0040
0020
0020
0000
0000
0000
ENDCHAR
STARTCHAR 30FE
ENCODING 12542
SWIDTH 960 0
DWIDTH 16 0
BBX 16 16 0 -2
BITMAP
0000
0000
0020
0010
1090
0840
0440
0200
0100
0080
0080
0040
0040
0000
0000
0000
ENDCHAR
STARTCHAR 3231
ENCODING 12849
SWIDTH 960 0
DWIDTH 16 0
BBX 16 16 0 -2
BITMAP
1010
2948
4944
49F4
BE42
8842
9FFA
9A42
AAE2
C8D2
894A
4A44
4844
2848
1010
0000
ENDCHAR
STARTCHAR 3232
ENCODING 12850
SWIDTH 960 0
DWIDTH 16 0
BBX 16 16 0 -2
BITMAP
1010
2208
4204
7FF4
8402
8782
8C42
97C2
A442
C442
87C2
4444
4444
2588
1010
0000
ENDCHAR
STARTCHAR 3239
ENCODING 12857
SWIDTH 960 0
DWIDTH 16 0
BBX 16 16 0 -2
BITMAP
1010
2488
44A4
4494
8882
8FFA
9882
A882
C882
8842
8842
4844
4824
2838
1010
0000
ENDCHAR
STARTCHAR 32A4
ENCODING 12964
SWIDTH 960 0
DWIDTH 16 0
BBX 16 16 0 -2
BITMAP
07C0
1830
2108
4104
4104
8102
81E2
8102
8102
8102
8102
5FF4
4004
2008
1830
07C0
ENDCHAR
STARTCHAR 32A5
ENCODING 12965
SWIDTH 960 0
DWIDTH 16 0
BBX 16 16 0 -2
BITMAP
07C0
1830
2108
4104
4104
8FE2
9112
9112
9112
8FE2
8102
4104
4104
2108
1830
07C0
ENDCHAR
STARTCHAR 32A6
ENCODING 12966
SWIDTH 960 0
DWIDTH 16 0
BBX 16 16 0 -2
BITMAP
07C0
1830
2008
4004
5FF4
8102
8102
81C2
8122
8102
8102
4104
4104
2108
1830
07C0
ENDCHAR
STARTCHAR 32A7
ENCODING 12967
SWIDTH 960 0
DWIDTH 16 0
BBX 16 16 0 -2
BITMAP
07C0
1830
2208
4204
4204
BFF2
8402
8402
8FE2
8882
9082
6084
4FF4
2008
1830
07C0
ENDCHAR
STARTCHAR 32A8
ENCODING 12968
SWIDTH 960 0
DWIDTH 16 0
BBX 16 16 0 -2
BITMAP
07C0
1830
2208
4204
4204
BFF2
8402
8402
8BC2
9422
A422
4424
43C4
2008
1830
07C0
ENDCHAR
STARTCHAR 3303
ENCODING 13059
SWIDTH 960 0
DWIDTH 16 0
BBX 16 16 0 -2
BITMAP
0000
1F00
E200
1400
1900
10FE
1000
2000
2100
4500
0500
0510
0520
0940
0980
1100
ENDCHAR
STARTCHAR 330D
ENCODING 13069
SWIDTH 960 0
DWIDTH 16 0
BBX 16 16 0 -2
BITMAP
1000
1046
1E7A
F242
1242
2244
2244
447C
8844
0400
4400
44FE
4400
4400
0800
3000
ENDCHAR
STARTCHAR 3314
ENCODING 13076
SWIDTH 960 0
DWIDTH 16 0
BBX 16 16 0 -2
BITMAP
1000
1000
1000
1C00
F000
1000
1000
1E4E
E872
0842
0842
0844
0844
007C
0044
0000
ENDCHAR
STARTCHAR 3318
ENCODING 13080
SWIDTH 960 0
DWIDTH 16 0
BBX 16 16 0 -2
BITMAP
2100
24B8
3AC0
451C
45E4
8808
0808
1010
2160
C100
0100
0200
0240
05E0
1E10
0010
ENDCHAR
STARTCHAR 3322
ENCODING 13090
SWIDTH 960 0
DWIDTH 16 0
BBX 16 16 0 -2
BITMAP
2080
2060
3F00
E202
2404
2098
2060
1F00
00C0
0F00
0100
03F8
3D00
0100
0200
0C00
ENDCHAR
STARTCHAR 3323
ENCODING 13091
SWIDTH 960 0
DWIDTH 16 0
BBX 16 16 0 -2
BITMAP
2080
2040
3F20
E202
2404
2098
2060
1F00
0200
0200
0200
0380
0240
0220
0200
0200
ENDCHAR
STARTCHAR 3326
ENCODING 13094
SWIDTH 960 0
DWIDTH 16 0
BBX 16 16 0 -2
BITMAP
2100
2480
2280
2200
3800
2400
2200
2020
20A0
20A0
20A0
00A2
0124
0128
0230
0420
ENDCHAR
STARTCHAR 3327
ENCODING 13095
SWIDTH 960 0
DWIDTH 16 0
BBX 16 16 0 -2
BITMAP
1000
1000
1000
1000
1C00
1200
1000
1080
1060
1002
1004
0008
0090
00E0
0000
0000
ENDCHAR
STARTCHAR 332B
ENCODING 13099
SWIDTH 960 0
DWIDTH 16 0
BBX 16 16 0 -2
BITMAP
1380
0A80
2780
2400
227E
4200
8200
0000
4010
4210
5990
E83C
5052
4090
3B10
0000
ENDCHAR
STARTCHAR 3336
ENCODING 13110
SWIDTH 960 0
DWIDTH 16 0
BBX 16 16 0 -2
BITMAP
0040
1040
1878
2448
2288
4110
0120
0040
4080
4008
7828
4828
ABAA
102A
204C
4088
ENDCHAR
STARTCHAR 333B
ENCODING 13115
SWIDTH 960 0
DWIDTH 16 0
BBX 16 16 0 -2
BITMAP
0380
0280
1B80
1400
227E
2200
4100
0100
0410
0328
0810
0600
0020
08C0
0700
0000
ENDCHAR
STARTCHAR 3349
ENCODING 13129
SWIDTH 960 0
DWIDTH 16 0
BBX 16 16 0 -2
BITMAP
0000
6000
1800
0400
0000
6004
1044
0844
0044
C044
3044
0804
0404
0008
0008
0030
ENDCHAR
STARTCHAR 334A
ENCODING 13130
SWIDTH 960 0
DWIDTH 16 0
BBX 16 16 0 -2
BITMAP
3808
0448
0048
3848
0448
0008
7010
0810
0460
0008
2A28
5528
502A
4BAA
484C
8888
ENDCHAR
STARTCHAR 334D
ENCODING 13133
SWIDTH 960 0
DWIDTH 16 0
BBX 16 16 0 -2
BITMAP
0400
0400
4800
3100
10FE
2800
4400
8010
2050
2050
2050
3852
2694
2098
2110
2200
ENDCHAR
STARTCHAR 3351
ENCODING 13137
SWIDTH 960 0
DWIDTH 16 0
BBX 16 16 0 -2
BITMAP
0400
4400
4400
4444
4524
44A8
0888
0810
3060
1000
1010
1C50
1252
1054
1058
1090
ENDCHAR
STARTCHAR 3357
ENCODING 13143
SWIDTH 960 0
DWIDTH 16 0
BBX 16 16 0 -2
BITMAP
0000
4F00
7100
4124
4294
0254
0448
0810
1220
0240
0200
0380
0240
0220
0200
0200
ENDCHAR
STARTCHAR 337B
ENCODING 13179
SWIDTH 960 0
DWIDTH 16 0
BBX 16 16 0 -2
BITMAP
0000
0000
000C
7E0A
107E
5488
54CA
10AA
FFAC
10A8
10C8
1094
1166
1002
0000
0000
ENDCHAR
STARTCHAR 337C
ENCODING 13180
SWIDTH 960 0
DWIDTH 16 0
BBX 16 16 0 -2
BITMAP
0000
0000
3C10
0A60
4BC0
AA44
B3FA
EC4A
A4EA
AADA
AB4A
4A44
0440
0040
0000
0000
ENDCHAR
STARTCHAR 337D
ENCODING 13181
SWIDTH 960 0
DWIDTH 16 0
BBX 16 16 0 -2
BITMAP
0000
1000
11FC
1020
FE20
10A0
10A0
10BC
28A0
28A0
28A0
44A0
45FE
8200
0000
0000
ENDCHAR
STARTCHAR 337E
ENCODING 13182
SWIDTH 960 0
DWIDTH 16 0
BBX 16 16 0 -2
BITMAP
0000
0088
0448
4A48
AA94
AE52
EA5E
AA02
AE40
AA4C
4A52
0A92
1292
128C
2C00
0000
ENDCHAR
STARTCHAR 338E
ENCODING 13198
SWIDTH 960 0
DWIDTH 16 0
BBX 16 16 0 -2
BITMAP
0000
0000
0000
0000
0000
3C34
2A4C
2A44
2A44
2A44
2A4C
2A34
2A04
0044
0038
0000
ENDCHAR
STARTCHAR 338F
ENCODING 13199
SWIDTH 960 0
DWIDTH 16 0
BBX 16 16 0 -2
BITMAP
0000
2000
2000
2000
2000
2234
244C
2844
3044
2844
244C
2234
2204
0044
0038
0000
ENDCHAR
STARTCHAR 339C
ENCODING 13212
SWIDTH 960 0
DWIDTH 16 0
BBX 16 16 0 -2
BITMAP
0000
0000
0000
0000
0000
3C78
2A54
2A54
2A54
2A54
2A54
2A54
2A54
0000
0000
0000
ENDCHAR
STARTCHAR 339D
ENCODING 13213
SWIDTH 960 0
DWIDTH 16 0
BBX 16 16 0 -2
BITMAP
0000
0000
0000
0000
0000
1C78
2254
2254
2054
2054
2254
2254
1C54
0000
0000
0000
ENDCHAR
STARTCHAR 339E
ENCODING 13214
SWIDTH 960 0
DWIDTH 16 0
BBX 16 16 0 -2
BITMAP
0000
2000
2000
2000
2000
2278
2454
2854
3054
2854
2454
2254
2254
0000
0000
0000
ENDCHAR
STARTCHAR 33A1
ENCODING 13217
SWIDTH 960 0
DWIDTH 16 0
BBX 16 16 0 -2
BITMAP
0000
0018
0024
0004
0018
1DA0
127C
1240
1240
1240
1240
1240
1240
0000
0000
0000
ENDCHAR
STARTCHAR 33C4
ENCODING 13252
SWIDTH 960 0
DWIDTH 16 0
BBX 16 16 0 -2
BITMAP
0000
0000
0000
0000
0000
1C38
2244
2244
2040
2040
2244
2244
1C38
0000
0000
0000
ENDCHAR
STARTCHAR 33CD
ENCODING 13261
SWIDTH 960 0
DWIDTH 16 0
BBX 16 16 0 -2
BITMAP
0000
0000
4488
4488
4890
4890
50A0
60C0
50A0
4890
4890
4488
4488
468A
0202
0000
ENDCHAR
STARTCHAR 4E00
ENCODING 19968
SWIDTH 960 0
DWIDTH 16 0
BBX 16 16 0 -2
BITMAP
0000
0000
0000
0000
0000
0000
0000
FFFE
0000
0000
0000
0000
0000
0000
0000
0000
ENDCHAR
STARTCHAR 4E01
ENCODING 19969
SWIDTH 960 0
DWIDTH 16 0
BBX 16 16 0 -2
BITMAP
0000
FFFE
0080
0080
0080
0080
0080
0080
0080
0080
0080
0080
0080
0080
0880
0700
ENDCHAR
STARTCHAR 4E03
ENCODING 19971
SWIDTH 960 0
DWIDTH 16 0
BBX 16 16 0 -2
BITMAP
1000
1000
1000
1000
1000
101E
13E0
FC00
1000
1000
1000
1000
1004
1004
1004
0FF8
ENDCHAR
STARTCHAR 4E07
ENCODING 19975
SWIDTH 960 0
DWIDTH 16 0
BBX 16 16 0 -2
BITMAP
0000
FFFE
0400
0400
0400
07F0
0408
0408
0408
0808
0808
0808
1010
1010
2220
C1C0
ENDCHAR
STARTCHAR 4E08
ENCODING 19976
SWIDTH 960 0
DWIDTH 16 0
BBX 16 16 0 -2
BITMAP
0100
0100
0100
FFFE
0100
0900
0900
0900
0900
0500
0500
0200
0300
0480
1860
E01E
ENDCHAR
STARTCHAR 4E09
ENCODING 19977
SWIDTH 960 0
DWIDTH 16 0
BBX 16 16 0 -2
BITMAP
0000
0000
7FFC
0000
0000
0000
0000
3FF8
0000
0000
0000
0000
0000
FFFE
0000
0000
ENDCHAR
STARTCHAR 4E0A
ENCODING 19978
SWIDTH 960 0
DWIDTH 16 0
BBX 16 16 0 -2
BITMAP
0200
0200
0200
0200
0200
03FC
0200
0200
0200
0200
0200
0200
0200
0200
FFFE
0000
ENDCHAR
STARTCHAR 4E0B
ENCODING 19979
SWIDTH 960 0
DWIDTH 16 0
BBX 16 16 0 -2
BITMAP
0000
FFFE
0200
0200
0200
0380
0260
0218
0204
0200
0200
0200
0200
0200
0200
0200
ENDCHAR
STARTCHAR 4E0D
ENCODING 19981
SWIDTH 960 0
DWIDTH 16 0
BBX 16 16 0 -2
BITMAP
0000
FFFE
0020
0040
0080
0100
0360
0D18
3104
C102
0100
0100
0100
0100
0100
0100
ENDCHAR
STARTCHAR 4E0E
ENCODING 19982
SWIDTH 960 0
DWIDTH 16 0
BBX 16 16 0 -2
BITMAP
1000
1000
1FFC
1000
1000
1000
0FE0
0010
0010
0010
FFFE
0010
0020
0020
0040
0780
ENDCHAR
STARTCHAR 4E10
ENCODING 19984
SWIDTH 960 0
DWIDTH 16 0
BBX 16 16 0 -2
BITMAP
0000
FFFE
0100
0100
21FC
2100
2100
2100
3FF8
2004
0004
0004
0008
0008
0030
01C0
ENDCHAR
STARTCHAR 4E11
ENCODING 19985
SWIDTH 960 0
DWIDTH 16 0
BBX 16 16 0 -2
BITMAP
0000
7FE0
0410
0410
0410
0410
0410
FFFE
0810
0810
0810
0810
0810
0810
FFFE
0000
ENDCHAR
STARTCHAR 4E14
ENCODING 19988
SWIDTH 960 0
DWIDTH 16 0
BBX 16 16 0 -2
BITMAP
0000
0FE0
1010
1010
1010
1FF0
1010
1010
1010
1FF0
1010
1010
1010
1010
FFFE
0000
ENDCHAR
STARTCHAR 4E15
ENCODING 19989
SWIDTH 960 0
DWIDTH 16 0
BBX 16 16 0 -2
BITMAP
0000
FFFE
0080
0100
0100
0360
0510
0908
3104
C102
0102
0100
0100
0000
FFFE
0000
ENDCHAR
STARTCHAR 4E16
ENCODING 19990
SWIDTH 960 0
DWIDTH 16 0
BBX 16 16 0 -2
BITMAP
2210
2210
2210
2210
2210
FFFE
2210
2210
2210
2210
21E0
2000
2000
2000
1FFE
0000
ENDCHAR
STARTCHAR 4E17
ENCODING 19991
SWIDTH 960 0
DWIDTH 16 0
BBX 16 16 0 -2
BITMAP
2108
2108
2108
2108
2108
2108
FFFE
2108
2108
2108
2108
2108
2108
2108
1FF0
0000
ENDCHAR
STARTCHAR 4E18
ENCODING 19992
SWIDTH 960 0
DWIDTH 16 0
BBX 16 16 0 -2
BITMAP
0008
0070
0F80
1000
1000
1000
1FFC
1020
1020
1020
1020
1020
1020
1020
FFFE
0000
ENDCHAR
STARTCHAR 4E19
ENCODING 19993
SWIDTH 960 0
DWIDTH 16 0
BBX 16 16 0 -2
BITMAP
0000
FFFE
0100
0100
3FF8
4104
4104
4284
4284
4444
4824
701C
4004
4004
4004
4038
ENDCHAR
STARTCHAR 4E1E
ENCODING 19998
SWIDTH 960 0
DWIDTH 16 0
BBX 16 16 0 -2
BITMAP
0000
3FE0
0010
0210
0160
F984
0548
0550
0920
1110
2108
C104
0E02
0000
7FFC
0000
ENDCHAR
STARTCHAR 4E21
ENCODING 20001
SWIDTH 960 0
DWIDTH 16 0
BBX 16 16 0 -2
BITMAP
0000
FFFE
0100
0100
3FF8
4104
4104
4924
4924
4924
4924
4924
47C4
4004
4004
4038
ENDCHAR
STARTCHAR 4E26
ENCODING 20006
SWIDTH 960 0
DWIDTH 16 0
BBX 16 16 0 -2
BITMAP
0820
0420
0440
0080
7FFC
0440
4444
4444
2444
2444
2448
2448
0440
0440
FFFE
0000
ENDCHAR
STARTCHAR 4E2A
ENCODING 20010
SWIDTH 960 0
DWIDTH 16 0
BBX 16 16 0 -2
BITMAP
0100
0100
0280
0440
0820
1110
2108
C106
0100
0100
0100
0100
0100
0100
0100
0100
ENDCHAR
STARTCHAR 4E2D
ENCODING 20013
SWIDTH 960 0
DWIDTH 16 0
BBX 16 16 0 -2
BITMAP
0100
0100
0100
0100
7FFC
8102
8102
8102
8102
8102
7FFC
0100
0100
0100
0100
0100
ENDCHAR
STARTCHAR 4E31
ENCODING 20017
SWIDTH 960 0
DWIDTH 16 0
BBX 16 16 0 -2
BITMAP
0440
0440
4442
4442
4442
4442
4442
4442
4442
4442
3C7C
0440
0840
0840
3040
C040
ENDCHAR
STARTCHAR 4E32
ENCODING 20018
SWIDTH 960 0
DWIDTH 16 0
BBX 16 16 0 -2
BITMAP
0100
0100
3FF8
4104
4104
4104
3FF8
0100
7FFC
8102
8102
8102
7FFC
0100
0100
0100
ENDCHAR
STARTCHAR 4E36
ENCODING 20022
SWIDTH 960 0
DWIDTH 16 0
BBX 16 16 0 -2
BITMAP
0000
0000
1000
0800
0400
0200
0100
0100
0080
0040
0040
0020
0020
0000
0000
0000
ENDCHAR
STARTCHAR 4E38
ENCODING 20024
SWIDTH 960 0
DWIDTH 16 0
BBX 16 16 0 -2
BITMAP
0400
0400
0400
0400
FFC0
0420
0420
6420
1820
0C20
0A20
0A22
1122
1122
2022
C01C
ENDCHAR
STARTCHAR 4E39
ENCODING 20025
SWIDTH 960 0
DWIDTH 16 0
BBX 16 16 0 -2
BITMAP
0000
0FE0
1010
1210
1110
1090
1090
1010
FFFE
1010
1010
1010
1010
2010
2110
C0E0
ENDCHAR
STARTCHAR 4E3B
ENCODING 20027
SWIDTH 960 0
DWIDTH 16 0
BBX 16 16 0 -2
BITMAP
0600
0180
0040
0000
FFFE
0100
0100
0100
0100
7FFC
0100
0100
0100
0100
FFFE
0000
ENDCHAR
STARTCHAR 4E3C
ENCODING 20028
SWIDTH 960 0
DWIDTH 16 0
BBX 16 16 0 -2
BITMAP
0820
0820
0820
0820
FFFE
0820
0B20
08A0
08A0
0820
FFFE
0820
1020
1020
2020
C020
ENDCHAR
STARTCHAR 4E3F
ENCODING 20031
SWIDTH 960 0
DWIDTH 16 0
BBX 16 16 0 -2
BITMAP
0040
0040
0040
0040
0040
0040
0040
0040
0040
0040
0040
0080
0080
0100
0600
3800
ENDCHAR
STARTCHAR 4E42
ENCODING 20034
SWIDTH 960 0
DWIDTH 16 0
BBX 16 16 0 -2
BITMAP
2008
2008
2008
2008
1010
1010
0820
0820
0440
0280
0100
0280
0440
0820
3018
C006
ENDCHAR
STARTCHAR 4E43
ENCODING 20035
SWIDTH 960 0
DWIDTH 16 0
BBX 16 16 0 -2
BITMAP
0000
FFE0
0410
0410
0410
0420
0420
041C
0402
0802
0802
0802
1004
1004
2088
C070
ENDCHAR
STARTCHAR 4E45
ENCODING 20037
SWIDTH 960 0
DWIDTH 16 0
BBX 16 16 0 -2
BITMAP
0400
0400
0400
07E0
0810
0810
1020
2020
4040
0080
0180
0240
0420
0810
3008
C006
ENDCHAR
STARTCHAR 4E4B
ENCODING 20043
SWIDTH 960 0
DWIDTH 16 0
BBX 16 16 0 -2
BITMAP
0100
0100
0100
FFF0
0008
0008
0010
0020
0040
0180
2200
2C00
3000
5000
4C00
83FE
ENDCHAR
STARTCHAR 4E4D
ENCODING 20045
SWIDTH 960 0
DWIDTH 16 0
BBX 16 16 0 -2
BITMAP
1000
1000
1000
3FFE
2100
2100
4100
41FC
8100
0100
0100
01FC
0100
0100
0100
0100
ENDCHAR
STARTCHAR 4E4E
ENCODING 20046
SWIDTH 960 0
DWIDTH 16 0
BBX 16 16 0 -2
BITMAP
000C
00F0
7F08
2108
1108
1110
1110
0100
FFFE
0100
0100
0100
0100
0100
0100
0E00
ENDCHAR
STARTCHAR 4E4F
ENCODING 20047
SWIDTH 960 0
DWIDTH 16 0
BBX 16 16 0 -2
BITMAP
0018
01E0
7F00
0100
0100
FFE0
0010
0010
0020
0040
2180
2200
2C00
5000
4C00
83FE
ENDCHAR
STARTCHAR 4E55
ENCODING 20053
SWIDTH 960 0
DWIDTH 16 0
BBX 16 16 0 -2
BITMAP
000C
00F0
1F80
2080
3FFE
2080
2080
3FFE
2080
2080
27F8
2884
4884
4884
88B8
0080
ENDCHAR
STARTCHAR 4E56
ENCODING 20054
SWIDTH 960 0
DWIDTH 16 0
BBX 16 16 0 -2
BITMAP
001C
01E0
7F00
0100
FFFE
0100
0540
0542
FD4C
0570
0540
0D42
3542
C542
053C
0100
ENDCHAR
STARTCHAR 4E57
ENCODING 20055
SWIDTH 960 0
DWIDTH 16 0
BBX 16 16 0 -2
BITMAP
000C
00F0
7F00
0100
7FFC
1110
1110
FFFE
1110
1110
7FFC
0540
0920
1110
2108
C106
ENDCHAR
STARTCHAR 4E58
ENCODING 20056
SWIDTH 960 0
DWIDTH 16 0
BBX 16 16 0 -2
BITMAP
0078
3F80
0100
FFFE
0100
0544
FD78
0542
0D42
37BC
C540
0540
0920
3118
C106
0100
ENDCHAR
STARTCHAR 4E59
ENCODING 20057
SWIDTH 960 0
DWIDTH 16 0
BBX 16 16 0 -2
BITMAP
0000
0000
FFE0
0010
0010
0060
0180
0600
0800
1000
2000
4000
4002
4002
2002
1FFC
ENDCHAR
STARTCHAR 4E5D
ENCODING 20061
SWIDTH 960 0
DWIDTH 16 0
BBX 16 16 0 -2
BITMAP
0400
0400
0400
0400
FFC0
0420
0420
0420
0420
0420
0420
0820
0822
1022
2022
C01C
ENDCHAR
STARTCHAR 4E5E
ENCODING 20062
SWIDTH 960 0
DWIDTH 16 0
BBX 16 16 0 -2
BITMAP
0800
0800
1000
1FFE
2000
4000
BF80
0040
0180
0200
0C00
1000
2002
4002
4002
3FFC
ENDCHAR
STARTCHAR 4E5F
ENCODING 20063
SWIDTH 960 0
DWIDTH 16 0
BBX 16 16 0 -2
BITMAP
0100
1100
1100
1130
11C8
1708
3908
D108
1108
1108
1170
1100
1102
1002
1002
0FFC
ENDCHAR
STARTCHAR 4E62
ENCODING 20066
SWIDTH 960 0
DWIDTH 16 0
BBX 16 16 0 -2
BITMAP
1040
1040
1040
9240
9240
9240
9240
9240
9240
9240
9240
9240
7C42
0042
0042
003C
ENDCHAR
STARTCHAR 4E71
ENCODING 20081
SWIDTH 960 0
DWIDTH 16 0
BBX 16 16 0 -2
BITMAP
0140
0640
F840
0840
0840
FFC0
0840
0840
0840
3E40
4140
4142
4142
4142
3E42
003C
ENDCHAR
STARTCHAR 4E73
ENCODING 20083
SWIDTH 960 0
DWIDTH 16 0
BBX 16 16 0 -2
BITMAP
0740
F940
9140
4A40
2A40
2040
FE40
0140
2240
1440
1F40
E842
0842
0842
0842
703C
ENDCHAR
STARTCHAR 4E7E
ENCODING 20094
SWIDTH 960 0
DWIDTH 16 0
BBX 16 16 0 -2
BITMAP
1080
1080
FE80
11FE
3900
4600
45F0
7C08
4410
4420
3840
1080
FE82
1102
1102
10FC
ENDCHAR
STARTCHAR 4E80
ENCODING 20096
SWIDTH 960 0
DWIDTH 16 0
BBX 16 16 0 -2
BITMAP
0800
0F80
1040
3FF0
E108
3FF8
2108
1FF0
0100
3FF8
4104
7FFC
4104
3FFA
0102
00FC
ENDCHAR
STARTCHAR 4E82
ENCODING 20098
SWIDTH 960 0
DWIDTH 16 0
BBX 16 16 0 -2
BITMAP
07A0
F920
5120
2A20
7F20
1120
0A20
3F20
48A0
56A0
5AA0
40A2
7EA2
52A2
4CA2
331C
ENDCHAR
STARTCHAR 4E85
ENCODING 20101
SWIDTH 960 0
DWIDTH 16 0
BBX 16 16 0 -2
BITMAP
0080
0080
0080
0080
0080
0080
0080
0080
0080
0080
0080
0080
0080
0080
0080
0700
ENDCHAR
STARTCHAR 4E86
ENCODING 20102
SWIDTH 960 0
DWIDTH 16 0
BBX 16 16 0 -2
BITMAP
0000
FFFC
0002
0002
0204
0118
0160
0080
0080
0080
0080
0080
0080
0080
1100
0E00
ENDCHAR
STARTCHAR 4E88
ENCODING 20104
SWIDTH 960 0
DWIDTH 16 0
BBX 16 16 0 -2
BITMAP
0000
7FF0
0008
0808
0410
0220
FFFC
0102
0102
0104
0118
0100
0100
0100
0100
0E00
ENDCHAR
STARTCHAR 4E89
ENCODING 20105
SWIDTH 960 0
DWIDTH 16 0
BBX 16 16 0 -2
BITMAP
0400
0780
0840
1040
7FF0
0108
0108
FFFE
0108
0108
7FF0
0100
0100
0100
0100
0E00
ENDCHAR
STARTCHAR 4E8A
ENCODING 20106
SWIDTH 960 0
DWIDTH 16 0
BBX 16 16 0 -2
BITMAP
0100
0100
FFFE
1110
0920
3FF0
0108
0108
FFFE
0108
0108
3FF0
0100
0100
0100
0600
ENDCHAR
STARTCHAR 4E8B
ENCODING 20107
SWIDTH 960 0
DWIDTH 16 0
BBX 16 16 0 -2
BITMAP
0100
0100
FFFE
0100
1FF0
2108
1FF0
0100
3FF0
0108
FFFE
0108
3FF0
0100
0100
0E00
ENDCHAR
STARTCHAR 4E8C
ENCODING 20108
SWIDTH 960 0
DWIDTH 16 0
BBX 16 16 0 -2
BITMAP
0000
0000
0000
3FF8
0000
0000
0000
0000
0000
0000
0000
0000
0000
FFFE
0000
0000
ENDCHAR
STARTCHAR 4E8E
ENCODING 20110
SWIDTH 960 0
DWIDTH 16 0
BBX 16 16 0 -2
BITMAP
0000
7FFC
0100
0100
0100
0100
0100
FFFE
0100
0100
0100
0100
0100
0100
0100
0600
ENDCHAR
STARTCHAR 4E91
ENCODING 20113
SWIDTH 960 0
DWIDTH 16 0
BBX 16 16 0 -2
BITMAP
0000
0000
7FFC
0000
0000
0000
FFFE
0400
0400
0840
0820
1010
1038
23C8
7C04
0004
ENDCHAR
STARTCHAR 4E92
ENCODING 20114
SWIDTH 960 0
DWIDTH 16 0
BBX 16 16 0 -2
BITMAP
0000
FFFE
1000
1000
1000
1FE0
1010
1010
1010
1010
0FF0
0010
0010
0010
FFFE
0000
ENDCHAR
STARTCHAR 4E94
ENCODING 20116
SWIDTH 960 0
DWIDTH 16 0
BBX 16 16 0 -2
BITMAP
0000
0000
FFFE
0400
0400
0400
0400
7FE0
0810
0810
0810
0810
0810
0810
FFFE
0000
ENDCHAR
STARTCHAR 4E95
ENCODING 20117
SWIDTH 960 0
DWIDTH 16 0
BBX 16 16 0 -2
BITMAP
0820
0820
0820
0820
7FFC
0820
0820
0820
0820
0820
FFFE
0820
1020
1020
2020
C020
ENDCHAR
STARTCHAR 4E98
ENCODING 20120
SWIDTH 960 0
DWIDTH 16 0
BBX 16 16 0 -2
BITMAP
0000
FFFE
0000
0000
0FE0
1010
1010
1FF0
1010
1010
1010
0FE0
0000
0000
FFFE
0000
ENDCHAR
STARTCHAR 4E99
ENCODING 20121
SWIDTH 960 0
DWIDTH 16 0
BBX 16 16 0 -2
BITMAP
0000
FFFE
1000
1000
1FE0
1010
1210
1110
1090
1490
1210
1110
0110
0010
FFFE
0000
ENDCHAR
STARTCHAR 4E9B
ENCODING 20123
SWIDTH 960 0
DWIDTH 16 0
BBX 16 16 0 -2
BITMAP
0880
4884
4F84
4898
48E0
4882
4B82
5C82
E07C
0000
0000
7FFC
0000
0000
FFFE
0000
ENDCHAR
STARTCHAR 4E9C
ENCODING 20124
SWIDTH 960 0
DWIDTH 16 0
BBX 16 16 0 -2
BITMAP
0000
FFFE
0440
0440
0440
3FF8
4444
4444
4444
4444
3FF8
0440
0440
0440
FFFE
0000
ENDCHAR
STARTCHAR 4E9E
ENCODING 20126
SWIDTH 960 0
DWIDTH 16 0
BBX 16 16 0 -2
BITMAP
0000
FFFE
0440
0440
0440
3C78
4004
4004
4004
4004
3C78
0440
0440
0440
FFFE
0000
ENDCHAR
STARTCHAR 4E9F
ENCODING 20127
SWIDTH 960 0
DWIDTH 16 0
BBX 16 16 0 -2
BITMAP
0000
FFFE
0400
0400
0800
0F78
7084
88A4
88A8
8898
8890
7128
0646
0000
FFFE
0000
ENDCHAR
STARTCHAR 4EA0
ENCODING 20128
SWIDTH 960 0
DWIDTH 16 0
BBX 16 16 0 -2
BITMAP
0000
0000
0000
0000
0100
0100
0100
0100
0100
FFFE
0000
0000
0000
0000
0000
0000
ENDCHAR
STARTCHAR 4EA1
ENCODING 20129
SWIDTH 960 0
DWIDTH 16 0
BBX 16 16 0 -2
BITMAP
0100
0100
0100
0100
FFFE
1000
1000
1000
1000
1000
1000
1000
1000
1000
0FFC
0000
ENDCHAR
STARTCHAR 4EA2
ENCODING 20130
SWIDTH 960 0
DWIDTH 16 0
BBX 16 16 0 -2
BITMAP
0100
0100
FFFE
0000
0000
0780
0840
0840
0840
0840
0840
0840
1042
1042
2042
C03C
ENDCHAR
STARTCHAR 4EA4
ENCODING 20132
SWIDTH 960 0
DWIDTH 16 0
BBX 16 16 0 -2
BITMAP
0100
0100
0100
FFFE
0440
0820
3458
C446
0280
0280
0100
0280
0440
0820
3018
C006
ENDCHAR
STARTCHAR 4EA5
ENCODING 20133
SWIDTH 960 0
DWIDTH 16 0
BBX 16 16 0 -2
BITMAP
0100
0100
0100
FFFE
0200
0420
1840
0480
0308
0210
0C20
7040
00A0
0310
0C08
7004
ENDCHAR
STARTCHAR 4EA6
ENCODING 20134
SWIDTH 960 0
DWIDTH 16 0
BBX 16 16 0 -2
BITMAP
0100
0100
0100
FFFE
0440
0440
2440
2448
2444
2444
4442
4842
8842
1040
2440
C380
ENDCHAR
STARTCHAR 4EA8
ENCODING 20136
SWIDTH 960 0
DWIDTH 16 0
BBX 16 16 0 -2
BITMAP
0100
0100
FFFE
0000
1FF0
2008
1FF0
0000
7FF8
0004
0118
00E0
0080
0080
0080
0700
ENDCHAR
STARTCHAR 4EAB
ENCODING 20139
SWIDTH 960 0
DWIDTH 16 0
BBX 16 16 0 -2
BITMAP
0100
0100
FFFE
0000
1FF0
2008
1FF0
0000
3FF0
0008
0210
FFFE
0080
0080
0080
0700
ENDCHAR
STARTCHAR 4EAC
ENCODING 20140
SWIDTH 960 0
DWIDTH 16 0
BBX 16 16 0 -2
BITMAP
0100
0100
FFFE
0000
0000
1FF0
2008
2008
2008
1FF0
0100
0920
1110
2108
C106
0E00
ENDCHAR
STARTCHAR 4EAD
ENCODING 20141
SWIDTH 960 0
DWIDTH 16 0
BBX 16 16 0 -2
BITMAP
0100
0100
FFFE
0000
0FE0
1010
0FE0
0000
7FFC
8002
BFFA
0100
0100
0100
0100
0E00
ENDCHAR
STARTCHAR 4EAE
ENCODING 20142
SWIDTH 960 0
DWIDTH 16 0
BBX 16 16 0 -2
BITMAP
0100
0100
FFFE
0000
1FF0
2008
1FF0
0000
7FFC
8002
8442
0440
0442
0842
1042
E03C
ENDCHAR
STARTCHAR 4EB0
ENCODING 20144
SWIDTH 960 0
DWIDTH 16 0
BBX 16 16 0 -2
BITMAP
0100
0100
FFFE
0000
0FE0
1010
1010
1FF0
1010
1010
0FE0
0100
0920
1110
2108
C606
ENDCHAR
STARTCHAR 4EB3
ENCODING 20147
SWIDTH 960 0
DWIDTH 16 0
BBX 16 16 0 -2
BITMAP
0100
0100
FFFE
0000
0FE0
1010
0FE0
0000
7FFC
8062
9F82
0200
7FF8
0204
0204
01F8
ENDCHAR
STARTCHAR 4EB6
ENCODING 20150
SWIDTH 960 0
DWIDTH 16 0
BBX 16 16 0 -2
BITMAP
0100
0100
FFFE
2828
27C8
2008
1FF0
0000
0FE0
1010
1FF0
1010
0FE0
0000
FFFE
0000
ENDCHAR
STARTCHAR 4EBA
ENCODING 20154
SWIDTH 960 0
DWIDTH 16 0
BBX 16 16 0 -2
BITMAP
0100
0100
0100
0100
0100
0100
0280
0280
0280
0440
0440
0820
0820
1010
2008
C006
ENDCHAR
STARTCHAR 4EC0
ENCODING 20160
SWIDTH 960 0
DWIDTH 16 0
BBX 16 16 0 -2
BITMAP
0840
0840
1040
1040
2040
2040
6FFE
A040
2040
2040
2040
2040
2040
2040
2040
2040
ENDCHAR
STARTCHAR 4EC1
ENCODING 20161
SWIDTH 960 0
DWIDTH 16 0
BBX 16 16 0 -2
BITMAP
0800
0800
1000
17FC
2000
2000
6000
A000
2000
2000
2000
2000
2000
2FFE
2000
2000
ENDCHAR
STARTCHAR 4EC2
ENCODING 20162
SWIDTH 960 0
DWIDTH 16 0
BBX 16 16 0 -2
BITMAP
0840
0840
0840
1040
17F8
1044
3044
5044
9084
1084
1084
1104
1104
1208
14C8
1830
ENDCHAR
STARTCHAR 4EC4
ENCODING 20164
SWIDTH 960 0
DWIDTH 16 0
BBX 16 16 0 -2
BITMAP
0000
1FFE
2000
2080
2080
2080
2080
2080
2140
2140
2140
2220
4220
4410
8808
3006
ENDCHAR
STARTCHAR 4EC6
ENCODING 20166
SWIDTH 960 0
DWIDTH 16 0
BBX 16 16 0 -2
BITMAP
0440
0440
0840
0840
1040
1070
3048
5044
9042
1042
1040
1040
1040
1040
1040
1040
ENDCHAR
STARTCHAR 4EC7
ENCODING 20167
SWIDTH 960 0
DWIDTH 16 0
BBX 16 16 0 -2
BITMAP
0900
0900
0900
1100
1FE0
2110
6110
A110
2110
2110
2110
2112
2212
2212
2412
380C
ENDCHAR
STARTCHAR 4ECA
ENCODING 20170
SWIDTH 960 0
DWIDTH 16 0
BBX 16 16 0 -2
BITMAP
0100
0100
0280
0440
0820
1010
2FE8
C006
0000
3FF0
0008
0008
0010
0010
0060
0380
ENDCHAR
STARTCHAR 4ECB
ENCODING 20171
SWIDTH 960 0
DWIDTH 16 0
BBX 16 16 0 -2
BITMAP
0100
0100
0280
0440
0820
1010
2828
C826
0820
0820
0820
0820
1020
1020
2020
C020
ENDCHAR
STARTCHAR 4ECD
ENCODING 20173
SWIDTH 960 0
DWIDTH 16 0
BBX 16 16 0 -2
BITMAP
0800
0FF0
1108
1108
1110
2110
2110
610C
A102
2202
2202
2202
2404
2404
28C8
3030
ENDCHAR
STARTCHAR 4ECE
ENCODING 20174
SWIDTH 960 0
DWIDTH 16 0
BBX 16 16 0 -2
BITMAP
0820
0820
0820
0820
0820
0820
0820
0820
0820
1450
1250
1150
2088
2088
4104
8602
ENDCHAR
STARTCHAR 4ECF
ENCODING 20175
SWIDTH 960 0
DWIDTH 16 0
BBX 16 16 0 -2
BITMAP
0880
0880
1080
1080
2080
2100
6100
A100
2220
2210
2208
2408
2404
243C
23C2
2002
ENDCHAR
STARTCHAR 4ED4
ENCODING 20180
SWIDTH 960 0
DWIDTH 16 0
BBX 16 16 0 -2
BITMAP
0800
0BF8
1004
1004
2108
2090
6060
AFFE
2020
2020
2020
2020
2020
2020
2040
2380
ENDCHAR
STARTCHAR 4ED5
ENCODING 20181
SWIDTH 960 0
DWIDTH 16 0
BBX 16 16 0 -2
BITMAP
0840
0840
1040
1040
2040
2FFE
6040
A040
2040
2040
2040
2040
2040
2040
27FC
2000
ENDCHAR
STARTCHAR 4ED6
ENCODING 20182
SWIDTH 960 0
DWIDTH 16 0
BBX 16 16 0 -2
BITMAP
1040
1240
1240
1240
2278
23C4
6E44
A244
2244
2244
2258
2240
2242
2202
2202
21FC
ENDCHAR
STARTCHAR 4ED7
ENCODING 20183
SWIDTH 960 0
DWIDTH 16 0
BBX 16 16 0 -2
BITMAP
0840
0840
1040
1040
2FFE
2440
6440
A240
2240
2140
2080
2080
2140
2220
2418
3806
ENDCHAR
STARTCHAR 4ED8
ENCODING 20184
SWIDTH 960 0
DWIDTH 16 0
BBX 16 16 0 -2
BITMAP
0808
0808
1008
1008
2FFE
2008
6208
A108
2108
2088
2088
2008
2008
2008
2088
2070
ENDCHAR
STARTCHAR 4ED9
ENCODING 20185
SWIDTH 960 0
DWIDTH 16 0
BBX 16 16 0 -2
BITMAP
0840
0840
1040
1040
2442
2442
6442
A442
2442
2442
2442
2442
2442
2442
23FC
2000
ENDCHAR
STARTCHAR 4EDD
ENCODING 20189
SWIDTH 960 0
DWIDTH 16 0
BBX 16 16 0 -2
BITMAP
0100
0280
0280
0440
0820
1010
2008
C006
3FF8
0100
0100
0100
0100
0100
FFFE
0000
ENDCHAR
STARTCHAR 4EDE
ENCODING 20190
SWIDTH 960 0
DWIDTH 16 0
BBX 16 16 0 -2
BITMAP
0800
0800
17FC
1082
2082
2082
6682
A182
20C2
20A2
2112
2102
2204
2204
24C8
3830
ENDCHAR
STARTCHAR 4EDF
ENCODING 20191
SWIDTH 960 0
DWIDTH 16 0
BBX 16 16 0 -2
BITMAP
080C
0870
17C0
1040
2040
2040
6040
AFFE
2040
2040
2040
2040
2040
2040
2040
2040
ENDCHAR
STARTCHAR 4EE3
ENCODING 20195
SWIDTH 960 0
DWIDTH 16 0
BBX 16 16 0 -2
BITMAP
0848
0844
0844
1040
1FFE
3040
5040
9040
1040
1020
1020
1022
1022
1012
1012
100C
ENDCHAR
STARTCHAR 4EE4
ENCODING 20196
SWIDTH 960 0
DWIDTH 16 0
BBX 16 16 0 -2
BITMAP
0100
0100
0280
0440
0820
17D0
2008
C006
3FF0
0208
0208
0208
0208
0270
0200
0200
ENDCHAR
STARTCHAR 4EE5
ENCODING 20197
SWIDTH 960 0
DWIDTH 16 0
BBX 16 16 0 -2
BITMAP
2008
2008
2408
2208
2108
2088
2088
2008
2008
2008
2110
2610
3828
E044
0182
0E02
ENDCHAR
STARTCHAR 4EED
ENCODING 20205
SWIDTH 960 0
DWIDTH 16 0
BBX 16 16 0 -2
BITMAP
0800
0800
17FC
1042
2442
2442
6242
A242
2142
2082
20C4
2134
210E
2204
24C8
3830
ENDCHAR
STARTCHAR 4EEE
ENCODING 20206
SWIDTH 960 0
DWIDTH 16 0
BBX 16 16 0 -2
BITMAP
0800
09FE
1200
1200
2200
23F0
6208
A288
2288
2250
2250
2420
2450
2888
3104
2602
ENDCHAR
STARTCHAR 4EF0
ENCODING 20208
SWIDTH 960 0
DWIDTH 16 0
BBX 16 16 0 -2
BITMAP
0820
08C0
131C
1422
2422
2422
6422
A422
2422
2422
2422
2462
25BC
2E20
2020
2020
ENDCHAR
STARTCHAR 4EF2
ENCODING 20210
SWIDTH 960 0
DWIDTH 16 0
BBX 16 16 0 -2
BITMAP
0840
0840
1040
1040
27FC
2842
6842
A842
2842
2842
27FC
2040
2040
2040
2040
2040
ENDCHAR
STARTCHAR 4EF6
ENCODING 20214
SWIDTH 960 0
DWIDTH 16 0
BBX 16 16 0 -2
BITMAP
0840
0A40
1240
1240
23FC
2440
6440
A840
2040
2FFE
2040
2040
2040
2040
2040
2040
ENDCHAR
STARTCHAR 4EF7
ENCODING 20215
SWIDTH 960 0
DWIDTH 16 0
BBX 16 16 0 -2
BITMAP
0880
0880
1140
1120
2210
2408
6A16
A210
2210
2210
2210
2210
2210
2410
2410
3810
ENDCHAR
STARTCHAR 4EFB
ENCODING 20219
SWIDTH 960 0
DWIDTH 16 0
BBX 16 16 0 -2
BITMAP
0804
0838
17C0
1040
2040
2040
6040
AFFE
2040
2040
2040
2040
2040
2040
27FC
2000
ENDCHAR
STARTCHAR 4F01
ENCODING 20225
SWIDTH 960 0
DWIDTH 16 0
BBX 16 16 0 -2
BITMAP
0100
0100
0280
0440
0920
1110
2108
D106
1100
11FC
1100
1100
1100
1100
FFFE
0000
ENDCHAR
STARTCHAR 4F09
ENCODING 20233
SWIDTH 960 0
DWIDTH 16 0
BBX 16 16 0 -2
BITMAP
0880
0880
1080
1FFE
2000
2000
61C0
A220
2220
2220
2220
2220
2422
2422
2822
301C
ENDCHAR
STARTCHAR 4F0A
ENCODING 20234
SWIDTH 960 0
DWIDTH 16 0
BBX 16 16 0 -2
BITMAP
1000
17F8
1044
1044
2044
2FFE
6044
A044
2044
27F8
2040
2080
2080
2100
2200
2C00
ENDCHAR
STARTCHAR 4F0D
ENCODING 20237
SWIDTH 960 0
DWIDTH 16 0
BBX 16 16 0 -2
BITMAP
1000
1FFC
1100
1100
2100
2100
6FF0
A108
2108
2108
2108
2108
2108
2108
3FFE
2000
ENDCHAR
STARTCHAR 4F0E
ENCODING 20238
SWIDTH 960 0
DWIDTH 16 0
BBX 16 16 0 -2
BITMAP
0840
0840
1040
1FFE
1040
2040
6040
AFF0
2008
2208
2110
20A0
2040
20A0
2318
2C06
ENDCHAR
STARTCHAR 4F0F
ENCODING 20239
SWIDTH 960 0
DWIDTH 16 0
BBX 16 16 0 -2
BITMAP
0850
0848
1044
1044
2040
2FFE
6040
A0A0
20A0
20A0
2110
2110
2208
2208
2404
2802
ENDCHAR
STARTCHAR 4F10
ENCODING 20240
SWIDTH 960 0
DWIDTH 16 0
BBX 16 16 0 -2
BITMAP
0890
0888
1088
1080
2FFE
2080
6088
A048
2050
2050
2020
2062
20A2
2312
2C12
200C
ENDCHAR
STARTCHAR 4F11
ENCODING 20241
SWIDTH 960 0
DWIDTH 16 0
BBX 16 16 0 -2
BITMAP
0840
0840
1040
1040
1FFE
2040
20E0
6150
A150
2248
2248
2444
2842
2040
2040
2040
ENDCHAR
STARTCHAR 4F1A
ENCODING 20250
SWIDTH 960 0
DWIDTH 16 0
BBX 16 16 0 -2
BITMAP
0100
0100
0280
0440
0820
1010
2FE8
C006
0000
7FFC
0400
0420
0810
10F8
7F04
0004
ENDCHAR
STARTCHAR 4F1C
ENCODING 20252
SWIDTH 960 0
DWIDTH 16 0
BBX 16 16 0 -2
BITMAP
0880
0880
17E0
1090
2090
2112
6212
AC4C
2040
2040
2FFE
2040
2040
2040
2040
2040
ENDCHAR
STARTCHAR 4F1D
ENCODING 20253
SWIDTH 960 0
DWIDTH 16 0
BBX 16 16 0 -2
BITMAP
0800
0800
17FC
1000
2000
2000
6FFE
A100
2100
2200
2210
2408
2404
243C
23C2
2002
ENDCHAR
STARTCHAR 4F2F
ENCODING 20271
SWIDTH 960 0
DWIDTH 16 0
BBX 16 16 0 -2
BITMAP
0840
0840
1080
13F8
2404
2404
6404
A404
27FC
2404
2404
2404
2404
2404
23F8
2000
ENDCHAR
STARTCHAR 4F30
ENCODING 20272
SWIDTH 960 0
DWIDTH 16 0
BBX 16 16 0 -2
BITMAP
0840
0840
1040
1040
2FFE
2040
6040
A040
2040
23F8
2404
2404
2404
2404
23F8
2000
ENDCHAR
STARTCHAR 4F34
ENCODING 20276
SWIDTH 960 0
DWIDTH 16 0
BBX 16 16 0 -2
BITMAP
0840
0A48
1248
1148
2150
2040
67FC
A040
2040
2040
2FFE
2040
2040
2040
2040
2040
ENDCHAR
STARTCHAR 4F36
ENCODING 20278
SWIDTH 960 0
DWIDTH 16 0
BBX 16 16 0 -2
BITMAP
0880
0880
1140
1120
2210
25E8
6806
B000
2FF8
2084
2084
2084
2084
20B8
2080
2080
ENDCHAR
STARTCHAR 4F38
ENCODING 20280
SWIDTH 960 0
DWIDTH 16 0
BBX 16 16 0 -2
BITMAP
0840
0840
1040
13FC
2442
2442
6442
A7FE
2442
2442
2442
23FC
2040
2040
2040
2040
ENDCHAR
STARTCHAR 4F3A
ENCODING 20282
SWIDTH 960 0
DWIDTH 16 0
BBX 16 16 0 -2
BITMAP
1000
1FF8
1004
2004
2FF4
2004
6004
A3C4
2424
2424
2424
23C4
2004
2004
2004
2038
ENDCHAR
STARTCHAR 4F3C
ENCODING 20284
SWIDTH 960 0
DWIDTH 16 0
BBX 16 16 0 -2
BITMAP
1404
1404
1504
2484
2444
2444
6444
A404
2404
2408
2448
2488
2714
2C24
2042
2182
ENDCHAR
STARTCHAR 4F3D
ENCODING 20285
SWIDTH 960 0
DWIDTH 16 0
BBX 16 16 0 -2
BITMAP
1200
1200
1200
120C
2F92
2252
6252
A252
2252
2252
2252
2252
2452
2452
288C
3700
ENDCHAR
STARTCHAR 4F43
ENCODING 20291
SWIDTH 960 0
DWIDTH 16 0
BBX 16 16 0 -2
BITMAP
0800
0800
13F8
1444
2444
2444
6444
A444
27FC
2444
2444
2444
2444
2444
23F8
2000
ENDCHAR
STARTCHAR 4F46
ENCODING 20294
SWIDTH 960 0
DWIDTH 16 0
BBX 16 16 0 -2
BITMAP
0800
09F0
1208
1208
2208
2208
63F8
A208
2208
2208
2208
21F0
2000
2000
2FFE
2000
ENDCHAR
STARTCHAR 4F47
ENCODING 20295
SWIDTH 960 0
DWIDTH 16 0
BBX 16 16 0 -2
BITMAP
0840
0840
1040
17FC
2802
2802
6000
AFFE
2040
2040
2040
2040
2040
2040
2040
2180
ENDCHAR
STARTCHAR 4F4D
ENCODING 20301
SWIDTH 960 0
DWIDTH 16 0
BBX 16 16 0 -2
BITMAP
0840
0840
1040
1040
27FC
2000
6408
A208
2208
2108
2108
2110
2110
2000
2FFE
2000
ENDCHAR
STARTCHAR 4F4E
ENCODING 20302
SWIDTH 960 0
DWIDTH 16 0
BBX 16 16 0 -2
BITMAP
0804
0838
13C0
1440
2440
2440
67FE
A440
2420
2420
24A0
2722
2C12
2012
2FD2
200C
ENDCHAR
STARTCHAR 4F4F
ENCODING 20303
SWIDTH 960 0
DWIDTH 16 0
BBX 16 16 0 -2
BITMAP
0980
0860
1010
1000
2FFE
2040
6040
A040
2040
27FC
2040
2040
2040
2040
2FFE
2000
ENDCHAR
STARTCHAR 4F50
ENCODING 20304
SWIDTH 960 0
DWIDTH 16 0
BBX 16 16 0 -2
BITMAP
0880
0880
1080
1100
2FFE
2100
6200
A200
27FC
2840
3040
2040
2040
2040
2FFE
2000
ENDCHAR
STARTCHAR 4F51
ENCODING 20305
SWIDTH 960 0
DWIDTH 16 0
BBX 16 16 0 -2
BITMAP
0880
0880
1080
1FFE
2100
2100
6200
A200
25F8
2A04
3204
2204
2204
2204
21F8
2000
ENDCHAR
STARTCHAR 4F53
ENCODING 20307
SWIDTH 960 0
DWIDTH 16 0
BBX 16 16 0 -2
BITMAP
1040
1040
1040
1040
2FFE
2040
60E0
A150
2150
2248
2248
2444
2BFA
2040
2040
2040
ENDCHAR
STARTCHAR 4F55
ENCODING 20309
SWIDTH 960 0
DWIDTH 16 0
BBX 16 16 0 -2
BITMAP
1000
1000
1FFE
1008
2008
2388
6448
A448
2448
2448
2388
2008
2008
2008
2008
2070
ENDCHAR
STARTCHAR 4F57
ENCODING 20311
SWIDTH 960 0
DWIDTH 16 0
BBX 16 16 0 -2
BITMAP
0840
0840
1040
13FC
2402
2402
6502
A108
2108
2130
21C0
2100
2104
2104
2104
20F8
ENDCHAR
STARTCHAR 4F59
ENCODING 20313
SWIDTH 960 0
DWIDTH 16 0
BBX 16 16 0 -2
BITMAP
0100
0280
0440
0820
1010
2FE8
C106
0100
7FFC
0100
1120
1110
2108
4104
8104
0E00
ENDCHAR
STARTCHAR 4F5A
ENCODING 20314
SWIDTH 960 0
DWIDTH 16 0
BBX 16 16 0 -2
BITMAP
0A40
0A40
1240
13FC
2440
2440
6840
A040
2FFE
20A0
20A0
2110
2110
2208
2404
3802
ENDCHAR
STARTCHAR 4F5B
ENCODING 20315
SWIDTH 960 0
DWIDTH 16 0
BBX 16 16 0 -2
BITMAP
1120
1120
1FF8
1124
2124
27F8
6920
A920
2920
27FC
2122
2122
2224
2238
2420
2820
ENDCHAR
STARTCHAR 4F5C
ENCODING 20316
SWIDTH 960 0
DWIDTH 16 0
BBX 16 16 0 -2
BITMAP
0880
0880
0900
11FE
1240
2240
6440
A87C
2040
2040
2040
207C
2040
2040
2040
2040
ENDCHAR
STARTCHAR 4F5D
ENCODING 20317
SWIDTH 960 0
DWIDTH 16 0
BBX 16 16 0 -2
BITMAP
0900
0900
1200
13FC
2402
2402
6BC2
B422
2422
2422
2422
23C2
2004
2004
2008
2070
ENDCHAR
STARTCHAR 4F5E
ENCODING 20318
SWIDTH 960 0
DWIDTH 16 0
BBX 16 16 0 -2
BITMAP
0800
0FFC
1000
1000
2FFE
2080
6080
A100
2FFE
2110
2220
2420
23C0
20B0
2308
2C04
ENDCHAR
STARTCHAR 4F69
ENCODING 20329
SWIDTH 960 0
DWIDTH 16 0
BBX 16 16 0 -2
BITMAP
0800
0BF8
1404
1404
25F4
2444
6444
A4E4
2554
2554
2554
2554
2554
2864
2842
3042
ENDCHAR
STARTCHAR 4F6F
ENCODING 20335
SWIDTH 960 0
DWIDTH 16 0
BBX 16 16 0 -2
BITMAP
0910
0910
10A0
1FFE
2040
2040
6040
A7FC
2040
2040
2040
2FFE
2040
2040
2040
2040
ENDCHAR
STARTCHAR 4F70
ENCODING 20336
SWIDTH 960 0
DWIDTH 16 0
BBX 16 16 0 -2
BITMAP
0800
0FFE
1040
1040
2080
21F8
6204
A204
2204
23FC
2204
2204
2204
2204
21F8
2000
ENDCHAR
STARTCHAR 4F73
ENCODING 20339
SWIDTH 960 0
DWIDTH 16 0
BBX 16 16 0 -2
BITMAP
0840
0840
17FC
1040
2040
2040
6FFE
A000
2040
2040
27FC
2040
2040
2040
2FFE
2000
ENDCHAR
STARTCHAR 4F75
ENCODING 20341
SWIDTH 960 0
DWIDTH 16 0
BBX 16 16 0 -2
BITMAP
0A08
0908
1090
1FFE
2110
2110
6110
A110
2FFE
2110
2110
2110
2210
2210
2410
3810
ENDCHAR
STARTCHAR 4F76
ENCODING 20342
SWIDTH 960 0
DWIDTH 16 0
BBX 16 16 0 -2
BITMAP
0840
0840
1040
1FFE
2040
2040
6040
A7FC
2000
2000
23F8
2404
2404
2404
23F8
2000
ENDCHAR
STARTCHAR 4F7B
ENCODING 20347
SWIDTH 960 0
DWIDTH 16 0
BBX 16 16 0 -2
BITMAP
0920
0920
1120
1124
2924
2538
6520
A120
2338
2524
3924
2120
2222
2222
2422
381C
ENDCHAR
STARTCHAR 4F7C
ENCODING 20348
SWIDTH 960 0
DWIDTH 16 0
BBX 16 16 0 -2
BITMAP
0840
0840
1040
1FFE
20A0
2110
6208
AD16
2110
20A0
20A0
2040
20A0
2110
2208
2C06
ENDCHAR
STARTCHAR 4F7F
ENCODING 20351
SWIDTH 960 0
DWIDTH 16 0
BBX 16 16 0 -2
BITMAP
1040
1040
1FFE
1040
2040
23F8
6444
A444
2444
23F8
2240
2180
2080
2140
2230
2C0E
ENDCHAR
STARTCHAR 4F83
ENCODING 20355
SWIDTH 960 0
DWIDTH 16 0
BBX 16 16 0 -2
BITMAP
0800
09F0
0A08
1208
1208
2208
61F0
A000
2250
2250
2250
2250
2252
2252
2452
280C
ENDCHAR
STARTCHAR 4F86
ENCODING 20358
SWIDTH 960 0
DWIDTH 16 0
BBX 16 16 0 -2
BITMAP
0100
0100
FFFE
0100
1110
1110
1110
2928
2BA4
4542
8540
0920
1110
2108
C106
0100
ENDCHAR
STARTCHAR 4F88
ENCODING 20360
SWIDTH 960 0
DWIDTH 16 0
BBX 16 16 0 -2
BITMAP
0880
0880
11F0
1208
2D08
2090
6060
A3A0
2C3C
2042
2182
2644
2028
2030
20C0
2700
ENDCHAR
STARTCHAR 4F8B
ENCODING 20363
SWIDTH 960 0
DWIDTH 16 0
BBX 16 16 0 -2
BITMAP
1002
1FD2
1412
1412
2792
2452
6452
AC52
2A52
3192
2092
2112
2102
2202
2402
281C
ENDCHAR
STARTCHAR 4F8D
ENCODING 20365
SWIDTH 960 0
DWIDTH 16 0
BBX 16 16 0 -2
BITMAP
0840
0840
17FC
1040
2040
2FFE
6008
A008
2FFE
2408
2208
2108
2108
2008
2008
2070
ENDCHAR
STARTCHAR 4F8F
ENCODING 20367
SWIDTH 960 0
DWIDTH 16 0
BBX 16 16 0 -2
BITMAP
0840
0A40
1240
13FC
2440
2440
6840
BFFE
20C0
2160
2150
2250
2448
2846
2040
2040
ENDCHAR
STARTCHAR 4F91
ENCODING 20369
SWIDTH 960 0
DWIDTH 16 0
BBX 16 16 0 -2
BITMAP
0880
0880
17FE
1100
2100
23F8
6204
A604
2BFC
2204
2204
23FC
2204
2204
2204
2218
ENDCHAR
STARTCHAR 4F96
ENCODING 20374
SWIDTH 960 0
DWIDTH 16 0
BBX 16 16 0 -2
BITMAP
0100
0280
0440
0820
1010
2FE8
C006
1FF0
2488
2488
3FF8
2488
2488
2488
2488
2030
ENDCHAR
STARTCHAR 4F98
ENCODING 20376
SWIDTH 960 0
DWIDTH 16 0
BBX 16 16 0 -2
BITMAP
0880
0880
1080
17FC
2802
281A
60E0
AF00
2100
2FFE
2100
2100
2100
2104
2104
20F8
ENDCHAR
STARTCHAR 4F9B
ENCODING 20379
SWIDTH 960 0
DWIDTH 16 0
BBX 16 16 0 -2
BITMAP
0910
0910
1110
1110
17FC
2110
6110
A110
2110
2110
2FFE
2000
2120
2210
2408
3806
ENDCHAR
STARTCHAR 4F9D
ENCODING 20381
SWIDTH 960 0
DWIDTH 16 0
BBX 16 16 0 -2
BITMAP
1040
1040
1040
1FFE
2080
2180
6144
A248
2650
3A20
2220
2210
2210
2208
23C4
2E02
ENDCHAR
STARTCHAR 4FA0
ENCODING 20384
SWIDTH 960 0
DWIDTH 16 0
BBX 16 16 0 -2
BITMAP
0840
0840
1040
17FC
1040
2248
6248
A150
2040
2FFE
2040
20A0
20A0
2110
2208
2C06
ENDCHAR
STARTCHAR 4FA1
ENCODING 20385
SWIDTH 960 0
DWIDTH 16 0
BBX 16 16 0 -2
BITMAP
1000
1FFE
10A0
20A0
20A0
23F8
64A4
A4A4
24A4
24A4
24A4
24A4
24A4
24A4
23F8
2000
ENDCHAR
STARTCHAR 4FAB
ENCODING 20395
SWIDTH 960 0
DWIDTH 16 0
BBX 16 16 0 -2
BITMAP
0840
0840
17FE
1200
2200
2200
61FC
A080
2080
2FFE
2110
2210
21A0
2060
2198
2E04
ENDCHAR
STARTCHAR 4FAD
ENCODING 20397
SWIDTH 960 0
DWIDTH 16 0
BBX 16 16 0 -2
BITMAP
0800
0BF0
1408
1408
2408
27F0
6420
A420
2590
2450
2828
2B08
3084
2042
2020
2010
ENDCHAR
STARTCHAR 4FAE
ENCODING 20398
SWIDTH 960 0
DWIDTH 16 0
BBX 16 16 0 -2
BITMAP
1200
1200
13FE
2400
25F0
2A48
6248
A248
2248
3FFE
2488
2488
2488
2488
23F0
2000
ENDCHAR
STARTCHAR 4FAF
ENCODING 20399
SWIDTH 960 0
DWIDTH 16 0
BBX 16 16 0 -2
BITMAP
0800
0BF0
1008
1008
2FFE
2200
6200
A7FC
2440
2840
3FFE
2040
20A0
2110
2208
2C06
ENDCHAR
STARTCHAR 4FB5
ENCODING 20405
SWIDTH 960 0
DWIDTH 16 0
BBX 16 16 0 -2
BITMAP
0800
0BF0
1008
13F8
2008
23F0
6000
A7FC
2802
2BF2
2108
2090
2060
20A0
2318
2C06
ENDCHAR
STARTCHAR 4FB6
ENCODING 20406
SWIDTH 960 0
DWIDTH 16 0
BBX 16 16 0 -2
BITMAP
0800
09F8
1204
1204
2204
2204
61F8
A080
2100
23FC
2402
2402
2402
2402
23FC
2000
ENDCHAR
STARTCHAR 4FBF
ENCODING 20415
SWIDTH 960 0
DWIDTH 16 0
BBX 16 16 0 -2
BITMAP
1000
1FFE
1040
13F8
2444
2444
67FC
A444
2444
23F8
2240
2180
2080
2140
2630
380E
ENDCHAR
STARTCHAR 4FC2
ENCODING 20418
SWIDTH 960 0
DWIDTH 16 0
BBX 16 16 0 -2
BITMAP
080C
0830
17C0
1090
2320
2150
6088
A13C
2FC2
2042
2250
2248
2244
2442
2842
2040
ENDCHAR
STARTCHAR 4FC3
ENCODING 20419
SWIDTH 960 0
DWIDTH 16 0
BBX 16 16 0 -2
BITMAP
1000
13F8
1404
1404
2404
2404
63F8
A040
2440
2440
247C
2440
2440
2A40
29C0
307E
ENDCHAR
STARTCHAR 4FC4
ENCODING 20420
SWIDTH 960 0
DWIDTH 16 0
BBX 16 16 0 -2
BITMAP
10A0
1328
1E24
2224
2220
3FFE
6220
A224
23A4
2E28
2210
2210
2232
224A
228A
2D04
ENDCHAR
STARTCHAR 4FCA
ENCODING 20426
SWIDTH 960 0
DWIDTH 16 0
BBX 16 16 0 -2
BITMAP
0880
0890
1108
17FC
20A4
2120
6220
AD1E
2100
21F0
2308
2C90
2060
20A0
2318
2C06
ENDCHAR
STARTCHAR 4FCE
ENCODING 20430
SWIDTH 960 0
DWIDTH 16 0
BBX 16 16 0 -2
BITMAP
0000
10F0
1108
1108
2908
25F8
4508
9108
1108
11F8
2908
2508
4508
8108
0FFE
0000
ENDCHAR
STARTCHAR 4FD0
ENCODING 20432
SWIDTH 960 0
DWIDTH 16 0
BBX 16 16 0 -2
BITMAP
0822
08C2
1712
1112
2112
2FF2
6112
A392
2552
2532
2912
3112
2102
2102
2102
210C
ENDCHAR
STARTCHAR 4FD1
ENCODING 20433
SWIDTH 960 0
DWIDTH 16 0
BBX 16 16 0 -2
BITMAP
0800
0FF8
1108
1090
2060
23F8
6444
A444
27FC
2444
2444
27FC
2444
2444
2444
2418
ENDCHAR
STARTCHAR 4FD4
ENCODING 20436
SWIDTH 960 0
DWIDTH 16 0
BBX 16 16 0 -2
BITMAP
0800
0BF0
1408
1408
27F8
2408
6408
A7F8
2408
2408
23F0
2120
2122
2122
2222
2C1C
ENDCHAR
STARTCHAR 4FD7
ENCODING 20439
SWIDTH 960 0
DWIDTH 16 0
BBX 16 16 0 -2
BITMAP
1220
1220
1210
1488
2484
2940
6120
A210
2408
3806
23F0
2408
2408
2408
23F0
2000
ENDCHAR
STARTCHAR 4FD8
ENCODING 20440
SWIDTH 960 0
DWIDTH 16 0
BBX 16 16 0 -2
BITMAP
081C
0FE8
1488
1248
2150
27F8
6008
A090
2060
2FFE
2020
2020
2020
2020
2040
2180
ENDCHAR
STARTCHAR 4FDA
ENCODING 20442
SWIDTH 960 0
DWIDTH 16 0
BBX 16 16 0 -2
BITMAP
0800
0BF8
1444
1444
27FC
2444
6444
A444
23F8
2040
2040
27FC
2040
2040
2FFE
2000
ENDCHAR
STARTCHAR 4FDB
ENCODING 20443
SWIDTH 960 0
DWIDTH 16 0
BBX 16 16 0 -2
BITMAP
0900
0900
13E0
1210
2420
2BF0
7488
A488
2488
2488
23F0
2140
2142
2242
2442
383C
ENDCHAR
STARTCHAR 4FDD
ENCODING 20445
SWIDTH 960 0
DWIDTH 16 0
BBX 16 16 0 -2
BITMAP
0800
09F0
1208
1208
2208
2208
61F0
A040
2040
2FFE
20E0
2150
2248
2444
2842
2040
ENDCHAR
STARTCHAR 4FDF
ENCODING 20447
SWIDTH 960 0
DWIDTH 16 0
BBX 16 16 0 -2
BITMAP
0880
0880
1110
120C
2FFA
2202
6200
A3FC
2240
2440
2FFE
20A0
20A0
2110
2208
2C06
ENDCHAR
STARTCHAR 4FE1
ENCODING 20449
SWIDTH 960 0
DWIDTH 16 0
BBX 16 16 0 -2
BITMAP
1000
17FC
1000
2FFE
2000
27FC
6000
A7FC
2000
2000
23F8
2404
2404
2404
23F8
2000
ENDCHAR
STARTCHAR 4FE3
ENCODING 20451
SWIDTH 960 0
DWIDTH 16 0
BBX 16 16 0 -2
BITMAP
0800
09F0
1208
1208
2208
21F0
6000
A7FC
2040
2040
2FFE
20A0
20A0
2110
2208
2C06
ENDCHAR
STARTCHAR 4FE4
ENCODING 20452
SWIDTH 960 0
DWIDTH 16 0
BBX 16 16 0 -2
BITMAP
0A10
0910
1120
17F8
2044
2044
63F8
A440
2440
23FC
20C2
2142
2244
2C58
2040
2040
ENDCHAR
STARTCHAR 4FE5
ENCODING 20453
SWIDTH 960 0
DWIDTH 16 0
BBX 16 16 0 -2
BITMAP
0840
0840
17FE
1040
23F8
2444
6444
A7FC
2444
2444
23F8
2040
2FFE
2040
2040
2040
ENDCHAR
STARTCHAR 4FEE
ENCODING 20462
SWIDTH 960 0
DWIDTH 16 0
BBX 16 16 0 -2
BITMAP
1100
1100
11FE
2A88
2A90
2C60
6850
A988
2E26
2840
2B90
2824
28C8
2B10
2060
2380
ENDCHAR
STARTCHAR 4FEF
ENCODING 20463
SWIDTH 960 0
DWIDTH 16 0
BBX 16 16 0 -2
BITMAP
0840
0840
13FE
1480
2488
2488
657E
A508
2788
2548
2528
2528
2908
2908
3108
2130
ENDCHAR
STARTCHAR 4FF3
ENCODING 20467
SWIDTH 960 0
DWIDTH 16 0
BBX 16 16 0 -2
BITMAP
1120
1120
1120
2F3E
2120
2120
6120
AF3C
2120
2120
2120
2F3E
2120
2220
2420
3820
ENDCHAR
STARTCHAR 4FF5
ENCODING 20469
SWIDTH 960 0
DWIDTH 16 0
BBX 16 16 0 -2
BITMAP
1040
1040
1FFE
2040
27FC
2040
6040
AFFE
2144
2224
2628
3A10
2210
2248
2384
2E02
ENDCHAR
STARTCHAR 4FF6
ENCODING 20470
SWIDTH 960 0
DWIDTH 16 0
BBX 16 16 0 -2
BITMAP
0A00
0A00
1278
13A4
2224
2224
7FE4
A228
2B28
2AA8
2A90
3290
2228
2C28
2044
2182
ENDCHAR
STARTCHAR 4FF8
ENCODING 20472
SWIDTH 960 0
DWIDTH 16 0
BBX 16 16 0 -2
BITMAP
1040
1040
1FFE
2040
27FC
20A0
6FFE
A110
2248
2446
3BF8
2040
2FFE
2040
2040
2040
ENDCHAR
STARTCHAR 4FFA
ENCODING 20474
SWIDTH 960 0
DWIDTH 16 0
BBX 16 16 0 -2
BITMAP
1080
1080
1FFE
1120
2290
2488
6BF6
B488
2488
27F8
2488
2488
23F2
2082
2082
207C
ENDCHAR
STARTCHAR 4FFE
ENCODING 20478
SWIDTH 960 0
DWIDTH 16 0
BBX 16 16 0 -2
BITMAP
0880
0880
13F8
1444
2444
27FC
6444
A444
23F8
2120
2220
2FFE
2020
2020
2020
2020
ENDCHAR
STARTCHAR 5005
ENCODING 20485
SWIDTH 960 0
DWIDTH 16 0
BBX 16 16 0 -2
BITMAP
0840
0840
1040
1FFE
2000
2210
6210
A528
24A4
2844
3FFE
2040
2040
2040
2040
2040
ENDCHAR
STARTCHAR 5006
ENCODING 20486
SWIDTH 960 0
DWIDTH 16 0
BBX 16 16 0 -2
BITMAP
0800
0FFE
1040
1040
23F8
2444
6444
A774
2554
2554
2554
26EC
2444
2444
2444
2418
ENDCHAR
STARTCHAR 5009
ENCODING 20489
SWIDTH 960 0
DWIDTH 16 0
BBX 16 16 0 -2
BITMAP
0100
0280
0440
0BA0
1010
2FE8
D016
1FF0
1010
1FE0
2000
2FF0
5008
9008
0FF0
0000
ENDCHAR
STARTCHAR 500B
ENCODING 20491
SWIDTH 960 0
DWIDTH 16 0
BBX 16 16 0 -2
BITMAP
0800
0BF8
1404
1444
2444
27FC
6444
A444
24E4
2514
2514
2514
24E4
2404
23F8
2000
ENDCHAR
STARTCHAR 500D
ENCODING 20493
SWIDTH 960 0
DWIDTH 16 0
BBX 16 16 0 -2
BITMAP
0840
0840
17FC
1210
2110
2110
6120
AFFE
2000
21F0
2208
2208
2208
2208
21F0
2000
ENDCHAR
STARTCHAR 500F
ENCODING 20495
SWIDTH 960 0
DWIDTH 16 0
BBX 16 16 0 -2
BITMAP
0880
0880
10F8
1184
2A48
2C30
68C8
AB16
2848
2848
2FFE
2840
28A0
2110
2208
2C06
ENDCHAR
STARTCHAR 5011
ENCODING 20497
SWIDTH 960 0
DWIDTH 16 0
BBX 16 16 0 -2
BITMAP
0800
0B18
14A4
14A4
27BC
24A4
64A4
A71C
2404
2404
2404
2404
2404
2404
2404
2418
ENDCHAR
STARTCHAR 5012
ENCODING 20498
SWIDTH 960 0
DWIDTH 16 0
BBX 16 16 0 -2
BITMAP
1002
1FD2
1212
2492
2852
29D2
6652
A212
2212
2FD2
2212
2212
2202
23C2
2E02
201C
ENDCHAR
STARTCHAR 5014
ENCODING 20500
SWIDTH 960 0
DWIDTH 16 0
BBX 16 16 0 -2
BITMAP
0800
0BF8
1404
1404
27F8
2420
6524
A524
2524
24F8
2420
2A22
2A22
3222
21FC
2000
ENDCHAR
STARTCHAR 5016
ENCODING 20502
SWIDTH 960 0
DWIDTH 16 0
BBX 16 16 0 -2
BITMAP
0840
0840
17FC
1040
1040
2FFE
6208
A108
2110
2FFE
2040
2040
27FC
2040
2040
2040
ENDCHAR
STARTCHAR 5019
ENCODING 20505
SWIDTH 960 0
DWIDTH 16 0
BBX 16 16 0 -2
BITMAP
1000
17F0
1008
2808
2FFE
2900
6900
ABFC
2C40
2840
2FFE
28A0
28A0
2910
2208
2C06
ENDCHAR
STARTCHAR 501A
ENCODING 20506
SWIDTH 960 0
DWIDTH 16 0
BBX 16 16 0 -2
BITMAP
0880
0880
17FC
1140
2220
2410
7FFE
A008
2388
2448
2448
2448
2388
2008
2008
2030
ENDCHAR
STARTCHAR 501F
ENCODING 20511
SWIDTH 960 0
DWIDTH 16 0
BBX 16 16 0 -2
BITMAP
1110
1110
17FC
2110
2110
2FFE
6000
A000
23F8
2404
2404
27FC
2404
2404
23F8
2000
ENDCHAR
STARTCHAR 5021
ENCODING 20513
SWIDTH 960 0
DWIDTH 16 0
BBX 16 16 0 -2
BITMAP
0800
09F0
1208
13F8
2208
2208
61F0
A000
23F8
2404
2404
27FC
2404
2404
23F8
2000
ENDCHAR
STARTCHAR 5023
ENCODING 20515
SWIDTH 960 0
DWIDTH 16 0
BBX 16 16 0 -2
BITMAP
1220
1220
1220
1FA0
247E
2448
6728
A4A8
24A8
24A8
2490
2490
28A8
28A8
3144
2E82
ENDCHAR
STARTCHAR 5024
ENCODING 20516
SWIDTH 960 0
DWIDTH 16 0
BBX 16 16 0 -2
BITMAP
1040
1040
1FFE
2040
20F8
2504
65FC
A504
2504
25FC
2504
2504
24F8
2400
23FE
2000
ENDCHAR
STARTCHAR 5025
ENCODING 20517
SWIDTH 960 0
DWIDTH 16 0
BBX 16 16 0 -2
BITMAP
0840
0840
1040
17FC
2922
2922
6120
A21E
2C00
2000
27FC
2040
2040
2040
2FFE
2000
ENDCHAR
STARTCHAR 5026
ENCODING 20518
SWIDTH 960 0
DWIDTH 16 0
BBX 16 16 0 -2
BITMAP
1488
1288
1290
1FFC
2140
2140
7FFE
A220
2410
2FE8
3016
2010
23E0
2404
2404
23F8
ENDCHAR
STARTCHAR 5028
ENCODING 20520
SWIDTH 960 0
DWIDTH 16 0
BBX 16 16 0 -2
BITMAP
0800
0BF8
1404
1404
27F8
2420
6420
A7FE
2420
2420
24F8
2504
2904
2904
30F8
2000
ENDCHAR
STARTCHAR 5029
ENCODING 20521
SWIDTH 960 0
DWIDTH 16 0
BBX 16 16 0 -2
BITMAP
0840
0840
17FC
1040
23F8
2040
6FFE
A000
21F0
2208
23F8
2208
23F8
2208
2208
2230
ENDCHAR
STARTCHAR 502A
ENCODING 20522
SWIDTH 960 0
DWIDTH 16 0
BBX 16 16 0 -2
BITMAP
0840
0880
1338
1404
2404
27BC
6404
A404
23F8
20A0
20A0
20A0
2122
2122
2222
2C1C
ENDCHAR
STARTCHAR 502B
ENCODING 20523
SWIDTH 960 0
DWIDTH 16 0
BBX 16 16 0 -2
BITMAP
0880
0880
1140
1120
2210
25E8
6806
B3F8
24A4
24A4
27FC
24A4
24A4
24A4
24A4
2418
ENDCHAR
STARTCHAR 502C
ENCODING 20524
SWIDTH 960 0
DWIDTH 16 0
BBX 16 16 0 -2
BITMAP
0840
0840
087C
1040
13F8
2404
6404
A7FC
2404
2404
23F8
2040
2FFE
2040
2040
2040
ENDCHAR
STARTCHAR 502D
ENCODING 20525
SWIDTH 960 0
DWIDTH 16 0
BBX 16 16 0 -2
BITMAP
0808
0870
13C0
1040
2FFE
2160
6250
A448
3886
2080
2FFE
2110
2310
20E0
2198
2E04
ENDCHAR
STARTCHAR 5036
ENCODING 20534
SWIDTH 960 0
DWIDTH 16 0
BBX 16 16 0 -2
BITMAP
0800
09F0
1208
1208
13F8
2208
6208
A3F8
2208
2208
21F0
2000
2FFE
2000
2318
2C06
ENDCHAR
STARTCHAR 5039
ENCODING 20537
SWIDTH 960 0
DWIDTH 16 0
BBX 16 16 0 -2
BITMAP
0880
0940
1120
1210
25E8
2886
77F8
A884
2884
2884
27F8
2140
2120
2210
2408
3806
ENDCHAR
STARTCHAR 5043
ENCODING 20547
SWIDTH 960 0
DWIDTH 16 0
BBX 16 16 0 -2
BITMAP
0800
0BFE
1400
14F8
2504
25FC
6504
A4F8
2440
27FE
2490
25E0
2458
2484
23FE
2000
ENDCHAR
STARTCHAR 5047
ENCODING 20551
SWIDTH 960 0
DWIDTH 16 0
BBX 16 16 0 -2
BITMAP
0800
0B38
1484
1484
2484
2738
6400
A400
27F8
2444
2424
27A8
2410
2428
2444
2582
ENDCHAR
STARTCHAR 5048
ENCODING 20552
SWIDTH 960 0
DWIDTH 16 0
BBX 16 16 0 -2
BITMAP
0800
09F0
1208
13F8
2208
2208
61F0
A100
23FC
2402
3CC2
2712
2412
23E4
2004
2038
ENDCHAR
STARTCHAR 5049
ENCODING 20553
SWIDTH 960 0
DWIDTH 16 0
BBX 16 16 0 -2
BITMAP
0880
0880
13F0
1108
2FFE
2000
63F0
A408
23F0
2020
27FC
2220
2220
2FFE
2020
2020
ENDCHAR
STARTCHAR 504F
ENCODING 20559
SWIDTH 960 0
DWIDTH 16 0
BBX 16 16 0 -2
BITMAP
1000
17FC
1000
13F8
2404
2404
67F8
A400
27F8
2AA4
2AA4
2BFC
32A4
22A4
22A4
2218
ENDCHAR
STARTCHAR 5050
ENCODING 20560
SWIDTH 960 0
DWIDTH 16 0
BBX 16 16 0 -2
BITMAP
0840
0840
17FE
1108
2090
23FE
6410
A464
2588
2410
2462
2584
2808
2830
30C0
2300
ENDCHAR
STARTCHAR 5055
ENCODING 20565
SWIDTH 960 0
DWIDTH 16 0
BBX 16 16 0 -2
BITMAP
0A20
0A22
13A4
1238
2220
22E2
6322
AC9C
2080
23F8
2404
27FC
2404
2404
23F8
2000
ENDCHAR
STARTCHAR 5056
ENCODING 20566
SWIDTH 960 0
DWIDTH 16 0
BBX 16 16 0 -2
BITMAP
0880
0888
1088
17F8
2090
20A0
6FFE
A080
21F0
2608
3A08
23F8
2208
2208
21F0
2000
ENDCHAR
STARTCHAR 505A
ENCODING 20570
SWIDTH 960 0
DWIDTH 16 0
BBX 16 16 0 -2
BITMAP
1210
1210
1220
1220
2FFE
2244
62A4
A224
2728
28A8
2890
2890
28A8
2728
2044
2182
ENDCHAR
STARTCHAR 505C
ENCODING 20572
SWIDTH 960 0
DWIDTH 16 0
BBX 16 16 0 -2
BITMAP
0840
0840
17FE
1000
21F0
2208
61F0
A000
27FC
2802
2BFA
2040
2040
2040
2040
2380
ENDCHAR
STARTCHAR 5065
ENCODING 20581
SWIDTH 960 0
DWIDTH 16 0
BBX 16 16 0 -2
BITMAP
1020
1020
1DF8
2224
25FE
2424
6824
ADF8
2220
2BFC
2A20
2BFE
2420
2420
2B00
30FE
ENDCHAR
STARTCHAR 506C
ENCODING 20588
SWIDTH 960 0
DWIDTH 16 0
BBX 16 16 0 -2
BITMAP
0900
0900
1200
13F8
2494
2924
66A4
A044
21A8
2608
20B0
2148
2524
252A
290A
20F0
ENDCHAR
STARTCHAR 5072
ENCODING 20594
SWIDTH 960 0
DWIDTH 16 0
BBX 16 16 0 -2
BITMAP
0800
0BF8
1444
1444
27FC
2444
6444
A444
23F8
2080
2148
2524
2522
250A
2908
20F0
ENDCHAR
STARTCHAR 5074
ENCODING 20596
SWIDTH 960 0
DWIDTH 16 0
BBX 16 16 0 -2
BITMAP
1002
1392
1452
2452
27D2
2452
6452
A7D2
2452
2452
2452
2392
2002
2482
2442
285C
ENDCHAR
STARTCHAR 5075
ENCODING 20597
SWIDTH 960 0
DWIDTH 16 0
BBX 16 16 0 -2
BITMAP
0840
0840
107E
1040
23F8
2404
6404
A7FC
2404
2404
27FC
2404
2404
23F8
2110
2E0E
ENDCHAR
STARTCHAR 5076
ENCODING 20598
SWIDTH 960 0
DWIDTH 16 0
BBX 16 16 0 -2
BITMAP
1000
13F8
1444
1444
27FC
2444
6444
A3F8
2040
27FC
2842
2852
287A
2BCA
2802
281C
ENDCHAR
STARTCHAR 5078
ENCODING 20600
SWIDTH 960 0
DWIDTH 16 0
BBX 16 16 0 -2
BITMAP
0880
0940
1120
1210
25E8
2806
7308
A4A8
27A8
24A8
24A8
27A8
24A8
2488
2488
2530
ENDCHAR
STARTCHAR 507D
ENCODING 20605
SWIDTH 960 0
DWIDTH 16 0
BBX 16 16 0 -2
BITMAP
1480
1280
1280
2FF0
2108
6108
A3F8
2204
2404
2FFC
30A2
2552
2552
2952
2904
2038
ENDCHAR
STARTCHAR 5080
ENCODING 20608
SWIDTH 960 0
DWIDTH 16 0
BBX 16 16 0 -2
BITMAP
0880
0880
13F8
1444
2444
27FC
6444
A444
23F8
2148
2150
2154
227C
2242
2442
383C
ENDCHAR
STARTCHAR 5085
ENCODING 20613
SWIDTH 960 0
DWIDTH 16 0
BBX 16 16 0 -2
BITMAP
1058
1044
1FFE
1040
23F8
2444
67FC
A444
23F8
2010
2FFE
2210
2110
2110
2010
2060
ENDCHAR
STARTCHAR 508D
ENCODING 20621
SWIDTH 960 0
DWIDTH 16 0
BBX 16 16 0 -2
BITMAP
0840
0840
17FE
1110
20A0
27FC
6842
A842
27FC
2080
20F8
2084
2104
2104
2208
2C70
ENDCHAR
STARTCHAR 5091
ENCODING 20625
SWIDTH 960 0
DWIDTH 16 0
BBX 16 16 0 -2
BITMAP
1408
1708
14FE
14A8
2B28
21FE
6208
AC48
2040
2FFE
20E0
2150
2150
2248
2C46
2040
ENDCHAR
STARTCHAR 5098
ENCODING 20632
SWIDTH 960 0
DWIDTH 16 0
BBX 16 16 0 -2
BITMAP
0100
0280
0C60
3118
D116
1110
2928
5554
1110
2928
4544
FFFE
0100
0100
0100
0100
ENDCHAR
STARTCHAR 5099
ENCODING 20633
SWIDTH 960 0
DWIDTH 16 0
BBX 16 16 0 -2
BITMAP
1110
17FC
1110
1110
27FE
2800
69F8
AA44
2A44
2BFC
2A44
2A44
2BFC
2A44
3244
2258
ENDCHAR
STARTCHAR 509A
ENCODING 20634
SWIDTH 960 0
DWIDTH 16 0
BBX 16 16 0 -2
BITMAP
1220
1220
1220
1FA0
257E
2544
68A4
B564
2528
2528
2210
2210
2528
24A8
2844
3082
ENDCHAR
STARTCHAR 50AC
ENCODING 20652
SWIDTH 960 0
DWIDTH 16 0
BBX 16 16 0 -2
BITMAP
1444
1444
13F8
2220
2240
27FE
6440
AC40
37FC
2440
2440
27FC
2440
2440
23FE
2000
ENDCHAR
STARTCHAR 50AD
ENCODING 20653
SWIDTH 960 0
DWIDTH 16 0
BBX 16 16 0 -2
BITMAP
1020
13FE
1420
15F8
2424
27FE
6424
A5F8
2420
24F8
2524
25FC
2924
29FC
3124
2138
ENDCHAR
STARTCHAR 50B2
ENCODING 20658
SWIDTH 960 0
DWIDTH 16 0
BBX 16 16 0 -2
BITMAP
1210
1210
1FE0
1220
2FFE
2244
6224
BFE8
2428
2728
2490
2490
28A8
2928
3544
2282
ENDCHAR
STARTCHAR 50B3
ENCODING 20659
SWIDTH 960 0
DWIDTH 16 0
BBX 16 16 0 -2
BITMAP
1040
17FE
1040
13F8
2444
27FC
6444
A3F8
2040
27FE
2010
2FFE
2210
2110
2110
2060
ENDCHAR
STARTCHAR 50B4
ENCODING 20660
SWIDTH 960 0
DWIDTH 16 0
BBX 16 16 0 -2
BITMAP
0800
0BFE
1400
1470
2488
2488
6470
A400
2488
2554
2554
2554
2488
2400
23FE
2000
ENDCHAR
STARTCHAR 50B5
ENCODING 20661
SWIDTH 960 0
DWIDTH 16 0
BBX 16 16 0 -2
BITMAP
0840
0FFE
1040
13FC
2040
2FFE
6000
A3F8
2404
27FC
2404
27FC
2404
23F8
2110
2E0E
ENDCHAR
STARTCHAR 50B7
ENCODING 20663
SWIDTH 960 0
DWIDTH 16 0
BBX 16 16 0 -2
BITMAP
0900
0BFC
1200
15F0
2A08
23F8
6208
A1F0
2000
2FFE
2100
23FC
2C92
2322
2CC4
2338
ENDCHAR
STARTCHAR 50BE
ENCODING 20670
SWIDTH 960 0
DWIDTH 16 0
BBX 16 16 0 -2
BITMAP
1000
13FE
1020
2840
2A78
2A84
6A84
ACFC
2884
2A84
2AFC
2A84
2A84
2478
2048
2386
ENDCHAR
STARTCHAR 50C2
ENCODING 20674
SWIDTH 960 0
DWIDTH 16 0
BBX 16 16 0 -2
BITMAP
1040
13F8
1444
1FFE
2444
23F8
6040
A3F8
2444
23F8
2080
2FFE
2110
23E0
2098
2F04
ENDCHAR
STARTCHAR 50C5
ENCODING 20677
SWIDTH 960 0
DWIDTH 16 0
BBX 16 16 0 -2
BITMAP
1110
1110
1FFE
1110
2000
23F8
6444
A444
23F8
2040
27FC
2040
27FC
2040
2FFE
2000
ENDCHAR
STARTCHAR 50C9
ENCODING 20681
SWIDTH 960 0
DWIDTH 16 0
BBX 16 16 0 -2
BITMAP
0100
0280
0440
0820
17D0
2008
DC76
2288
2288
2288
1C70
0820
0820
1450
2288
C106
ENDCHAR
STARTCHAR 50CA
ENCODING 20682
SWIDTH 960 0
DWIDTH 16 0
BBX 16 16 0 -2
BITMAP
1000
1FFE
1120
27F8
2924
2924
67F8
A080
2FFE
2210
27E8
3816
21E0
2208
2208
21F0
ENDCHAR
STARTCHAR 50CD
ENCODING 20685
SWIDTH 960 0
DWIDTH 16 0
BBX 16 16 0 -2
BITMAP
10D0
1F10
1210
3FD0
227C
2792
6A52
AFD2
2A52
2A52
2792
2212
2FE2
2224
23C4
2C98
ENDCHAR
STARTCHAR 50CF
ENCODING 20687
SWIDTH 960 0
DWIDTH 16 0
BBX 16 16 0 -2
BITMAP
0900
09C0
1120
1220
27F8
2C44
6444
A3F8
2184
2E44
21A8
2E70
21A8
2E24
2022
21C0
ENDCHAR
STARTCHAR 50D1
ENCODING 20689
SWIDTH 960 0
DWIDTH 16 0
BBX 16 16 0 -2
BITMAP
100C
17F0
1080
1FFE
2210
25E8
7A16
A1E0
2000
23F8
2404
24E4
2514
2514
24E4
2418
ENDCHAR
STARTCHAR 50D5
ENCODING 20693
SWIDTH 960 0
DWIDTH 16 0
BBX 16 16 0 -2
BITMAP
14A4
12A4
12A8
1FFE
2110
20A0
6FFE
A040
27FC
2040
2040
2FFE
20A0
2110
2208
2C06
ENDCHAR
STARTCHAR 50D6
ENCODING 20694
SWIDTH 960 0
DWIDTH 16 0
BBX 16 16 0 -2
BITMAP
1040
1040
1FFE
1040
27FC
2000
63F8
A404
23F8
20A0
2FFE
2000
23F8
2404
23F8
2000
ENDCHAR
STARTCHAR 50DA
ENCODING 20698
SWIDTH 960 0
DWIDTH 16 0
BBX 16 16 0 -2
BITMAP
1040
1040
1FFE
28A2
2514
2208
65F6
BA08
23F8
2208
2208
21F0
2248
2444
2842
2380
ENDCHAR
STARTCHAR 50DE
ENCODING 20702
SWIDTH 960 0
DWIDTH 16 0
BBX 16 16 0 -2
BITMAP
103C
1FC8
1488
1250
23E0
2210
63F0
A208
2208
23FC
2402
2552
2AAA
32AA
2404
2018
ENDCHAR
STARTCHAR 50E3
ENCODING 20707
SWIDTH 960 0
DWIDTH 16 0
BBX 16 16 0 -2
BITMAP
1210
1210
17BC
1210
2FFE
2210
6528
A548
2886
31F0
2208
23F8
2208
2208
21F0
2000
ENDCHAR
STARTCHAR 50E5
ENCODING 20709
SWIDTH 960 0
DWIDTH 16 0
BBX 16 16 0 -2
BITMAP
0840
0840
13F8
1040
27FC
2210
6FBC
A210
2FFE
2000
2FFE
2120
2120
2122
2222
2C1C
ENDCHAR
STARTCHAR 50E7
ENCODING 20711
SWIDTH 960 0
DWIDTH 16 0
BBX 16 16 0 -2
BITMAP
1210
1110
10A0
17FC
2842
2FFE
6842
A7FC
2000
23F8
2404
27FC
2404
2404
23F8
2000
ENDCHAR
STARTCHAR 50ED
ENCODING 20717
SWIDTH 960 0
DWIDTH 16 0
BBX 16 16 0 -2
BITMAP
1110
1110
177C
1550
2FFE
2250
66A8
AB4E
3000
21F0
2208
23F8
2208
2208
21F0
2000
ENDCHAR
STARTCHAR 50EE
ENCODING 20718
SWIDTH 960 0
DWIDTH 16 0
BBX 16 16 0 -2
BITMAP
0840
0840
17FC
1110
2FFE
2000
61F0
A248
23F8
2248
21F0
2040
27FC
2040
2FFE
2000
ENDCHAR
STARTCHAR 50F5
ENCODING 20725
SWIDTH 960 0
DWIDTH 16 0
BBX 16 16 0 -2
BITMAP
1000
1FFE
1000
11F0
2248
23F8
6248
AFFE
2248
23F8
2248
2248
21F0
2000
2FFE
2000
ENDCHAR
STARTCHAR 50F9
ENCODING 20729
SWIDTH 960 0
DWIDTH 16 0
BBX 16 16 0 -2
BITMAP
1000
1FFE
1120
17FC
2922
27FC
6000
A3F8
2404
27FC
2404
27FC
2404
23F8
2110
2E0E
ENDCHAR
STARTCHAR 50FB
ENCODING 20731
SWIDTH 960 0
DWIDTH 16 0
BBX 16 16 0 -2
BITMAP
1010
1310
1490
14FE
24A4
24A4
6724
A428
24FE
2B10
2C90
34FE
2490
2490
2310
2010
ENDCHAR
STARTCHAR 5100
ENCODING 20736
SWIDTH 960 0
DWIDTH 16 0
BBX 16 16 0 -2
BITMAP
1208
1110
1FFE
2040
27FC
2040
6FFE
A0A8
2F24
2124
2FFE
2128
23A8
2D12
212A
26C4
ENDCHAR
STARTCHAR 5101
ENCODING 20737
SWIDTH 960 0
DWIDTH 16 0
BBX 16 16 0 -2
BITMAP
0920
0920
13FC
1640
2BF8
2240
63F8
A240
23FC
2000
261C
2922
2922
28C2
2802
280C
ENDCHAR
STARTCHAR 5102
ENCODING 20738
SWIDTH 960 0
DWIDTH 16 0
BBX 16 16 0 -2
BITMAP
10A0
13F8
14A4
27FC
24A4
23F8
6000
A3FE
2400
25F8
2400
27FE
2924
2914
31C8
2606
ENDCHAR
STARTCHAR 5104
ENCODING 20740
SWIDTH 960 0
DWIDTH 16 0
BBX 16 16 0 -2
BITMAP
1080
1080
1FFC
2210
2120
3FFE
6000
A3F0
2408
27F8
2408
23F0
20A4
2292
228A
2C70
ENDCHAR
STARTCHAR 5109
ENCODING 20745
SWIDTH 960 0
DWIDTH 16 0
BBX 16 16 0 -2
BITMAP
0880
0940
1120
1210
25E8
2806
7318
A4A4
24A4
24A4
2318
2210
2210
2528
28A4
3042
ENDCHAR
STARTCHAR 5112
ENCODING 20754
SWIDTH 960 0
DWIDTH 16 0
BBX 16 16 0 -2
BITMAP
1000
17FC
1040
27FC
2842
2B5A
6040
A358
2000
2FFE
2080
27FC
2922
2922
2922
292C
ENDCHAR
STARTCHAR 5114
ENCODING 20756
SWIDTH 960 0
DWIDTH 16 0
BBX 16 16 0 -2
BITMAP
1040
17FC
1040
13F8
2000
2FFE
6004
A7F8
2040
2FFE
2008
2FFE
2948
2928
2628
2030
ENDCHAR
STARTCHAR 5115
ENCODING 20757
SWIDTH 960 0
DWIDTH 16 0
BBX 16 16 0 -2
BITMAP
1040
1FFE
1110
10A2
2F5C
2554
6554
AB5A
320A
23F8
2208
23F8
2208
2208
2408
2808
ENDCHAR
STARTCHAR 5116
ENCODING 20758
SWIDTH 960 0
DWIDTH 16 0
BBX 16 16 0 -2
BITMAP
1010
13D0
153E
17A0
24C0
2480
67BE
A500
23C0
2000
23F8
24A4
24A4
24A4
2FFE
2000
ENDCHAR
STARTCHAR 5118
ENCODING 20760
SWIDTH 960 0
DWIDTH 16 0
BBX 16 16 0 -2
BITMAP
0880
0880
17F0
1088
2FFE
2088
67F0
A080
3FFE
24A8
2914
33F2
2548
2548
3FFE
2000
ENDCHAR
STARTCHAR 511A
ENCODING 20762
SWIDTH 960 0
DWIDTH 16 0
BBX 16 16 0 -2
BITMAP
1110
17FE
1110
1000
23F8
24A4
63F8
A000
27FC
2882
29F2
2308
2CC8
2030
20C0
2700
ENDCHAR
STARTCHAR 511F
ENCODING 20767
SWIDTH 960 0
DWIDTH 16 0
BBX 16 16 0 -2
BITMAP
1248
1148
1150
27FC
2802
29F2
6208
A3F8
2404
27FC
2404
27FC
2404
23F8
2110
2E0E
ENDCHAR
STARTCHAR 5121
ENCODING 20769
SWIDTH 960 0
DWIDTH 16 0
BBX 16 16 0 -2
BITMAP
0800
09F0
1248
13F8
2248
2248
61F0
A000
271C
2AAA
2AAA
2FBE
2AAA
2AAA
271C
2000
ENDCHAR
STARTCHAR 512A
ENCODING 20778
SWIDTH 960 0
DWIDTH 16 0
BBX 16 16 0 -2
BITMAP
0800
0FFE
1080
11F0
2208
23F8
6208
A7FC
2AAA
2A7A
2500
21F8
2690
2060
2198
2E06
ENDCHAR
STARTCHAR 5132
ENCODING 20786
SWIDTH 960 0
DWIDTH 16 0
BBX 16 16 0 -2
BITMAP
1020
1720
1024
3FFC
2028
2030
6FFE
A020
2F40
20B8
2644
297C
2944
2944
2638
2000
ENDCHAR
STARTCHAR 5137
ENCODING 20791
SWIDTH 960 0
DWIDTH 16 0
BBX 16 16 0 -2
BITMAP
1000
1FBE
1000
2FBE
2AAA
2840
63FE
A490
27FC
2492
27FC
2524
29FC
2922
31E2
271C
ENDCHAR
STARTCHAR 513A
ENCODING 20794
SWIDTH 960 0
DWIDTH 16 0
BBX 16 16 0 -2
BITMAP
1510
1FD4
1524
1728
227E
2FA8
6AA8
AFBE
2228
2FA8
223E
2FA8
2228
2528
289E
3040
ENDCHAR
STARTCHAR 513B
ENCODING 20795
SWIDTH 960 0
DWIDTH 16 0
BBX 16 16 0 -2
BITMAP
1248
1150
13F8
1514
24E4
2000
63F8
A554
2554
23F8
2040
27FC
2040
2FFE
2524
2892
ENDCHAR
STARTCHAR 513C
ENCODING 20796
SWIDTH 960 0
DWIDTH 16 0
BBX 16 16 0 -2
BITMAP
1000
1318
14A4
1318
2000
27FE
6810
ABD0
293E
2FD4
2A54
2BD4
2A48
2BD4
3654
2062
ENDCHAR
STARTCHAR 513F
ENCODING 20799
SWIDTH 960 0
DWIDTH 16 0
BBX 16 16 0 -2
BITMAP
0440
0440
0440
0440
0440
0440
0440
0440
0440
0440
0440
0842
0842
1042
2042
C03C
ENDCHAR
STARTCHAR 5140
ENCODING 20800
SWIDTH 960 0
DWIDTH 16 0
BBX 16 16 0 -2
BITMAP
0000
FFFE
0440
0440
0440
0440
0440
0440
0440
0440
0440
0842
0842
1042
2042
C03C
ENDCHAR
STARTCHAR 5141
ENCODING 20801
SWIDTH 960 0
DWIDTH 16 0
BBX 16 16 0 -2
BITMAP
0200
0220
0410
0808
11FC
FE42
0442
0440
0440
0440
0440
0840
0842
1042
2042
C03C
ENDCHAR
STARTCHAR 5143
ENCODING 20803
SWIDTH 960 0
DWIDTH 16 0
BBX 16 16 0 -2
BITMAP
0000
7FFC
0000
0000
0000
0000
FFFE
0440
0440
0440
0440
0840
0842
1042
2042
C03C
ENDCHAR
STARTCHAR 5144
ENCODING 20804
SWIDTH 960 0
DWIDTH 16 0
BBX 16 16 0 -2
BITMAP
0000
1FF0
2008
2008
2008
2008
2008
1FF0
0080
0480
0480
0880
0882
1082
2082
C07C
ENDCHAR
STARTCHAR 5145
ENCODING 20805
SWIDTH 960 0
DWIDTH 16 0
BBX 16 16 0 -2
BITMAP
0100
0100
0100
FFFE
0420
0410
0808
11FC
7E84
0480
0480
0880
0882
1082
2082
C07C
ENDCHAR
STARTCHAR 5146
ENCODING 20806
SWIDTH 960 0
DWIDTH 16 0
BBX 16 16 0 -2
BITMAP
0480
0480
4484
2484
2488
24B0
0480
0CE0
3490
C488
0484
0880
0882
1082
2082
C07C
ENDCHAR
STARTCHAR 5147
ENCODING 20807
SWIDTH 960 0
DWIDTH 16 0
BBX 16 16 0 -2
BITMAP
4024
4C44
4284
4104
4284
4444
5824
4004
3FF8
0440
0440
0840
0842
1042
2042
C03C
ENDCHAR
STARTCHAR 5148
ENCODING 20808
SWIDTH 960 0
DWIDTH 16 0
BBX 16 16 0 -2
BITMAP
0100
2100
2100
3FFC
4100
4100
8100
0100
FFFE
0440
0440
0840
0842
1042
2042
C03C
ENDCHAR
STARTCHAR 5149
ENCODING 20809
SWIDTH 960 0
DWIDTH 16 0
BBX 16 16 0 -2
BITMAP
0100
4108
2108
1108
1110
1110
0100
FFFE
0480
0480
0480
0880
0882
1082
2082
C07C
ENDCHAR
STARTCHAR 514B
ENCODING 20811
SWIDTH 960 0
DWIDTH 16 0
BBX 16 16 0 -2
BITMAP
0100
0100
FFFE
0100
0100
1FF0
2008
2008
2008
2008
1FF0
0440
0442
0842
3042
C03C
ENDCHAR
STARTCHAR 514C
ENCODING 20812
SWIDTH 960 0
DWIDTH 16 0
BBX 16 16 0 -2
BITMAP
0820
0820
0440
0280
1FF0
2008
2008
2008
2008
1FF0
0080
0480
0482
0882
3082
C07C
ENDCHAR
STARTCHAR 514D
ENCODING 20813
SWIDTH 960 0
DWIDTH 16 0
BBX 16 16 0 -2
BITMAP
0400
0400
0FC0
1020
2040
FFF8
4104
4104
4104
3FF8
0480
0480
0482
0882
3082
C07C
ENDCHAR
STARTCHAR 514E
ENCODING 20814
SWIDTH 960 0
DWIDTH 16 0
BBX 16 16 0 -2
BITMAP
000C
00F0
7F00
0100
0100
3FF8
4104
4104
4104
3FF8
04A0
0490
048A
088A
3082
C07C
ENDCHAR
STARTCHAR 5150
ENCODING 20816
SWIDTH 960 0
DWIDTH 16 0
BBX 16 16 0 -2
BITMAP
4000
43F8
4404
4404
47FC
4404
4404
4404
43F8
4000
0880
0880
0882
1082
2082
C07C
ENDCHAR
STARTCHAR 5152
ENCODING 20818
SWIDTH 960 0
DWIDTH 16 0
BBX 16 16 0 -2
BITMAP
0300
1CF0
2008
2008
3EF8
2008
2008
2008
1FF0
0480
0480
0880
0882
1082
2082
C07C
ENDCHAR
STARTCHAR 5154
ENCODING 20820
SWIDTH 960 0
DWIDTH 16 0
BBX 16 16 0 -2
BITMAP
0200
0200
07E0
0820
1040
3FF8
E104
2104
2104
1FF8
04A8
0490
0488
088A
3082
C07C
ENDCHAR
STARTCHAR 515A
ENCODING 20826
SWIDTH 960 0
DWIDTH 16 0
BBX 16 16 0 -2
BITMAP
2108
1108
0910
7FFC
8002
8002
0FE0
1010
1010
1010
0FE0
0480
0482
0882
3082
C07C
ENDCHAR
STARTCHAR 515C
ENCODING 20828
SWIDTH 960 0
DWIDTH 16 0
BBX 16 16 0 -2
BITMAP
0200
1200
67DC
8822
8822
8FE2
8822
8822
77DC
0000
0440
0440
0442
0842
1042
E03C
ENDCHAR
STARTCHAR 5162
ENCODING 20834
SWIDTH 960 0
DWIDTH 16 0
BBX 16 16 0 -2
BITMAP
1020
1020
FFFE
1020
1020
3C78
4284
4284
4284
3C78
2850
2950
2A52
4C92
4092
830C
ENDCHAR
STARTCHAR 5165
ENCODING 20837
SWIDTH 960 0
DWIDTH 16 0
BBX 16 16 0 -2
BITMAP
0000
3E00
0100
0100
0100
0100
0100
0280
0280
0280
0440
0440
0820
1010
2008
C006
ENDCHAR
STARTCHAR 5168
ENCODING 20840
SWIDTH 960 0
DWIDTH 16 0
BBX 16 16 0 -2
BITMAP
0100
0280
0440
0820
1010
3FF8
C106
0100
0100
3FF8
0100
0100
0100
0100
FFFE
0000
ENDCHAR
STARTCHAR 5169
ENCODING 20841
SWIDTH 960 0
DWIDTH 16 0
BBX 16 16 0 -2
BITMAP
0000
FFFE
0100
0100
3FF8
4104
4104
5144
4924
4924
5554
5554
638C
4104
4104
4118
ENDCHAR
STARTCHAR 516A
ENCODING 20842
SWIDTH 960 0
DWIDTH 16 0
BBX 16 16 0 -2
BITMAP
0100
0280
0440
0820
37D8
C026
1C24
2224
3248
2A48
2690
3248
2A48
2624
2224
2C24
ENDCHAR
STARTCHAR 516B
ENCODING 20843
SWIDTH 960 0
DWIDTH 16 0
BBX 16 16 0 -2
BITMAP
0480
0480
0480
0480
0480
0480
0440
0440
0840
0820
0820
1010
1010
2008
4004
8002
ENDCHAR
STARTCHAR 516C
ENCODING 20844
SWIDTH 960 0
DWIDTH 16 0
BBX 16 16 0 -2
BITMAP
0440
0440
0440
0820
0820
1010
2208
4204
8402
0440
0820
1010
2008
20F8
1F04
0004
ENDCHAR
STARTCHAR 516D
ENCODING 20845
SWIDTH 960 0
DWIDTH 16 0
BBX 16 16 0 -2
BITMAP
0100
0100
0100
0100
FFFE
0000
0000
0820
0810
0808
1008
1004
2004
2002
4002
8002
ENDCHAR
STARTCHAR 516E
ENCODING 20846
SWIDTH 960 0
DWIDTH 16 0
BBX 16 16 0 -2
BITMAP
0440
0440
0820
0820
1010
2FE8
C206
0400
0400
03E0
0010
0010
0010
0010
0020
01C0
ENDCHAR
STARTCHAR 5171
ENCODING 20849
SWIDTH 960 0
DWIDTH 16 0
BBX 16 16 0 -2
BITMAP
0820
0820
0820
0820
7FFC
0820
0820
0820
0820
FFFE
0000
0000
0820
1010
2008
C006
ENDCHAR
STARTCHAR 5175
ENCODING 20853
SWIDTH 960 0
DWIDTH 16 0
BBX 16 16 0 -2
BITMAP
0010
00E0
0F00
1000
1000
1FFC
1020
1020
1020
1020
FFFE
0000
0820
1010
2008
C006
ENDCHAR
STARTCHAR 5176
ENCODING 20854
SWIDTH 960 0
DWIDTH 16 0
BBX 16 16 0 -2
BITMAP
0820
0820
7FFC
0820
0820
0FE0
0820
0820
0FE0
0820
0820
FFFE
0000
0440
1830
E00E
ENDCHAR
STARTCHAR 5177
ENCODING 20855
SWIDTH 960 0
DWIDTH 16 0
BBX 16 16 0 -2
BITMAP
0000
0FE0
1010
1010
1FF0
1010
1010
1FF0
1010
1010
0FE0
0000
FFFE
0000
1830
E00E
ENDCHAR
STARTCHAR 5178
ENCODING 20856
SWIDTH 960 0
DWIDTH 16 0
BBX 16 16 0 -2
BITMAP
0440
0440
0440
3FF8
4444
4444
4444
7FFC
4444
4444
4444
FFFE
0000
0820
3018
C006
ENDCHAR
STARTCHAR 517C
ENCODING 20860
SWIDTH 960 0
DWIDTH 16 0
BBX 16 16 0 -2
BITMAP
1020
0840
FFFE
0480
7FF0
0488
0488
FFFE
0488
0488
7FF0
0CC0
14A0
1490
2488
C486
ENDCHAR
STARTCHAR 5180
ENCODING 20864
SWIDTH 960 0
DWIDTH 16 0
BBX 16 16 0 -2
BITMAP
0488
FCF2
0482
1C7C
E400
1FF0
2108
3FF8
2108
1FF0
0440
7FFC
0440
FFFE
0820
701C
ENDCHAR
STARTCHAR 5182
ENCODING 20866
SWIDTH 960 0
DWIDTH 16 0
BBX 16 16 0 -2
BITMAP
0000
3FF8
4004
4004
4004
4004
4004
4004
4004
4004
4004
4004
4004
4004
4004
4038
ENDCHAR
STARTCHAR 5185
ENCODING 20869
SWIDTH 960 0
DWIDTH 16 0
BBX 16 16 0 -2
BITMAP
0100
0100
0100
3FF8
4104
4104
4284
4284
4444
4824
701C
4004
4004
4004
4004
4038
ENDCHAR
STARTCHAR 5186
ENCODING 20870
SWIDTH 960 0
DWIDTH 16 0
BBX 16 16 0 -2
BITMAP
0000
3FF8
4104
4104
4104
4104
4104
4104
7FFC
4004
4004
4004
4004
4004
4004
4038
ENDCHAR
STARTCHAR 5189
ENCODING 20873
SWIDTH 960 0
DWIDTH 16 0
BBX 16 16 0 -2
BITMAP
0100
0100
0100
1FF0
2108
2108
3FF8
2108
2108
2108
FFFE
2008
2008
2008
2008
2030
ENDCHAR
STARTCHAR 518A
ENCODING 20874
SWIDTH 960 0
DWIDTH 16 0
BBX 16 16 0 -2
BITMAP
0000
1FF0
2488
2488
2488
2488
2488
FFFE
2488
2488
2488
2488
2488
2488
2488
2070
ENDCHAR
STARTCHAR 518C
ENCODING 20876
SWIDTH 960 0
DWIDTH 16 0
BBX 16 16 0 -2
BITMAP
0000
1C38
2244
2244
2244
2244
2244
FFFE
2244
2244
2244
2244
2244
4284
4284
8D18
ENDCHAR
STARTCHAR 518D
ENCODING 20877
SWIDTH 960 0
DWIDTH 16 0
BBX 16 16 0 -2
BITMAP
0000
FFFE
0100
0100
1FF0
2108
2108
3FF8
2108
2108
FFFE
2008
2008
2008
2008
2070
ENDCHAR
STARTCHAR 518F
ENCODING 20879
SWIDTH 960 0
DWIDTH 16 0
BBX 16 16 0 -2
BITMAP
0000
3FF8
4484
4484
4484
4884
707C
4004
47C4
4824
4824
4824
47C4
4004
4004
4038
ENDCHAR
STARTCHAR 5190
ENCODING 20880
SWIDTH 960 0
DWIDTH 16 0
BBX 16 16 0 -2
BITMAP
0000
7FFC
8002
BFFA
8002
BFFA
8002
0000
1FF0
2008
3FF8
2008
3FF8
2008
2008
2070
ENDCHAR
STARTCHAR 5191
ENCODING 20881
SWIDTH 960 0
DWIDTH 16 0
BBX 16 16 0 -2
BITMAP
0100
0100
3FF8
4104
7FFC
4104
3FF8
0000
1FF0
2008
2FE8
2008
2FE8
2008
2008
2070
ENDCHAR
STARTCHAR 5192
ENCODING 20882
SWIDTH 960 0
DWIDTH 16 0
BBX 16 16 0 -2
BITMAP
0000
1FF8
2004
3FFC
2004
1FF8
0000
0FF0
1008
1FF8
1008
1FF8
1008
1008
0FF0
0000
ENDCHAR
STARTCHAR 5193
ENCODING 20883
SWIDTH 960 0
DWIDTH 16 0
BBX 16 16 0 -2
BITMAP
0440
0440
7FFC
0440
3FF8
0440
FFFE
0100
1FF0
2108
3FF8
2108
FFFE
2008
2008
2070
ENDCHAR
STARTCHAR 5195
ENCODING 20885
SWIDTH 960 0
DWIDTH 16 0
BBX 16 16 0 -2
BITMAP
0000
3FF8
4004
5FF4
4004
5FF4
0400
0FC0
1080
FFF8
2104
2104
1FF8
0482
1882
E07C
ENDCHAR
STARTCHAR 5196
ENCODING 20886
SWIDTH 960 0
DWIDTH 16 0
BBX 16 16 0 -2
BITMAP
0000
0000
0000
0000
0000
7FFC
8002
8002
8002
8002
0000
0000
0000
0000
0000
0000
ENDCHAR
STARTCHAR 5197
ENCODING 20887
SWIDTH 960 0
DWIDTH 16 0
BBX 16 16 0 -2
BITMAP
0000
7FFC
8002
8002
0000
07C0
0820
0820
0820
0820
0820
0822
1022
1022
2022
C01C
ENDCHAR
STARTCHAR 5199
ENCODING 20889
SWIDTH 960 0
DWIDTH 16 0
BBX 16 16 0 -2
BITMAP
0000
7FFC
9002
9002
1FF0
1000
1000
0FE0
0010
0010
FFFE
0010
0020
0020
0040
0380
ENDCHAR
STARTCHAR 51A0
ENCODING 20896
SWIDTH 960 0
DWIDTH 16 0
BBX 16 16 0 -2
BITMAP
0000
7FFC
8002
800A
7E08
0008
01FE
FE08
2888
2848
2848
2808
280A
4872
4802
87FC
ENDCHAR
STARTCHAR 51A2
ENCODING 20898
SWIDTH 960 0
DWIDTH 16 0
BBX 16 16 0 -2
BITMAP
0000
7FFC
8002
8002
3FF8
0200
1C08
E210
0720
18C0
E1A0
0690
1888
E086
0900
0600
ENDCHAR
STARTCHAR 51A4
ENCODING 20900
SWIDTH 960 0
DWIDTH 16 0
BBX 16 16 0 -2
BITMAP
0000
7FFC
8202
83E2
8422
0840
1FF8
E104
2104
2104
1FF8
04A0
0492
0892
3082
C07C
ENDCHAR
STARTCHAR 51A5
ENCODING 20901
SWIDTH 960 0
DWIDTH 16 0
BBX 16 16 0 -2
BITMAP
0000
7FFC
8002
8FE2
1010
1010
1FF0
1010
1010
0FE0
0100
FFFE
0000
0440
1830
E00E
ENDCHAR
STARTCHAR 51A6
ENCODING 20902
SWIDTH 960 0
DWIDTH 16 0
BBX 16 16 0 -2
BITMAP
0000
7FFC
8002
8042
7C40
007C
0040
FE40
29FC
2844
2828
2830
28CC
4B02
4802
87FC
ENDCHAR
STARTCHAR 51A8
ENCODING 20904
SWIDTH 960 0
DWIDTH 16 0
BBX 16 16 0 -2
BITMAP
0000
7FFC
8002
BFFA
0000
0FE0
1010
0FE0
0000
1FF0
2108
3FF8
2108
2108
1FF0
0000
ENDCHAR
STARTCHAR 51A9
ENCODING 20905
SWIDTH 960 0
DWIDTH 16 0
BBX 16 16 0 -2
BITMAP
0000
7FFC
8002
8302
1CE0
2010
3EF0
2010
1FE0
0800
1FFC
2242
C922
14A2
2484
2018
ENDCHAR
STARTCHAR 51AA
ENCODING 20906
SWIDTH 960 0
DWIDTH 16 0
BBX 16 16 0 -2
BITMAP
0000
7FFC
8442
BFFA
0440
0FE0
1010
1FF0
1010
FFFE
0920
1FF0
3118
D116
1160
0100
ENDCHAR
STARTCHAR 51AB
ENCODING 20907
SWIDTH 960 0
DWIDTH 16 0
BBX 16 16 0 -2
BITMAP
0400
0200
0100
0100
0100
0000
0020
0040
0040
0080
0100
0100
0200
0400
0400
0800
ENDCHAR
STARTCHAR 51AC
ENCODING 20908
SWIDTH 960 0
DWIDTH 16 0
BBX 16 16 0 -2
BITMAP
0400
0400
07E0
0810
1820
2440
C280
0100
06C0
1830
E70E
00C0
0020
1E00
01C0
0030
ENDCHAR
STARTCHAR 51B0
ENCODING 20912
SWIDTH 960 0
DWIDTH 16 0
BBX 16 16 0 -2
BITMAP
4080
2080
2080
2084
0CC4
02C8
02B0
12A0
22A0
2290
2490
4488
4888
B086
8080
8300
ENDCHAR
STARTCHAR 51B1
ENCODING 20913
SWIDTH 960 0
DWIDTH 16 0
BBX 16 16 0 -2
BITMAP
4000
2FFE
2100
2100
0100
01F0
1208
1208
1208
2208
21F8
2008
4008
4008
9FFE
8000
ENDCHAR
STARTCHAR 51B2
ENCODING 20914
SWIDTH 960 0
DWIDTH 16 0
BBX 16 16 0 -2
BITMAP
4040
2040
2040
2040
03FC
0442
0442
1442
1442
2442
23FC
2040
4040
4040
8040
8040
ENDCHAR
STARTCHAR 51B3
ENCODING 20915
SWIDTH 960 0
DWIDTH 16 0
BBX 16 16 0 -2
BITMAP
4080
2080
1080
17F0
0088
0088
1088
1088
2FFE
2140
2140
4220
4220
8410
8808
3006
ENDCHAR
STARTCHAR 51B4
ENCODING 20916
SWIDTH 960 0
DWIDTH 16 0
BBX 16 16 0 -2
BITMAP
4000
2FFE
2108
2108
0108
0108
1FFE
2028
2048
2048
2088
4108
4208
4408
9888
8070
ENDCHAR
STARTCHAR 51B5
ENCODING 20917
SWIDTH 960 0
DWIDTH 16 0
BBX 16 16 0 -2
BITMAP
4000
23F0
2408
2408
0408
0408
0408
13F0
1120
2120
2120
2220
4222
4422
8822
B01C
ENDCHAR
STARTCHAR 51B6
ENCODING 20918
SWIDTH 960 0
DWIDTH 16 0
BBX 16 16 0 -2
BITMAP
4100
2100
2220
2210
0408
0804
087C
2782
2002
23F0
4408
4408
4408
4408
83F0
8000
ENDCHAR
STARTCHAR 51B7
ENCODING 20919
SWIDTH 960 0
DWIDTH 16 0
BBX 16 16 0 -2
BITMAP
4080
2080
2140
2120
0210
05E8
1806
2000
2FF8
2084
4084
4084
4084
40B8
8080
8080
ENDCHAR
STARTCHAR 51BD
ENCODING 20925
SWIDTH 960 0
DWIDTH 16 0
BBX 16 16 0 -2
BITMAP
4002
2FE2
2212
2212
0392
0252
1452
1452
2692
2992
3112
4112
4202
4402
8802
900C
ENDCHAR
STARTCHAR 51C4
ENCODING 20932
SWIDTH 960 0
DWIDTH 16 0
BBX 16 16 0 -2
BITMAP
4080
2080
2FFE
2080
0FF0
0088
1FFE
2088
2FF0
2100
5FFE
4210
4720
80E0
8318
1C04
ENDCHAR
STARTCHAR 51C5
ENCODING 20933
SWIDTH 960 0
DWIDTH 16 0
BBX 16 16 0 -2
BITMAP
4000
23FC
2442
2442
0442
07FE
1442
1442
24F2
250A
250A
450A
44F2
4402
83FC
8000
ENDCHAR
STARTCHAR 51C6
ENCODING 20934
SWIDTH 960 0
DWIDTH 16 0
BBX 16 16 0 -2
BITMAP
4200
2220
2220
2440
07FE
0C40
1440
27FC
2440
2440
27FC
4440
4440
4440
83FE
8000
ENDCHAR
STARTCHAR 51C9
ENCODING 20937
SWIDTH 960 0
DWIDTH 16 0
BBX 16 16 0 -2
BITMAP
4040
2040
2040
2FFE
0000
03F8
0404
1404
2404
23F8
2040
4448
4444
4842
9042
8180
ENDCHAR
STARTCHAR 51CB
ENCODING 20939
SWIDTH 960 0
DWIDTH 16 0
BBX 16 16 0 -2
BITMAP
4000
23F8
2444
2444
05F4
0444
1444
15F4
1404
24E4
2514
2514
4514
48E4
8804
B038
ENDCHAR
STARTCHAR 51CC
ENCODING 20940
SWIDTH 960 0
DWIDTH 16 0
BBX 16 16 0 -2
BITMAP
4080
2080
2FFC
2080
0080
1FFE
0120
2220
2D1E
21E0
4210
4510
48A0
4040
81B0
8E0E
ENDCHAR
STARTCHAR 51CD
ENCODING 20941
SWIDTH 960 0
DWIDTH 16 0
BBX 16 16 0 -2
BITMAP
0080
8080
5FFE
2080
27F8
0884
0884
2FFC
2884
2884
47F8
41C0
42A0
8490
8888
3086
ENDCHAR
STARTCHAR 51D6
ENCODING 20950
SWIDTH 960 0
DWIDTH 16 0
BBX 16 16 0 -2
BITMAP
4220
2240
27FC
0C40
17F8
1440
27F8
2440
43FC
4100
0100
FFFE
0100
0100
0100
0100
ENDCHAR
STARTCHAR 51DB
ENCODING 20955
SWIDTH 960 0
DWIDTH 16 0
BBX 16 16 0 -2
BITMAP
4040
2FFE
2000
23F8
0514
04E4
1404
13F8
2000
27FC
2000
4FFE
4040
4248
8444
9982
ENDCHAR
STARTCHAR 51DC
ENCODING 20956
SWIDTH 960 0
DWIDTH 16 0
BBX 16 16 0 -2
BITMAP
0040
8040
4FFE
2000
23F8
0404
14E4
1514
23F8
2030
21C0
4FFE
40E0
4150
8248
8C46
ENDCHAR
STARTCHAR 51DD
ENCODING 20957
SWIDTH 960 0
DWIDTH 16 0
BBX 16 16 0 -2
BITMAP
4880
2B78
2C84
28A4
0728
08FC
2812
2FD2
2A54
3250
5FDE
4250
4550
4570
8890
910E
ENDCHAR
STARTCHAR 51E0
ENCODING 20960
SWIDTH 960 0
DWIDTH 16 0
BBX 16 16 0 -2
BITMAP
0000
07C0
0820
0820
0820
0820
0820
0820
0820
0820
0820
0822
1022
1022
2022
C01C
ENDCHAR
STARTCHAR 51E1
ENCODING 20961
SWIDTH 960 0
DWIDTH 16 0
BBX 16 16 0 -2
BITMAP
0000
0FC0
1020
1020
1020
1420
1220
1220
1120
1120
1120
1022
2022
2022
4022
801C
ENDCHAR
STARTCHAR 51E6
ENCODING 20966
SWIDTH 960 0
DWIDTH 16 0
BBX 16 16 0 -2
BITMAP
2000
2060
2090
3890
2490
2490
4490
4490
A890
2892
1112
1112
2A12
240C
4300
80FE
ENDCHAR
STARTCHAR 51E7
ENCODING 20967
SWIDTH 960 0
DWIDTH 16 0
BBX 16 16 0 -2
BITMAP
0000
1FF0
2008
2108
2108
27C8
2928
2928
2928
2928
2928
292A
292A
49CA
410A
8104
ENDCHAR
STARTCHAR 51E9
ENCODING 20969
SWIDTH 960 0
DWIDTH 16 0
BBX 16 16 0 -2
BITMAP
0000
1FF0
2008
2108
2108
2108
2FE8
2108
2388
2548
2548
2928
2928
4104
4104
8002
ENDCHAR
STARTCHAR 51EA
ENCODING 20970
SWIDTH 960 0
DWIDTH 16 0
BBX 16 16 0 -2
BITMAP
0000
1FF0
2008
2108
2508
2508
25E8
2508
2508
2508
2508
250A
250A
5FFA
400A
8004
ENDCHAR
STARTCHAR 51ED
ENCODING 20973
SWIDTH 960 0
DWIDTH 16 0
BBX 16 16 0 -2
BITMAP
081C
0BE0
1040
37FE
5040
9040
13FC
1000
07C0
0820
0820
0820
0822
1022
2022
C01C
ENDCHAR
STARTCHAR 51F0
ENCODING 20976
SWIDTH 960 0
DWIDTH 16 0
BBX 16 16 0 -2
BITMAP
0000
1FF0
2108
2108
2388
2448
27C8
2448
2388
2008
2FE8
2108
27C8
4104
5FF4
8002
ENDCHAR
STARTCHAR 51F1
ENCODING 20977
SWIDTH 960 0
DWIDTH 16 0
BBX 16 16 0 -2
BITMAP
0800
4930
4948
3E48
0048
FFC8
0048
3E48
4148
4148
3E48
424A
254A
2E8A
F08A
0304
ENDCHAR
STARTCHAR 51F5
ENCODING 20981
SWIDTH 960 0
DWIDTH 16 0
BBX 16 16 0 -2
BITMAP
4004
4004
4004
4004
4004
4004
4004
4004
4004
4004
4004
4004
4004
4004
3FF8
0000
ENDCHAR
STARTCHAR 51F6
ENCODING 20982
SWIDTH 960 0
DWIDTH 16 0
BBX 16 16 0 -2
BITMAP
0020
4024
4024
4844
4444
4284
4104
4184
4244
4244
4424
4814
5014
4004
3FF8
0000
ENDCHAR
STARTCHAR 51F8
ENCODING 20984
SWIDTH 960 0
DWIDTH 16 0
BBX 16 16 0 -2
BITMAP
0000
0380
0440
0440
0440
0440
0440
3838
4004
4004
4004
4004
4004
4004
3FF8
0000
ENDCHAR
STARTCHAR 51F9
ENCODING 20985
SWIDTH 960 0
DWIDTH 16 0
BBX 16 16 0 -2
BITMAP
0000
3838
4444
4444
4444
4444
4444
4444
4444
4384
4004
4004
4004
4004
3FF8
0000
ENDCHAR
STARTCHAR 51FA
ENCODING 20986
SWIDTH 960 0
DWIDTH 16 0
BBX 16 16 0 -2
BITMAP
0100
2108
2108
2108
2108
2108
1FF0
0100
0100
4104
4104
4104
4104
4104
3FF8
0000
ENDCHAR
STARTCHAR 51FD
ENCODING 20989
SWIDTH 960 0
DWIDTH 16 0
BBX 16 16 0 -2
BITMAP
0000
FFFE
0400
0400
4314
5894
44A4
4484
41C4
46A4
5894
4094
4704
4004
3FF8
0000
ENDCHAR
STARTCHAR 51FE
ENCODING 20990
SWIDTH 960 0
DWIDTH 16 0
BBX 16 16 0 -2
BITMAP
0000
3FE0
0020
0240
4184
4904
55E4
5594
5564
5524
4954
4194
4614
4004
3FF8
0000
ENDCHAR
STARTCHAR 5200
ENCODING 20992
SWIDTH 960 0
DWIDTH 16 0
BBX 16 16 0 -2
BITMAP
0000
FFF8
0204
0204
0204
0204
0204
0204
0204
0404
0404
0804
0808
1008
2110
C0E0
ENDCHAR
STARTCHAR 5203
ENCODING 20995
SWIDTH 960 0
DWIDTH 16 0
BBX 16 16 0 -2
BITMAP
0000
FFF8
0204
0204
1204
0A04
0604
0204
0304
0284
0484
0444
0848
1008
2110
C0E0
ENDCHAR
STARTCHAR 5204
ENCODING 20996
SWIDTH 960 0
DWIDTH 16 0
BBX 16 16 0 -2
BITMAP
0000
0000
7FF0
0108
1108
0908
0908
0608
0208
0310
04D0
0438
0826
1020
2640
C180
ENDCHAR
STARTCHAR 5206
ENCODING 20998
SWIDTH 960 0
DWIDTH 16 0
BBX 16 16 0 -2
BITMAP
0480
0480
0440
0840
0820
1010
2008
DFF6
0208
0208
0208
0408
0408
0810
3110
C0E0
ENDCHAR
STARTCHAR 5207
ENCODING 20999
SWIDTH 960 0
DWIDTH 16 0
BBX 16 16 0 -2
BITMAP
2000
2000
27FC
2042
2642
3842
E042
2042
2042
2242
2242
2282
1C84
0104
0208
0C70
ENDCHAR
STARTCHAR 5208
ENCODING 21000
SWIDTH 960 0
DWIDTH 16 0
BBX 16 16 0 -2
BITMAP
0204
0224
0224
0224
C224
2224
1424
0C24
0424
0A24
0924
1104
2084
4084
8004
0038
ENDCHAR
STARTCHAR 520A
ENCODING 21002
SWIDTH 960 0
DWIDTH 16 0
BBX 16 16 0 -2
BITMAP
0002
7F22
0822
0822
0822
0822
0822
FFA2
0822
0822
0822
0822
0802
0802
0802
081C
ENDCHAR
STARTCHAR 520B
ENCODING 21003
SWIDTH 960 0
DWIDTH 16 0
BBX 16 16 0 -2
BITMAP
0184
0E04
F844
0844
0844
0844
FFC4
0844
0844
0844
0844
1044
1004
2004
4004
8018
ENDCHAR
STARTCHAR 520E
ENCODING 21006
SWIDTH 960 0
DWIDTH 16 0
BBX 16 16 0 -2
BITMAP
1004
1004
2024
3F24
52A4
92A4
24A4
24A4
48A4
88A4
1124
2104
4204
0204
2404
1818
ENDCHAR
STARTCHAR 5211
ENCODING 21009
SWIDTH 960 0
DWIDTH 16 0
BBX 16 16 0 -2
BITMAP
0002
FFA2
2222
2222
2222
2222
2222
FFE2
2222
2222
2222
2222
2222
4202
4202
821C
ENDCHAR
STARTCHAR 5214
ENCODING 21012
SWIDTH 960 0
DWIDTH 16 0
BBX 16 16 0 -2
BITMAP
0804
0804
0824
7F24
08A4
08A4
08A4
FFE4
0824
0824
1424
1224
2104
2104
4004
8018
ENDCHAR
STARTCHAR 5217
ENCODING 21015
SWIDTH 960 0
DWIDTH 16 0
BBX 16 16 0 -2
BITMAP
0002
FFA2
1022
1022
1E22
1122
2122
2122
5222
8A22
0422
0422
0802
1002
2002
C01C
ENDCHAR
STARTCHAR 521D
ENCODING 21021
SWIDTH 960 0
DWIDTH 16 0
BBX 16 16 0 -2
BITMAP
1000
1000
17FC
F842
0442
0442
0842
1642
3842
5442
9482
1082
1084
1104
1208
1C70
ENDCHAR
STARTCHAR 5224
ENCODING 21028
SWIDTH 960 0
DWIDTH 16 0
BBX 16 16 0 -2
BITMAP
0802
4922
4922
2922
2A22
0822
7F22
0822
0822
0822
FFA2
0822
0802
0802
0802
081C
ENDCHAR
STARTCHAR 5225
ENCODING 21029
SWIDTH 960 0
DWIDTH 16 0
BBX 16 16 0 -2
BITMAP
0002
3E22
4122
4122
4122
4122
3E22
1022
1022
1E22
1122
1122
2102
2102
4202
9C1C
ENDCHAR
STARTCHAR 5227
ENCODING 21031
SWIDTH 960 0
DWIDTH 16 0
BBX 16 16 0 -2
BITMAP
1000
1000
11F8
7E44
1044
1044
1044
FF44
1044
2844
2444
4484
9A84
E288
0148
0630
ENDCHAR
STARTCHAR 5229
ENCODING 21033
SWIDTH 960 0
DWIDTH 16 0
BBX 16 16 0 -2
BITMAP
0082
0722
F822
0822
0822
FFA2
0822
1C22
1A22
2922
2922
4822
8802
0802
0802
081C
ENDCHAR
STARTCHAR 522A
ENCODING 21034
SWIDTH 960 0
DWIDTH 16 0
BBX 16 16 0 -2
BITMAP
0002
3F92
4A52
4A52
4A52
4A52
4A52
FFF2
4A52
4A52
4A52
4A52
4A42
4A42
4A42
418C
ENDCHAR
STARTCHAR 522E
ENCODING 21038
SWIDTH 960 0
DWIDTH 16 0
BBX 16 16 0 -2
BITMAP
0184
0E04
F824
0824
0824
FFA4
0824
0824
0824
3E24
4124
4124
4104
4104
3E04
0018
ENDCHAR
STARTCHAR 5230
ENCODING 21040
SWIDTH 960 0
DWIDTH 16 0
BBX 16 16 0 -2
BITMAP
0002
FFA2
2022
4422
8222
8F22
7122
1022
1022
FF22
1022
1022
1002
1F02
F002
001C
ENDCHAR
STARTCHAR 5233
ENCODING 21043
SWIDTH 960 0
DWIDTH 16 0
BBX 16 16 0 -2
BITMAP
0804
0804
FFA4
1424
2224
4124
BEA4
0024
FFA4
2024
2024
1E24
0104
0104
0204
1C18
ENDCHAR
STARTCHAR 5236
ENCODING 21046
SWIDTH 960 0
DWIDTH 16 0
BBX 16 16 0 -2
BITMAP
4802
4822
7FA2
4822
8822
FFA2
0822
0822
3F22
48A2
48A2
48A2
48A2
4F02
0802
081C
ENDCHAR
STARTCHAR 5237
ENCODING 21047
SWIDTH 960 0
DWIDTH 16 0
BBX 16 16 0 -2
BITMAP
0002
3F92
4052
4052
4052
7F92
4212
4212
4F92
5252
5252
5252
5242
5382
8202
021C
ENDCHAR
STARTCHAR 5238
ENCODING 21048
SWIDTH 960 0
DWIDTH 16 0
BBX 16 16 0 -2
BITMAP
1110
0910
0920
7FFC
0280
0440
FFFE
0820
1010
3FE8
C216
0210
0410
0410
1A20
61C0
ENDCHAR
STARTCHAR 5239
ENCODING 21049
SWIDTH 960 0
DWIDTH 16 0
BBX 16 16 0 -2
BITMAP
0204
6204
1424
0C24
1224
2924
C924
0824
FFA4
0824
1C24
2A24
4904
8904
0804
0818
ENDCHAR
STARTCHAR 523A
ENCODING 21050
SWIDTH 960 0
DWIDTH 16 0
BBX 16 16 0 -2
BITMAP
0802
0822
FFA2
0822
0822
3F22
48A2
48A2
48A2
4B22
1C22
2A22
2902
4902
8802
081C
ENDCHAR
STARTCHAR 523B
ENCODING 21051
SWIDTH 960 0
DWIDTH 16 0
BBX 16 16 0 -2
BITMAP
0802
0822
0822
FFE2
0822
5222
2222
1422
0922
1122
2222
C422
0A02
1102
2082
C09C
ENDCHAR
STARTCHAR 5243
ENCODING 21059
SWIDTH 960 0
DWIDTH 16 0
BBX 16 16 0 -2
BITMAP
4202
2212
2412
FF12
0892
0892
7F12
8812
8812
7F92
1852
2852
2842
4882
8F02
081C
ENDCHAR
STARTCHAR 5244
ENCODING 21060
SWIDTH 960 0
DWIDTH 16 0
BBX 16 16 0 -2
BITMAP
0004
FF84
24A4
24A4
4924
9224
4924
24A4
24A4
FFA4
0824
0824
0984
0E04
F004
0018
ENDCHAR
STARTCHAR 5247
ENCODING 21063
SWIDTH 960 0
DWIDTH 16 0
BBX 16 16 0 -2
BITMAP
0002
3E22
4122
4122
7F22
4122
4122
7F22
4122
4122
4122
3E22
0402
2202
4102
811C
ENDCHAR
STARTCHAR 524A
ENCODING 21066
SWIDTH 960 0
DWIDTH 16 0
BBX 16 16 0 -2
BITMAP
8882
48A2
4922
0822
3E22
4122
4122
7F22
4122
4122
7F22
4122
4102
4102
4102
4E1C
ENDCHAR
STARTCHAR 524B
ENCODING 21067
SWIDTH 960 0
DWIDTH 16 0
BBX 16 16 0 -2
BITMAP
0804
0804
FFA4
0824
0824
3E24
4124
4124
4124
3E24
1404
1404
2418
2402
4402
83FC
ENDCHAR
STARTCHAR 524C
ENCODING 21068
SWIDTH 960 0
DWIDTH 16 0
BBX 16 16 0 -2
BITMAP
0804
0804
FFA4
0824
3E24
4924
4924
4924
3E24
0824
1C24
2A24
2904
4904
8804
0818
ENDCHAR
STARTCHAR 524D
ENCODING 21069
SWIDTH 960 0
DWIDTH 16 0
BBX 16 16 0 -2
BITMAP
0820
0440
FFFE
0000
3C04
4244
4244
7E44
4244
4244
7E44
4244
4204
4204
4204
5C38
ENDCHAR
STARTCHAR 524F
ENCODING 21071
SWIDTH 960 0
DWIDTH 16 0
BBX 16 16 0 -2
BITMAP
4400
4400
29F8
FF24
2424
24A4
24A4
24A4
FF44
2444
2464
2498
248E
4508
4548
8630
ENDCHAR
STARTCHAR 5254
ENCODING 21076
SWIDTH 960 0
DWIDTH 16 0
BBX 16 16 0 -2
BITMAP
0004
3E04
4124
7F24
4124
4124
3E24
1024
3F24
CAA4
12A4
64A4
0884
1104
6904
0618
ENDCHAR
STARTCHAR 5256
ENCODING 21078
SWIDTH 960 0
DWIDTH 16 0
BBX 16 16 0 -2
BITMAP
0802
0822
7F22
2222
2222
1422
FFA2
0022
0022
3E22
4122
4122
4102
4102
3E02
001C
ENDCHAR
STARTCHAR 525B
ENCODING 21083
SWIDTH 960 0
DWIDTH 16 0
BBX 16 16 0 -2
BITMAP
0004
7F24
80A4
A2A4
92A4
94A4
FFA4
88A4
AAA4
AAA4
AAA4
AAA4
AA84
9C84
8084
8738
ENDCHAR
STARTCHAR 525E
ENCODING 21086
SWIDTH 960 0
DWIDTH 16 0
BBX 16 16 0 -2
BITMAP
0804
0804
FFA4
0824
1424
2224
4124
FFE4
0124
3124
4924
4924
4904
3104
0104
0618
ENDCHAR
STARTCHAR 5263
ENCODING 21091
SWIDTH 960 0
DWIDTH 16 0
BBX 16 16 0 -2
BITMAP
0802
0812
1412
2212
5D12
88D2
3F12
4892
4892
4892
3F12
0812
1402
1202
2102
C11C
ENDCHAR
STARTCHAR 5264
ENCODING 21092
SWIDTH 960 0
DWIDTH 16 0
BBX 16 16 0 -2
BITMAP
0802
0812
FFD2
2112
1212
0C12
3312
E1D2
3F12
2112
2112
3F12
2102
2102
4102
811C
ENDCHAR
STARTCHAR 5265
ENCODING 21093
SWIDTH 960 0
DWIDTH 16 0
BBX 16 16 0 -2
BITMAP
0002
7E22
0122
7F22
0122
0122
FFE2
0422
44A2
24A2
2522
0E22
3522
C482
0442
381C
ENDCHAR
STARTCHAR 5269
ENCODING 21097
SWIDTH 960 0
DWIDTH 16 0
BBX 16 16 0 -2
BITMAP
0384
FC04
0824
FFA4
0824
2AA4
EB24
2A24
6AA4
A9A4
1C24
2A24
2904
4884
8804
0818
ENDCHAR
STARTCHAR 526A
ENCODING 21098
SWIDTH 960 0
DWIDTH 16 0
BBX 16 16 0 -2
BITMAP
0820
0440
FFFE
0000
3C44
4244
7E44
4244
7E04
4218
0000
FFFC
0202
0402
1804
E038
ENDCHAR
STARTCHAR 526F
ENCODING 21103
SWIDTH 960 0
DWIDTH 16 0
BBX 16 16 0 -2
BITMAP
0002
FF92
0012
3E12
4112
4112
3E12
0012
7F12
8892
8892
FF92
8882
8882
7F02
001C
ENDCHAR
STARTCHAR 5270
ENCODING 21104
SWIDTH 960 0
DWIDTH 16 0
BBX 16 16 0 -2
BITMAP
0182
FE22
0822
0822
FFA2
4922
4922
FFE2
4922
4922
FFA2
2C22
2A22
4902
8902
081C
ENDCHAR
STARTCHAR 5271
ENCODING 21105
SWIDTH 960 0
DWIDTH 16 0
BBX 16 16 0 -2
BITMAP
0800
0800
15F8
2224
5D24
88A4
3EA4
4964
4924
3E24
0854
144C
1286
2288
4148
8230
ENDCHAR
STARTCHAR 5272
ENCODING 21106
SWIDTH 960 0
DWIDTH 16 0
BBX 16 16 0 -2
BITMAP
0804
0804
7F24
88A4
88A4
7F24
0824
7F24
0824
FFA4
0024
3E24
4104
4104
3E04
0038
ENDCHAR
STARTCHAR 5273
ENCODING 21107
SWIDTH 960 0
DWIDTH 16 0
BBX 16 16 0 -2
BITMAP
2204
2204
FFA4
2224
2224
0C24
1224
2124
3EA4
40A4
9E24
2124
2104
2104
1E04
0018
ENDCHAR
STARTCHAR 5274
ENCODING 21108
SWIDTH 960 0
DWIDTH 16 0
BBX 16 16 0 -2
BITMAP
0804
4904
4924
4924
3E24
0024
FFA4
0024
3E24
4124
4124
3E24
2204
2404
1F84
F018
ENDCHAR
STARTCHAR 5275
ENCODING 21109
SWIDTH 960 0
DWIDTH 16 0
BBX 16 16 0 -2
BITMAP
0802
1412
1212
2D12
2092
5F12
A092
3F92
2092
3F12
4012
5F12
A082
2082
1F02
001C
ENDCHAR
STARTCHAR 527D
ENCODING 21117
SWIDTH 960 0
DWIDTH 16 0
BBX 16 16 0 -2
BITMAP
0004
FFC4
1424
3E24
5524
5524
3E24
0024
7F24
0024
FFA4
0824
4A04
4904
8904
3018
ENDCHAR
STARTCHAR 527F
ENCODING 21119
SWIDTH 960 0
DWIDTH 16 0
BBX 16 16 0 -2
BITMAP
9084
4904
4A24
3E24
4924
7F24
4924
3E24
0824
FFA4
1C24
2A24
2904
4884
8804
0818
ENDCHAR
STARTCHAR 5283
ENCODING 21123
SWIDTH 960 0
DWIDTH 16 0
BBX 16 16 0 -2
BITMAP
0804
0824
7E24
0924
FFA4
0924
7E24
0824
FFA4
4924
7F24
4924
3E04
0004
FFC4
0038
ENDCHAR
STARTCHAR 5287
ENCODING 21127
SWIDTH 960 0
DWIDTH 16 0
BBX 16 16 0 -2
BITMAP
0802
0F92
0812
3F92
5052
7F52
5092
4F12
4012
7FD2
4492
5A92
4702
7A82
8242
1C1C
ENDCHAR
STARTCHAR 5288
ENCODING 21128
SWIDTH 960 0
DWIDTH 16 0
BBX 16 16 0 -2
BITMAP
0020
3C20
43FC
7C88
4050
5DFE
A220
A2FC
1C20
0020
7FF8
0204
0204
0404
1808
E070
ENDCHAR
STARTCHAR 5289
ENCODING 21129
SWIDTH 960 0
DWIDTH 16 0
BBX 16 16 0 -2
BITMAP
0802
3792
4252
5252
4A52
5C52
E992
1612
2112
7ED2
8812
FF92
4902
2A02
2F82
F01C
ENDCHAR
STARTCHAR 528D
ENCODING 21133
SWIDTH 960 0
DWIDTH 16 0
BBX 16 16 0 -2
BITMAP
0804
1404
1224
2124
20A4
5EA4
8024
3124
4AA4
4AA4
3124
2104
3184
4A44
4244
8C18
ENDCHAR
STARTCHAR 5291
ENCODING 21137
SWIDTH 960 0
DWIDTH 16 0
BBX 16 16 0 -2
BITMAP
0402
FFE2
1112
0A52
F592
5552
5532
55D2
A492
2092
3F92
2092
3F82
2082
4082
808C
ENDCHAR
STARTCHAR 5292
ENCODING 21138
SWIDTH 960 0
DWIDTH 16 0
BBX 16 16 0 -2
BITMAP
0800
0800
15F8
1224
2324
5CA4
80A4
2264
5524
5524
2254
2254
2344
5488
4948
9230
ENDCHAR
STARTCHAR 5294
ENCODING 21140
SWIDTH 960 0
DWIDTH 16 0
BBX 16 16 0 -2
BITMAP
0800
0800
15F8
1224
2324
5CA4
80A4
2264
5524
5524
2254
224C
2346
5488
4948
9230
ENDCHAR
STARTCHAR 529B
ENCODING 21147
SWIDTH 960 0
DWIDTH 16 0
BBX 16 16 0 -2
BITMAP
0200
0200
0200
0200
FFF8
0204
0204
0204
0204
0404
0404
0404
0808
1008
2110
C0E0
ENDCHAR
STARTCHAR 529F
ENCODING 21151
SWIDTH 960 0
DWIDTH 16 0
BBX 16 16 0 -2
BITMAP
0040
0040
0040
FE40
11FC
1042
1042
1042
1042
1682
1882
E082
0102
0104
0244
0C38
ENDCHAR
STARTCHAR 52A0
ENCODING 21152
SWIDTH 960 0
DWIDTH 16 0
BBX 16 16 0 -2
BITMAP
1000
1000
1000
103C
FE42
1142
1142
1142
1142
1142
1142
2142
2142
2242
423C
9C00
ENDCHAR
STARTCHAR 52A3
ENCODING 21155
SWIDTH 960 0
DWIDTH 16 0
BBX 16 16 0 -2
BITMAP
0100
0930
1108
2104
CE32
00C0
0F00
F100
0100
7FF8
0104
0204
0204
0404
1888
E070
ENDCHAR
STARTCHAR 52A9
ENCODING 21161
SWIDTH 960 0
DWIDTH 16 0
BBX 16 16 0 -2
BITMAP
0040
0040
3840
4440
47FC
7C42
4442
4442
4442
7C42
4482
4482
4E82
7104
C244
0C38
ENDCHAR
STARTCHAR 52AA
ENCODING 21162
SWIDTH 960 0
DWIDTH 16 0
BBX 16 16 0 -2
BITMAP
2000
2000
FDF8
2284
C448
2830
1858
2586
C500
7FF8
0104
0204
0204
0404
1888
E070
ENDCHAR
STARTCHAR 52AB
ENCODING 21163
SWIDTH 960 0
DWIDTH 16 0
BBX 16 16 0 -2
BITMAP
1020
1020
1020
FE20
11FC
1022
1022
FF22
2022
2022
4822
4442
8642
9A44
6084
0338
ENDCHAR
STARTCHAR 52AC
ENCODING 21164
SWIDTH 960 0
DWIDTH 16 0
BBX 16 16 0 -2
BITMAP
2020
2020
2020
3E20
41FC
4122
B922
4522
4522
4522
4522
3942
0242
0284
0524
1A18
ENDCHAR
STARTCHAR 52AD
ENCODING 21165
SWIDTH 960 0
DWIDTH 16 0
BBX 16 16 0 -2
BITMAP
0020
FC20
1220
1220
23F8
2224
5224
8C24
0024
3844
4444
4444
4484
4488
3948
0230
ENDCHAR
STARTCHAR 52B1
ENCODING 21169
SWIDTH 960 0
DWIDTH 16 0
BBX 16 16 0 -2
BITMAP
0020
3FA0
4020
4020
7FFC
5022
5022
5E22
5122
5122
5122
5122
5142
5144
A284
5D38
ENDCHAR
STARTCHAR 52B4
ENCODING 21172
SWIDTH 960 0
DWIDTH 16 0
BBX 16 16 0 -2
BITMAP
2208
1108
0110
7FFC
8002
8202
0200
FFF8
0204
0204
0204
0404
0404
0808
3088
C070
ENDCHAR
STARTCHAR 52B5
ENCODING 21173
SWIDTH 960 0
DWIDTH 16 0
BBX 16 16 0 -2
BITMAP
1110
1110
0920
7FFC
0280
0440
FFFE
0820
1210
2208
DFE6
0210
0410
0410
1920
60C0
ENDCHAR
STARTCHAR 52B9
ENCODING 21177
SWIDTH 960 0
DWIDTH 16 0
BBX 16 16 0 -2
BITMAP
1020
1020
1020
FF20
28FC
2422
4322
A422
1422
0842
0842
1442
1282
2284
4144
8238
ENDCHAR
STARTCHAR 52BC
ENCODING 21180
SWIDTH 960 0
DWIDTH 16 0
BBX 16 16 0 -2
BITMAP
1020
1020
1020
FF20
10F8
1024
1024
7E24
0024
3844
4444
4444
4484
4488
3948
0230
ENDCHAR
STARTCHAR 52BE
ENCODING 21182
SWIDTH 960 0
DWIDTH 16 0
BBX 16 16 0 -2
BITMAP
1020
1020
1020
FF20
10FC
1222
A222
4422
2922
1122
2222
4422
8842
1444
2284
C338
ENDCHAR
STARTCHAR 52C1
ENCODING 21185
SWIDTH 960 0
DWIDTH 16 0
BBX 16 16 0 -2
BITMAP
0020
FFA0
0020
4920
49FC
9222
4922
4922
0022
FF22
0822
0842
0B42
1C44
E0A4
0118
ENDCHAR
STARTCHAR 52C3
ENCODING 21187
SWIDTH 960 0
DWIDTH 16 0
BBX 16 16 0 -2
BITMAP
0820
0820
FF20
0820
09FC
7E22
8122
BD22
0222
2422
1F22
E822
0842
0844
0884
7338
ENDCHAR
STARTCHAR 52C5
ENCODING 21189
SWIDTH 960 0
DWIDTH 16 0
BBX 16 16 0 -2
BITMAP
0820
0820
FFA0
0820
09FC
3E22
4922
4922
4922
3E22
1C22
2A22
2942
4944
8884
0B38
ENDCHAR
STARTCHAR 52C7
ENCODING 21191
SWIDTH 960 0
DWIDTH 16 0
BBX 16 16 0 -2
BITMAP
0000
7FF0
0408
0210
3FF8
4104
7FFC
4104
3FF8
0100
FFF8
0204
0204
0404
1888
E070
ENDCHAR
STARTCHAR 52C9
ENCODING 21193
SWIDTH 960 0
DWIDTH 16 0
BBX 16 16 0 -2
BITMAP
2040
2040
7040
4840
8BF8
7C44
9244
9244
9244
7C44
2884
2888
290A
2E72
4802
87FC
ENDCHAR
STARTCHAR 52CD
ENCODING 21197
SWIDTH 960 0
DWIDTH 16 0
BBX 16 16 0 -2
BITMAP
0820
0820
FFA0
0020
00FC
3E22
4122
4122
4122
3E22
0842
2A42
2942
4884
88A4
3118
ENDCHAR
STARTCHAR 52D2
ENCODING 21202
SWIDTH 960 0
DWIDTH 16 0
BBX 16 16 0 -2
BITMAP
4420
4420
FF20
4420
39FC
1022
7C22
9222
9222
9222
7C42
1042
FF42
1084
1084
1138
ENDCHAR
STARTCHAR 52D5
ENCODING 21205
SWIDTH 960 0
DWIDTH 16 0
BBX 16 16 0 -2
BITMAP
0320
FC20
0820
FFA0
08FC
7E22
8922
FF22
8922
7E22
0822
FFA2
0842
0F44
F084
0338
ENDCHAR
STARTCHAR 52D7
ENCODING 21207
SWIDTH 960 0
DWIDTH 16 0
BBX 16 16 0 -2
BITMAP
0000
0FF0
1008
1FF8
1008
0FF0
0020
1C20
23FC
3E22
2222
3E22
2242
3F42
E0A4
0318
ENDCHAR
STARTCHAR 52D8
ENCODING 21208
SWIDTH 960 0
DWIDTH 16 0
BBX 16 16 0 -2
BITMAP
2220
2220
FFA0
2220
3EFC
2222
3E22
2222
2222
FFA2
5422
5422
6342
4044
3F84
0138
ENDCHAR
STARTCHAR 52D9
ENCODING 21209
SWIDTH 960 0
DWIDTH 16 0
BBX 16 16 0 -2
BITMAP
0080
F880
04FE
4588
2A50
1020
FC50
1388
3246
3C40
53F8
5084
9084
1104
1208
EC70
ENDCHAR
STARTCHAR 52DD
ENCODING 21213
SWIDTH 960 0
DWIDTH 16 0
BBX 16 16 0 -2
BITMAP
0248
3148
4950
4BFC
4840
7840
4FFE
4890
4948
7E46
4BF8
4844
4884
4884
4908
B670
ENDCHAR
STARTCHAR 52DE
ENCODING 21214
SWIDTH 960 0
DWIDTH 16 0
BBX 16 16 0 -2
BITMAP
0820
4AA4
4AA4
2928
1450
2288
7FFC
8102
8102
3FF0
0208
0208
0408
0808
1090
6060
ENDCHAR
STARTCHAR 52DF
ENCODING 21215
SWIDTH 960 0
DWIDTH 16 0
BBX 16 16 0 -2
BITMAP
0820
FFFE
0820
1FF0
2008
3FF8
2008
1FF0
0200
FFFE
1220
3FF8
C216
0410
0A20
71C0
ENDCHAR
STARTCHAR 52E0
ENCODING 21216
SWIDTH 960 0
DWIDTH 16 0
BBX 16 16 0 -2
BITMAP
0010
E710
1090
D690
31FC
D692
1892
1412
2A12
C992
1412
6522
0922
7244
0CA4
F118
ENDCHAR
STARTCHAR 52E2
ENCODING 21218
SWIDTH 960 0
DWIDTH 16 0
BBX 16 16 0 -2
BITMAP
1040
7C40
11F0
FE48
2948
4EC8
904A
FCAA
1124
3D00
C100
3FF8
0204
0404
1808
E070
ENDCHAR
STARTCHAR 52E3
ENCODING 21219
SWIDTH 960 0
DWIDTH 16 0
BBX 16 16 0 -2
BITMAP
0820
7F20
0820
3E20
09FC
FF22
0022
3E22
4122
7F22
4122
7F22
4142
3E44
24A4
C318
ENDCHAR
STARTCHAR 52E4
ENCODING 21220
SWIDTH 960 0
DWIDTH 16 0
BBX 16 16 0 -2
BITMAP
4420
FF20
4420
0020
7DFC
9222
9222
7C22
1022
FF22
1022
FF42
1042
1F44
F084
0138
ENDCHAR
STARTCHAR 52E6
ENCODING 21222
SWIDTH 960 0
DWIDTH 16 0
BBX 16 16 0 -2
BITMAP
9120
4920
4A20
3E20
49F8
7F24
4924
3E24
0824
FFA4
0844
1C44
2B44
4888
8948
0A30
ENDCHAR
STARTCHAR 52E7
ENCODING 21223
SWIDTH 960 0
DWIDTH 16 0
BBX 16 16 0 -2
BITMAP
2020
2020
7F20
5020
91FC
FF22
2422
4822
7FA2
C822
7F22
4822
7F42
4844
3F84
0138
ENDCHAR
STARTCHAR 52F2
ENCODING 21234
SWIDTH 960 0
DWIDTH 16 0
BBX 16 16 0 -2
BITMAP
0320
7C20
0820
FF20
08FC
7E22
8922
FF22
8922
7E42
0842
FF84
0838
FF88
2844
C622
ENDCHAR
STARTCHAR 52F3
ENCODING 21235
SWIDTH 960 0
DWIDTH 16 0
BBX 16 16 0 -2
BITMAP
0310
FC10
0810
FF10
08FC
3E12
4912
7F12
4912
3E22
0822
7F22
0842
FFC4
54A4
9518
ENDCHAR
STARTCHAR 52F5
ENCODING 21237
SWIDTH 960 0
DWIDTH 16 0
BBX 16 16 0 -2
BITMAP
0010
3FD0
4010
4A10
7FFC
4A12
4F12
5492
5F92
5492
4F12
4412
9F92
A464
AF44
2198
ENDCHAR
STARTCHAR 52F8
ENCODING 21240
SWIDTH 960 0
DWIDTH 16 0
BBX 16 16 0 -2
BITMAP
2220
FFA0
2220
7720
55F8
7724
2424
2824
7F24
C824
7F24
4844
7F44
4888
3F48
0130
ENDCHAR
STARTCHAR 52F9
ENCODING 21241
SWIDTH 960 0
DWIDTH 16 0
BBX 16 16 0 -2
BITMAP
1000
1000
1000
1FF8
2004
2004
4004
8004
0004
0004
0004
0004
0008
0008
0110
00E0
ENDCHAR
STARTCHAR 52FA
ENCODING 21242
SWIDTH 960 0
DWIDTH 16 0
BBX 16 16 0 -2
BITMAP
1000
1000
1000
3FF8
2004
4004
9004
0804
0404
0204
0204
0004
0008
0008
0010
00E0
ENDCHAR
STARTCHAR 52FE
ENCODING 21246
SWIDTH 960 0
DWIDTH 16 0
BBX 16 16 0 -2
BITMAP
1000
1000
1000
1FFC
2002
2402
4402
8802
0902
1082
2042
23E2
1C24
0004
0088
0070
ENDCHAR
STARTCHAR 52FF
ENCODING 21247
SWIDTH 960 0
DWIDTH 16 0
BBX 16 16 0 -2
BITMAP
1000
1000
1000
1FF8
2244
2244
4444
8444
0884
1084
6104
0204
0C08
3008
0110
00E0
ENDCHAR
STARTCHAR 5301
ENCODING 21249
SWIDTH 960 0
DWIDTH 16 0
BBX 16 16 0 -2
BITMAP
1000
1000
1FF8
1084
2084
2884
4904
8504
0204
0508
0888
1068
6018
0016
0220
01C0
ENDCHAR
STARTCHAR 5302
ENCODING 21250
SWIDTH 960 0
DWIDTH 16 0
BBX 16 16 0 -2
BITMAP
1000
1000
1FF8
2004
2004
5004
9084
1304
1C04
1044
1044
1044
0F88
0008
0010
00E0
ENDCHAR
STARTCHAR 5305
ENCODING 21253
SWIDTH 960 0
DWIDTH 16 0
BBX 16 16 0 -2
BITMAP
1000
1000
1FF0
2008
2008
7F88
8048
0048
0048
1F88
2010
20E0
2002
2002
2002
1FFC
ENDCHAR
STARTCHAR 5306
ENCODING 21254
SWIDTH 960 0
DWIDTH 16 0
BBX 16 16 0 -2
BITMAP
1000
1000
1FF8
2124
2124
4224
9A44
0644
1944
6084
0144
0224
0C28
3008
0110
00E0
ENDCHAR
STARTCHAR 5308
ENCODING 21256
SWIDTH 960 0
DWIDTH 16 0
BBX 16 16 0 -2
BITMAP
1000
1000
1FF8
2004
2084
78A4
A524
2224
2524
28A4
30A4
2024
1FC8
0008
0010
00E0
ENDCHAR
STARTCHAR 530D
ENCODING 21261
SWIDTH 960 0
DWIDTH 16 0
BBX 16 16 0 -2
BITMAP
1000
1000
3FF8
2244
4224
FFF4
0204
1FC4
2224
3FE4
2224
3FE4
2224
2228
22C8
0030
ENDCHAR
STARTCHAR 530F
ENCODING 21263
SWIDTH 960 0
DWIDTH 16 0
BBX 16 16 0 -2
BITMAP
1080
1080
FDF8
1104
2A04
47E4
BC14
0014
FE14
20E4
4108
7930
0502
0502
0902
30FC
ENDCHAR
STARTCHAR 5310
ENCODING 21264
SWIDTH 960 0
DWIDTH 16 0
BBX 16 16 0 -2
BITMAP
1000
1000
3FF8
2004
5FE4
8004
0F84
1044
0F84
0004
1FC4
2224
3FE4
2228
1FC8
0030
ENDCHAR
STARTCHAR 5315
ENCODING 21269
SWIDTH 960 0
DWIDTH 16 0
BBX 16 16 0 -2
BITMAP
1000
1000
1000
1000
1004
1018
1060
1380
1C00
F000
1000
1000
1002
1002
1002
0FFC
ENDCHAR
STARTCHAR 5316
ENCODING 21270
SWIDTH 960 0
DWIDTH 16 0
BBX 16 16 0 -2
BITMAP
0900
0900
0900
1100
1104
3108
5130
91C0
1100
1100
1100
1102
1102
1102
1102
10FC
ENDCHAR
STARTCHAR 5317
ENCODING 21271
SWIDTH 960 0
DWIDTH 16 0
BBX 16 16 0 -2
BITMAP
0480
0480
0480
0484
FC84
0498
04E0
0480
0480
0480
0C80
3482
C482
0482
047C
0400
ENDCHAR
STARTCHAR 5319
ENCODING 21273
SWIDTH 960 0
DWIDTH 16 0
BBX 16 16 0 -2
BITMAP
0000
3E40
4140
7F44
4144
3E48
0070
FF40
0840
4842
4842
4F42
483C
6800
5800
87FE
ENDCHAR
STARTCHAR 531A
ENCODING 21274
SWIDTH 960 0
DWIDTH 16 0
BBX 16 16 0 -2
BITMAP
0000
3FFE
4000
4000
4000
4000
4000
4000
4000
4000
4000
4000
4000
4000
3FFE
0000
ENDCHAR
STARTCHAR 531D
ENCODING 21277
SWIDTH 960 0
DWIDTH 16 0
BBX 16 16 0 -2
BITMAP
0000
3FFE
4000
4080
4080
47F0
4888
4888
4888
4888
48F0
4080
4080
4000
3FFE
0000
ENDCHAR
STARTCHAR 5320
ENCODING 21280
SWIDTH 960 0
DWIDTH 16 0
BBX 16 16 0 -2
BITMAP
0000
3FFE
4000
4038
47C0
4800
4800
4FFC
4820
4820
4820
4820
5020
4000
3FFE
0000
ENDCHAR
STARTCHAR 5321
ENCODING 21281
SWIDTH 960 0
DWIDTH 16 0
BBX 16 16 0 -2
BITMAP
0000
3FFE
4000
4000
5FFC
4080
4080
4FF8
4080
4080
4080
5FFC
4000
4000
3FFE
0000
ENDCHAR
STARTCHAR 5323
ENCODING 21283
SWIDTH 960 0
DWIDTH 16 0
BBX 16 16 0 -2
BITMAP
0000
3FFE
4000
47F0
4888
4888
4FF8
4888
4888
4888
47F0
4080
4080
4080
3FFE
0000
ENDCHAR
STARTCHAR 532A
ENCODING 21290
SWIDTH 960 0
DWIDTH 16 0
BBX 16 16 0 -2
BITMAP
0000
3FFE
4000
4240
5E7C
4240
5E40
4278
4640
5A40
427C
4440
5840
4000
3FFE
0000
ENDCHAR
STARTCHAR 532F
ENCODING 21295
SWIDTH 960 0
DWIDTH 16 0
BBX 16 16 0 -2
BITMAP
0000
3FFE
4090
48A0
45FC
5720
4920
49FC
4520
45FC
4920
4920
50FC
5000
3FFE
0000
ENDCHAR
STARTCHAR 5331
ENCODING 21297
SWIDTH 960 0
DWIDTH 16 0
BBX 16 16 0 -2
BITMAP
0000
3FFE
4080
47F0
4888
47F0
4080
7FFE
4808
4FF8
4808
47F0
4220
4410
3FFE
0000
ENDCHAR
STARTCHAR 5333
ENCODING 21299
SWIDTH 960 0
DWIDTH 16 0
BBX 16 16 0 -2
BITMAP
0000
3FFE
4080
4140
4220
4410
5BEC
4000
4630
4948
4630
4420
4A30
5148
3FFE
0000
ENDCHAR
STARTCHAR 5338
ENCODING 21304
SWIDTH 960 0
DWIDTH 16 0
BBX 16 16 0 -2
BITMAP
0000
0000
FFFE
2000
2000
2000
2000
2000
2000
2000
2000
2000
2000
2000
1FFE
0000
ENDCHAR
STARTCHAR 5339
ENCODING 21305
SWIDTH 960 0
DWIDTH 16 0
BBX 16 16 0 -2
BITMAP
0000
0000
3FFE
4480
4480
4480
4480
4484
4884
4884
5078
6000
4000
4000
3FFE
0000
ENDCHAR
STARTCHAR 533A
ENCODING 21306
SWIDTH 960 0
DWIDTH 16 0
BBX 16 16 0 -2
BITMAP
0000
3FFC
4000
4010
4810
4420
4220
4140
4080
4140
4220
4410
5810
4000
3FFE
0000
ENDCHAR
STARTCHAR 533B
ENCODING 21307
SWIDTH 960 0
DWIDTH 16 0
BBX 16 16 0 -2
BITMAP
0000
3FFC
4400
4400
47F8
4880
5080
5FFC
4080
4140
4220
4410
580C
4000
3FFE
0000
ENDCHAR
STARTCHAR 533F
ENCODING 21311
SWIDTH 960 0
DWIDTH 16 0
BBX 16 16 0 -2
BITMAP
0000
3FFE
4420
4420
5FFC
4520
4200
7FFE
4400
4BF0
7408
4408
43F0
4000
3FFE
0000
ENDCHAR
STARTCHAR 5340
ENCODING 21312
SWIDTH 960 0
DWIDTH 16 0
BBX 16 16 0 -2
BITMAP
0000
3FFE
4000
41C0
4220
4220
4220
41C0
4E38
5144
5144
5144
4E38
4000
3FFE
0000
ENDCHAR
STARTCHAR 5341
ENCODING 21313
SWIDTH 960 0
DWIDTH 16 0
BBX 16 16 0 -2
BITMAP
0100
0100
0100
0100
0100
0100
FFFE
0100
0100
0100
0100
0100
0100
0100
0100
0100
ENDCHAR
STARTCHAR 5343
ENCODING 21315
SWIDTH 960 0
DWIDTH 16 0
BBX 16 16 0 -2
BITMAP
0018
01E0
7F00
0100
0100
0100
0100
FFFE
0100
0100
0100
0100
0100
0100
0100
0100
ENDCHAR
STARTCHAR 5345
ENCODING 21317
SWIDTH 960 0
DWIDTH 16 0
BBX 16 16 0 -2
BITMAP
1108
1108
1108
1108
1108
1108
1108
FFFE
1108
1108
1108
1108
2108
2108
4108
8108
ENDCHAR
STARTCHAR 5346
ENCODING 21318
SWIDTH 960 0
DWIDTH 16 0
BBX 16 16 0 -2
BITMAP
0400
0400
0400
FFC0
0420
0420
0822
1022
211C
C100
0100
FFFE
0100
0100
0100
0100
ENDCHAR
STARTCHAR 5347
ENCODING 21319
SWIDTH 960 0
DWIDTH 16 0
BBX 16 16 0 -2
BITMAP
0190
0E10
F810
0810
0810
0810
0810
FFFE
0810
0810
0810
0810
1010
1010
2010
C010
ENDCHAR
STARTCHAR 5348
ENCODING 21320
SWIDTH 960 0
DWIDTH 16 0
BBX 16 16 0 -2
BITMAP
1000
1000
1000
1FFC
2100
2100
4100
8100
0100
FFFE
0100
0100
0100
0100
0100
0100
ENDCHAR
STARTCHAR 5349
ENCODING 21321
SWIDTH 960 0
DWIDTH 16 0
BBX 16 16 0 -2
BITMAP
0100
0100
0100
7FFC
0100
1110
1110
1110
1010
FFFE
1010
1010
2010
2010
4010
8010
ENDCHAR
STARTCHAR 534A
ENCODING 21322
SWIDTH 960 0
DWIDTH 16 0
BBX 16 16 0 -2
BITMAP
2108
1108
1110
0910
0920
0100
7FFC
0100
0100
0100
FFFE
0100
0100
0100
0100
0100
ENDCHAR
STARTCHAR 534D
ENCODING 21325
SWIDTH 960 0
DWIDTH 16 0
BBX 16 16 0 -2
BITMAP
0004
FE04
0104
0104
0104
0104
0104
3FF8
4100
4100
4100
4100
4100
4100
40FE
4000
ENDCHAR
STARTCHAR 5351
ENCODING 21329
SWIDTH 960 0
DWIDTH 16 0
BBX 16 16 0 -2
BITMAP
0200
0200
1FF0
2108
2108
3FF8
2108
2108
2108
1FF0
0840
1040
FFFE
0040
0040
0040
ENDCHAR
STARTCHAR 5352
ENCODING 21330
SWIDTH 960 0
DWIDTH 16 0
BBX 16 16 0 -2
BITMAP
0100
0100
FFFE
0820
0820
1450
1450
2288
C106
0100
FFFE
0100
0100
0100
0100
0100
ENDCHAR
STARTCHAR 5353
ENCODING 21331
SWIDTH 960 0
DWIDTH 16 0
BBX 16 16 0 -2
BITMAP
0100
0100
01FC
0100
1FF0
2008
2008
3FF8
2008
2008
1FF0
0100
FFFE
0100
0100
0100
ENDCHAR
STARTCHAR 5354
ENCODING 21332
SWIDTH 960 0
DWIDTH 16 0
BBX 16 16 0 -2
BITMAP
2080
2080
27F0
2088
F908
2108
2270
2410
2410
3F7C
2492
2492
2492
28A2
2924
36D8
ENDCHAR
STARTCHAR 5357
ENCODING 21335
SWIDTH 960 0
DWIDTH 16 0
BBX 16 16 0 -2
BITMAP
0100
0100
FFFE
0100
0100
3FF8
4824
4444
5FF4
4104
4104
5FF4
4104
4104
4104
4038
ENDCHAR
STARTCHAR 5358
ENCODING 21336
SWIDTH 960 0
DWIDTH 16 0
BBX 16 16 0 -2
BITMAP
2210
1110
0920
1FF0
2108
2108
3FF8
2108
2108
1FF0
0100
0100
FFFE
0100
0100
0100
ENDCHAR
STARTCHAR 535A
ENCODING 21338
SWIDTH 960 0
DWIDTH 16 0
BBX 16 16 0 -2
BITMAP
2048
2044
2FFE
2040
FBF8
2444
27FC
2444
2444
23F8
2010
2FFE
2210
2110
2110
20E0
ENDCHAR
STARTCHAR 535C
ENCODING 21340
SWIDTH 960 0
DWIDTH 16 0
BBX 16 16 0 -2
BITMAP
0200
0200
0200
0200
0200
0380
0260
0210
0208
0204
0200
0200
0200
0200
0200
0200
ENDCHAR
STARTCHAR 535E
ENCODING 21342
SWIDTH 960 0
DWIDTH 16 0
BBX 16 16 0 -2
BITMAP
0100
0100
0100
FFFE
0100
0100
0100
01C0
0130
0108
0104
0100
0100
0100
0100
0100
ENDCHAR
STARTCHAR 5360
ENCODING 21344
SWIDTH 960 0
DWIDTH 16 0
BBX 16 16 0 -2
BITMAP
0200
0200
0200
0200
03FC
0200
0200
0200
0200
3FF8
4004
4004
4004
4004
3FF8
0000
ENDCHAR
STARTCHAR 5366
ENCODING 21350
SWIDTH 960 0
DWIDTH 16 0
BBX 16 16 0 -2
BITMAP
0820
0820
7F20
0820
0820
FFB0
0828
0824
0822
7F22
0820
0820
0820
0FA0
F820
0020
ENDCHAR
STARTCHAR 5369
ENCODING 21353
SWIDTH 960 0
DWIDTH 16 0
BBX 16 16 0 -2
BITMAP
0000
07E0
0810
0810
0810
0810
0810
0810
0810
0810
0910
08E0
0800
0800
0800
0800
ENDCHAR
STARTCHAR 536E
ENCODING 21358
SWIDTH 960 0
DWIDTH 16 0
BBX 16 16 0 -2
BITMAP
000C
0070
1F80
2000
2000
3FFE
2000
2000
23E0
2410
2410
2410
4462
4402
8402
03FC
ENDCHAR
STARTCHAR 536F
ENCODING 21359
SWIDTH 960 0
DWIDTH 16 0
BBX 16 16 0 -2
BITMAP
0100
0600
383C
4242
4242
4242
4242
4242
4242
4642
4A42
7242
C45C
0440
0840
3040
ENDCHAR
STARTCHAR 5370
ENCODING 21360
SWIDTH 960 0
DWIDTH 16 0
BBX 16 16 0 -2
BITMAP
0100
0600
387C
4082
4082
4082
4082
7E82
4082
4082
4082
4082
4082
3EBC
0080
0080
ENDCHAR
STARTCHAR 5371
ENCODING 21361
SWIDTH 960 0
DWIDTH 16 0
BBX 16 16 0 -2
BITMAP
0800
0F80
1040
2040
5FFE
A000
23F0
2408
2408
2408
24F0
2400
4402
4402
8402
03FC
ENDCHAR
STARTCHAR 5373
ENCODING 21363
SWIDTH 960 0
DWIDTH 16 0
BBX 16 16 0 -2
BITMAP
0000
3E3C
4142
4142
7F42
4142
4142
7E42
4042
4442
4242
4242
475C
5940
E140
0040
ENDCHAR
STARTCHAR 5374
ENCODING 21364
SWIDTH 960 0
DWIDTH 16 0
BBX 16 16 0 -2
BITMAP
0800
083C
0842
7F42
0842
0842
0842
FFC2
1042
1042
2442
2242
415C
8F40
7140
0040
ENDCHAR
STARTCHAR 5375
ENCODING 21365
SWIDTH 960 0
DWIDTH 16 0
BBX 16 16 0 -2
BITMAP
0080
0300
3C3C
4242
5252
5252
4A4A
4A4A
4A4A
424A
4642
5A42
E45C
0440
0840
7040
ENDCHAR
STARTCHAR 5377
ENCODING 21367
SWIDTH 960 0
DWIDTH 16 0
BBX 16 16 0 -2
BITMAP
1110
1110
0920
7FFC
0280
0440
FFFE
0820
1010
27C8
C826
0820
08C8
0808
0808
07F0
ENDCHAR
STARTCHAR 5378
ENCODING 21368
SWIDTH 960 0
DWIDTH 16 0
BBX 16 16 0 -2
BITMAP
2000
2000
7F3C
4842
8842
FFC2
0842
0842
4F42
4842
4842
4842
4F5C
F040
0040
0040
ENDCHAR
STARTCHAR 537B
ENCODING 21371
SWIDTH 960 0
DWIDTH 16 0
BBX 16 16 0 -2
BITMAP
2400
223C
4142
8842
1442
1242
2142
4142
9C42
2242
2252
224C
2240
2240
1C40
0040
ENDCHAR
STARTCHAR 537F
ENCODING 21375
SWIDTH 960 0
DWIDTH 16 0
BBX 16 16 0 -2
BITMAP
0400
398C
4252
4A52
4BD2
4A52
4A52
4A52
4B92
4A12
5A92
EA52
125C
12D0
2750
C010
ENDCHAR
STARTCHAR 5382
ENCODING 21378
SWIDTH 960 0
DWIDTH 16 0
BBX 16 16 0 -2
BITMAP
0000
1FFE
2000
2000
2000
2000
2000
2000
2000
2000
2000
2000
2000
4000
4000
8000
ENDCHAR
STARTCHAR 5384
ENCODING 21380
SWIDTH 960 0
DWIDTH 16 0
BBX 16 16 0 -2
BITMAP
0000
1FFE
2000
2000
23F0
2408
2408
2408
2408
24F0
2400
2400
4402
4402
8402
03FC
ENDCHAR
STARTCHAR 5396
ENCODING 21398
SWIDTH 960 0
DWIDTH 16 0
BBX 16 16 0 -2
BITMAP
0000
1FFE
2280
2240
2248
3FC8
2214
2264
2388
2512
2562
2504
4918
4962
9102
60FC
ENDCHAR
STARTCHAR 5398
ENCODING 21400
SWIDTH 960 0
DWIDTH 16 0
BBX 16 16 0 -2
BITMAP
0000
1FFE
2000
27F0
2888
2888
2FF8
2888
2888
27F0
2080
2FFC
4080
4080
BFFE
0000
ENDCHAR
STARTCHAR 539A
ENCODING 21402
SWIDTH 960 0
DWIDTH 16 0
BBX 16 16 0 -2
BITMAP
0000
3FFE
4000
47F0
4808
4FF8
4808
47F0
4000
4FF0
4008
4110
7FFE
4040
8040
0380
ENDCHAR
STARTCHAR 539F
ENCODING 21407
SWIDTH 960 0
DWIDTH 16 0
BBX 16 16 0 -2
BITMAP
0000
1FFE
2080
2100
27F0
2808
2808
2FF8
2808
2808
27F0
2080
4490
4888
B086
0700
ENDCHAR
STARTCHAR 53A0
ENCODING 21408
SWIDTH 960 0
DWIDTH 16 0
BBX 16 16 0 -2
BITMAP
0000
1FFE
2000
2604
2924
2924
2F24
2924
2924
2F24
2924
2924
4624
4404
8904
3098
ENDCHAR
STARTCHAR 53A5
ENCODING 21413
SWIDTH 960 0
DWIDTH 16 0
BBX 16 16 0 -2
BITMAP
0000
1FFE
2890
2890
2520
3FFC
2242
2A92
2A94
2A90
2AA8
2728
4228
4244
8484
1902
ENDCHAR
STARTCHAR 53A6
ENCODING 21414
SWIDTH 960 0
DWIDTH 16 0
BBX 16 16 0 -2
BITMAP
0000
1FFE
2000
3FFC
2100
23E0
2410
27F0
2410
23E0
2100
23E0
4520
58C0
8330
3C0E
ENDCHAR
STARTCHAR 53A8
ENCODING 21416
SWIDTH 960 0
DWIDTH 16 0
BBX 16 16 0 -2
BITMAP
0000
3FFE
4000
4008
7F88
4008
4EFE
5108
5148
4E28
5128
4928
4A08
4B88
BC08
0070
ENDCHAR
STARTCHAR 53A9
ENCODING 21417
SWIDTH 960 0
DWIDTH 16 0
BBX 16 16 0 -2
BITMAP
0000
1FFE
2400
26FC
2950
2950
2F50
2950
29FE
2E10
2A30
2930
4B52
4D52
9892
030C
ENDCHAR
STARTCHAR 53AD
ENCODING 21421
SWIDTH 960 0
DWIDTH 16 0
BBX 16 16 0 -2
BITMAP
0000
1FFE
2000
2710
2898
2714
2014
277E
2890
2F90
28A8
2FA8
48A8
48A4
88A4
0B42
ENDCHAR
STARTCHAR 53AE
ENCODING 21422
SWIDTH 960 0
DWIDTH 16 0
BBX 16 16 0 -2
BITMAP
0000
1FFE
2000
2906
2938
3FE0
2920
2F3E
2924
2F24
2924
3FA4
4224
4944
9144
2084
ENDCHAR
STARTCHAR 53B0
ENCODING 21424
SWIDTH 960 0
DWIDTH 16 0
BBX 16 16 0 -2
BITMAP
0000
1FFE
2200
2AA0
2AA0
2220
273E
28C8
2CA8
2AA8
2A90
2A90
4CA8
48A8
88A4
0B42
ENDCHAR
STARTCHAR 53B3
ENCODING 21427
SWIDTH 960 0
DWIDTH 16 0
BBX 16 16 0 -2
BITMAP
1108
0890
3FFE
4020
5FA0
4420
7FFE
5148
5FC8
5128
5F28
5110
5110
5F28
B144
0182
ENDCHAR
STARTCHAR 53B6
ENCODING 21430
SWIDTH 960 0
DWIDTH 16 0
BBX 16 16 0 -2
BITMAP
0200
0200
0200
0200
0400
0400
0400
0400
0820
0810
0808
1004
1004
20FE
FF02
0002
ENDCHAR
STARTCHAR 53BB
ENCODING 21435
SWIDTH 960 0
DWIDTH 16 0
BBX 16 16 0 -2
BITMAP
0100
0100
0100
7FFC
0100
0100
0100
FFFE
0400
0400
0820
0810
1008
20FC
3F04
0000
ENDCHAR
STARTCHAR 53C2
ENCODING 21442
SWIDTH 960 0
DWIDTH 16 0
BBX 16 16 0 -2
BITMAP
0200
0220
0410
7FFC
0104
0200
FFFE
0440
08A0
3318
CC46
0180
3E10
0060
0380
3C00
ENDCHAR
STARTCHAR 53C3
ENCODING 21443
SWIDTH 960 0
DWIDTH 16 0
BBX 16 16 0 -2
BITMAP
0420
0410
09F8
7E14
2010
4924
F57A
0682
0440
19B0
E60E
18C0
0310
1C60
0180
1E00
ENDCHAR
STARTCHAR 53C8
ENCODING 21448
SWIDTH 960 0
DWIDTH 16 0
BBX 16 16 0 -2
BITMAP
0000
0000
FFF0
1008
1008
1008
0810
0810
0420
0440
0280
0100
0280
0C60
3018
C006
ENDCHAR
STARTCHAR 53C9
ENCODING 21449
SWIDTH 960 0
DWIDTH 16 0
BBX 16 16 0 -2
BITMAP
0000
0000
FFF0
1008
1208
0910
0890
04A0
0440
0280
0100
0280
0440
0820
3018
C006
ENDCHAR
STARTCHAR 53CA
ENCODING 21450
SWIDTH 960 0
DWIDTH 16 0
BBX 16 16 0 -2
BITMAP
0000
FFC0
0820
0820
0840
0840
0C30
0A08
0A08
0910
1110
10A0
2040
20A0
4318
9C06
ENDCHAR
STARTCHAR 53CB
ENCODING 21451
SWIDTH 960 0
DWIDTH 16 0
BBX 16 16 0 -2
BITMAP
0400
0400
0400
FFFE
0400
0400
07E0
0410
0A10
0A20
1140
2080
C140
0620
1818
E006
ENDCHAR
STARTCHAR 53CC
ENCODING 21452
SWIDTH 960 0
DWIDTH 16 0
BBX 16 16 0 -2
BITMAP
0000
FDF8
0204
0284
4284
2488
1448
1450
0850
0C20
1420
1250
2250
2088
4104
8602
ENDCHAR
STARTCHAR 53CD
ENCODING 21453
SWIDTH 960 0
DWIDTH 16 0
BBX 16 16 0 -2
BITMAP
0000
1FFE
2000
2000
2000
3FE0
2410
2410
2220
2220
2140
2080
4140
4220
8C18
3006
ENDCHAR
STARTCHAR 53CE
ENCODING 21454
SWIDTH 960 0
DWIDTH 16 0
BBX 16 16 0 -2
BITMAP
0800
4800
4BF0
4808
4908
4908
4910
4890
48A0
4860
5840
68A0
C890
0908
0A04
0C02
ENDCHAR
STARTCHAR 53D4
ENCODING 21460
SWIDTH 960 0
DWIDTH 16 0
BBX 16 16 0 -2
BITMAP
1000
1000
1FF8
1004
1084
1084
FF48
1048
5450
5430
5220
5250
9250
1088
1104
6602
ENDCHAR
STARTCHAR 53D6
ENCODING 21462
SWIDTH 960 0
DWIDTH 16 0
BBX 16 16 0 -2
BITMAP
0000
FF80
4400
45F8
7C04
4484
4488
4448
7C50
4430
4420
4C50
7450
C488
0504
0602
ENDCHAR
STARTCHAR 53D7
ENCODING 21463
SWIDTH 960 0
DWIDTH 16 0
BBX 16 16 0 -2
BITMAP
001C
7FE8
2208
1110
1110
7FFC
8002
8002
3FE0
0810
0420
0240
0180
0640
1830
E00E
ENDCHAR
STARTCHAR 53D9
ENCODING 21465
SWIDTH 960 0
DWIDTH 16 0
BBX 16 16 0 -2
BITMAP
1000
1800
25F8
2204
7E84
9084
1048
FF48
1050
5830
5420
5250
9250
9088
1104
6602
ENDCHAR
STARTCHAR 53DB
ENCODING 21467
SWIDTH 960 0
DWIDTH 16 0
BBX 16 16 0 -2
BITMAP
2000
A9FE
AA00
B200
2200
FFF8
2204
2284
2288
3A48
E250
2420
2450
4890
5308
8C06
ENDCHAR
STARTCHAR 53DF
ENCODING 21471
SWIDTH 960 0
DWIDTH 16 0
BBX 16 16 0 -2
BITMAP
0500
1970
2108
2108
3D78
2108
2108
1FF0
0100
7FF0
0810
0420
0240
0380
1C70
E00E
ENDCHAR
STARTCHAR 53E1
ENCODING 21473
SWIDTH 960 0
DWIDTH 16 0
BBX 16 16 0 -2
BITMAP
0800
0800
7EF8
8144
BF44
4A44
4928
94A8
3E28
6310
BE90
2228
3E28
2244
1C84
0102
ENDCHAR
STARTCHAR 53E2
ENCODING 21474
SWIDTH 960 0
DWIDTH 16 0
BBX 16 16 0 -2
BITMAP
4444
2448
FFFE
0820
0440
FFFE
0100
7FFC
0100
FFFE
4200
7FF8
4244
5E38
E268
0386
ENDCHAR
STARTCHAR 53E3
ENCODING 21475
SWIDTH 960 0
DWIDTH 16 0
BBX 16 16 0 -2
BITMAP
0000
0000
1FF0
2008
2008
2008
2008
2008
2008
2008
2008
2008
2008
1FF0
0000
0000
ENDCHAR
STARTCHAR 53E4
ENCODING 21476
SWIDTH 960 0
DWIDTH 16 0
BBX 16 16 0 -2
BITMAP
0100
0100
0100
0100
FFFE
0100
0100
0100
0100
1FF0
2008
2008
2008
2008
1FF0
0000
ENDCHAR
STARTCHAR 53E5
ENCODING 21477
SWIDTH 960 0
DWIDTH 16 0
BBX 16 16 0 -2
BITMAP
1000
1000
1000
1FF8
2004
2004
4F04
9084
1084
1084
1084
0F04
0008
0008
0010
00E0
ENDCHAR
STARTCHAR 53E8
ENCODING 21480
SWIDTH 960 0
DWIDTH 16 0
BBX 16 16 0 -2
BITMAP
0000
0000
37F8
4844
4844
4844
4844
4844
4884
4884
3084
0104
0108
0208
0490
0860
ENDCHAR
STARTCHAR 53E9
ENCODING 21481
SWIDTH 960 0
DWIDTH 16 0
BBX 16 16 0 -2
BITMAP
0000
0000
787C
8482
8482
8482
8482
8482
8482
8482
8482
8482
78BC
0080
0080
0080
ENDCHAR
STARTCHAR 53EA
ENCODING 21482
SWIDTH 960 0
DWIDTH 16 0
BBX 16 16 0 -2
BITMAP
0000
1FF0
2008
2008
2008
2008
2008
2008
2008
1FF0
0000
0000
0820
1010
2008
C006
ENDCHAR
STARTCHAR 53EB
ENCODING 21483
SWIDTH 960 0
DWIDTH 16 0
BBX 16 16 0 -2
BITMAP
0008
0088
7088
8888
8888
8888
8888
8888
8888
8888
888E
88F8
7788
0008
0008
0008
ENDCHAR
STARTCHAR 53EC
ENCODING 21484
SWIDTH 960 0
DWIDTH 16 0
BBX 16 16 0 -2
BITMAP
0000
FFF8
0204
0204
0404
0404
0888
3070
C000
1FF0
2008
2008
2008
2008
1FF0
0000
ENDCHAR
STARTCHAR 53ED
ENCODING 21485
SWIDTH 960 0
DWIDTH 16 0
BBX 16 16 0 -2
BITMAP
0120
0120
3120
4920
4920
4920
4920
4920
4A10
3210
0210
0410
0408
0808
1004
2002
ENDCHAR
STARTCHAR 53EE
ENCODING 21486
SWIDTH 960 0
DWIDTH 16 0
BBX 16 16 0 -2
BITMAP
0000
07FE
3820
4420
4420
4420
4420
4420
4420
4420
3820
0020
0020
0020
0020
01C0
ENDCHAR
STARTCHAR 53EF
ENCODING 21487
SWIDTH 960 0
DWIDTH 16 0
BBX 16 16 0 -2
BITMAP
0000
0000
FFFE
0008
0008
0F08
1088
1088
1088
1088
1088
0F08
0008
0008
0008
0070
ENDCHAR
STARTCHAR 53F0
ENCODING 21488
SWIDTH 960 0
DWIDTH 16 0
BBX 16 16 0 -2
BITMAP
0200
0200
0420
0410
0808
11FC
FE02
0002
0000
1FF0
2008
2008
2008
2008
1FF0
0000
ENDCHAR
STARTCHAR 53F1
ENCODING 21489
SWIDTH 960 0
DWIDTH 16 0
BBX 16 16 0 -2
BITMAP
0100
0100
0100
7100
8900
8906
8938
89C0
8F00
8900
8900
8900
7102
0102
0102
00FC
ENDCHAR
STARTCHAR 53F2
ENCODING 21490
SWIDTH 960 0
DWIDTH 16 0
BBX 16 16 0 -2
BITMAP
0100
0100
0100
3FF8
4104
4104
4104
4104
3FF8
1100
0900
0500
0200
0580
1860
E01E
ENDCHAR
STARTCHAR 53F3
ENCODING 21491
SWIDTH 960 0
DWIDTH 16 0
BBX 16 16 0 -2
BITMAP
0200
0200
0200
FFFE
0400
0400
0800
1000
2FF0
D008
1008
1008
1008
1008
0FF0
0000
ENDCHAR
STARTCHAR 53F6
ENCODING 21494
SWIDTH 960 0
DWIDTH 16 0
BBX 16 16 0 -2
BITMAP
0040
0040
0040
7040
8840
8840
8840
8FFE
8840
8840
8840
7040
0040
0040
0040
0040
ENDCHAR
STARTCHAR 53F7
ENCODING 21495
SWIDTH 960 0
DWIDTH 16 0
BBX 16 16 0 -2
BITMAP
0000
1FF0
2008
2008
2008
1FF0
0000
FFFE
1000
1000
0FF0
0008
0008
0008
0010
03E0
ENDCHAR
STARTCHAR 53F8
ENCODING 21496
SWIDTH 960 0
DWIDTH 16 0
BBX 16 16 0 -2
BITMAP
0000
FFF8
0004
0004
7FC4
0004
0004
1F04
2084
2084
2084
2084
1F04
0004
0004
0038
ENDCHAR
STARTCHAR 53FA
ENCODING 21498
SWIDTH 960 0
DWIDTH 16 0
BBX 16 16 0 -2
BITMAP
0000
0700
3080
4880
4880
4880
4880
4940
4940
4940
3120
0220
0210
0410
0808
3006
ENDCHAR
STARTCHAR 5401
ENCODING 21505
SWIDTH 960 0
DWIDTH 16 0
BBX 16 16 0 -2
BITMAP
0000
03FC
3040
4840
4840
4840
4840
4FFE
4840
4840
3040
0040
0040
0040
0040
0180
ENDCHAR
STARTCHAR 5403
ENCODING 21507
SWIDTH 960 0
DWIDTH 16 0
BBX 16 16 0 -2
BITMAP
0200
0200
6200
97FE
9400
9800
97E0
9010
9020
9040
9080
9100
6202
0402
0402
03FC
ENDCHAR
STARTCHAR 5404
ENCODING 21508
SWIDTH 960 0
DWIDTH 16 0
BBX 16 16 0 -2
BITMAP
0400
0400
0FE0
0810
1420
6240
0180
0240
0C20
3018
CFE6
1010
1010
1010
0FE0
0000
ENDCHAR
STARTCHAR 5408
ENCODING 21512
SWIDTH 960 0
DWIDTH 16 0
BBX 16 16 0 -2
BITMAP
0100
0100
0280
0440
0820
1010
2FE8
C006
0000
1FF0
2008
2008
2008
2008
1FF0
0000
ENDCHAR
STARTCHAR 5409
ENCODING 21513
SWIDTH 960 0
DWIDTH 16 0
BBX 16 16 0 -2
BITMAP
0100
0100
0100
FFFE
0100
0100
0100
7FFC
0000
0000
1FF0
2008
2008
2008
1FF0
0000
ENDCHAR
STARTCHAR 540A
ENCODING 21514
SWIDTH 960 0
DWIDTH 16 0
BBX 16 16 0 -2
BITMAP
0000
1FF0
2008
2008
2008
1FF0
0100
0100
3FF8
4104
4104
4104
4104
4138
0100
0100
ENDCHAR
STARTCHAR 540B
ENCODING 21515
SWIDTH 960 0
DWIDTH 16 0
BBX 16 16 0 -2
BITMAP
0010
0010
7010
8810
8FFE
8810
8A10
8910
8890
8890
8810
7010
0010
0010
0010
00E0
ENDCHAR
STARTCHAR 540C
ENCODING 21516
SWIDTH 960 0
DWIDTH 16 0
BBX 16 16 0 -2
BITMAP
0000
3FF8
4004
4004
5FF4
4004
4004
47C4
4824
4824
4824
47C4
4004
4004
4004
4038
ENDCHAR
STARTCHAR 540D
ENCODING 21517
SWIDTH 960 0
DWIDTH 16 0
BBX 16 16 0 -2
BITMAP
0200
0200
07F0
0808
3008
CC10
0260
0180
0200
0FF8
3804
C804
0804
0804
07F8
0000
ENDCHAR
STARTCHAR 540E
ENCODING 21518
SWIDTH 960 0
DWIDTH 16 0
BBX 16 16 0 -2
BITMAP
000C
0070
1F80
2000
2000
3FFE
2000
2000
27F0
2808
2808
4808
4808
8808
07F0
0000
ENDCHAR
STARTCHAR 540F
ENCODING 21519
SWIDTH 960 0
DWIDTH 16 0
BBX 16 16 0 -2
BITMAP
0100
0100
FFFE
0100
0100
3FF8
4104
4104
4104
3FF8
1100
0900
0600
0300
0CE0
F01E
ENDCHAR
STARTCHAR 5410
ENCODING 21520
SWIDTH 960 0
DWIDTH 16 0
BBX 16 16 0 -2
BITMAP
0040
0040
7040
8840
8840
8FFC
8840
8840
8840
8840
8840
8840
7040
0040
0FFE
0000
ENDCHAR
STARTCHAR 5411
ENCODING 21521
SWIDTH 960 0
DWIDTH 16 0
BBX 16 16 0 -2
BITMAP
0200
0200
0400
3FF8
4004
4004
47C4
4824
4824
4824
4824
47C4
4004
4004
4004
4038
ENDCHAR
STARTCHAR 541B
ENCODING 21531
SWIDTH 960 0
DWIDTH 16 0
BBX 16 16 0 -2
BITMAP
0000
7FF0
0208
0208
FFFE
0208
0208
7FF0
0400
0800
1FF8
3004
D004
1004
0FF8
0000
ENDCHAR
STARTCHAR 541D
ENCODING 21533
SWIDTH 960 0
DWIDTH 16 0
BBX 16 16 0 -2
BITMAP
0100
0100
FFFE
0820
0440
0280
0100
06C0
1830
E00E
0FE0
1010
1010
1010
0FE0
0000
ENDCHAR
STARTCHAR 541F
ENCODING 21535
SWIDTH 960 0
DWIDTH 16 0
BBX 16 16 0 -2
BITMAP
0080
0080
6140
9120
9210
9408
9BF6
9000
9000
97F0
9008
9008
6010
0010
0060
0180
ENDCHAR
STARTCHAR 5420
ENCODING 21536
SWIDTH 960 0
DWIDTH 16 0
BBX 16 16 0 -2
BITMAP
0040
0050
0048
7048
8840
8FFE
8840
8840
88A0
88A0
88A0
7110
0110
0208
0404
1802
ENDCHAR
STARTCHAR 5426
ENCODING 21542
SWIDTH 960 0
DWIDTH 16 0
BBX 16 16 0 -2
BITMAP
0000
FFFE
0040
0080
0160
0718
1904
E102
0100
1FF0
2008
2008
2008
2008
1FF0
0000
ENDCHAR
STARTCHAR 5429
ENCODING 21545
SWIDTH 960 0
DWIDTH 16 0
BBX 16 16 0 -2
BITMAP
00A0
00A0
30A0
4910
4910
4A08
4C04
4BF2
4888
4888
3088
0108
0108
0210
0490
1860
ENDCHAR
STARTCHAR 542B
ENCODING 21547
SWIDTH 960 0
DWIDTH 16 0
BBX 16 16 0 -2
BITMAP
0100
0100
0280
0440
0820
17D0
2008
DFE6
0010
0020
00C0
1FF0
2008
2008
1FF0
0000
ENDCHAR
STARTCHAR 542C
ENCODING 21548
SWIDTH 960 0
DWIDTH 16 0
BBX 16 16 0 -2
BITMAP
0004
0018
30E0
4900
4900
49FE
4910
4910
4910
4910
3110
0210
0210
0410
0810
0010
ENDCHAR
STARTCHAR 542D
ENCODING 21549
SWIDTH 960 0
DWIDTH 16 0
BBX 16 16 0 -2
BITMAP
0040
0040
3040
4FFE
4800
4800
48E0
4910
4910
4910
3110
0110
0212
0212
0412
180C
ENDCHAR
STARTCHAR 542E
ENCODING 21550
SWIDTH 960 0
DWIDTH 16 0
BBX 16 16 0 -2
BITMAP
0080
0080
3120
4910
4A08
4A7C
4FA4
4924
4920
4920
3120
0220
0222
0422
0822
301C
ENDCHAR
STARTCHAR 5436
ENCODING 21558
SWIDTH 960 0
DWIDTH 16 0
BBX 16 16 0 -2
BITMAP
0040
0040
3040
49F8
4A44
4A44
4A44
4A44
4AA4
4A94
330C
0204
0204
0204
0204
0218
ENDCHAR
ENDFONT
